G75*
%MOIN*%
%OFA0B0*%
%FSLAX25Y25*%
%IPPOS*%
%LPD*%
%AMOC8*
5,1,8,0,0,1.08239X$1,22.5*
%
%ADD10R,0.05600X0.05600*%
%ADD11C,0.05600*%
%ADD12R,0.04134X0.01378*%
%ADD13R,0.01378X0.04134*%
D10*
X0086928Y0006300D03*
X0086928Y0016300D03*
D11*
X0096928Y0016300D03*
X0106928Y0016300D03*
X0116928Y0016300D03*
X0126928Y0016300D03*
X0136928Y0016300D03*
X0146928Y0016300D03*
X0156928Y0016300D03*
X0166928Y0016300D03*
X0176928Y0016300D03*
X0186928Y0016300D03*
X0196928Y0016300D03*
X0206928Y0016300D03*
X0216928Y0016300D03*
X0226928Y0016300D03*
X0236928Y0016300D03*
X0246928Y0016300D03*
X0256928Y0016300D03*
X0266928Y0016300D03*
X0276928Y0016300D03*
X0276928Y0006300D03*
X0266928Y0006300D03*
X0256928Y0006300D03*
X0246928Y0006300D03*
X0236928Y0006300D03*
X0226928Y0006300D03*
X0216928Y0006300D03*
X0206928Y0006300D03*
X0196928Y0006300D03*
X0186928Y0006300D03*
X0176928Y0006300D03*
X0166928Y0006300D03*
X0156928Y0006300D03*
X0146928Y0006300D03*
X0136928Y0006300D03*
X0126928Y0006300D03*
X0116928Y0006300D03*
X0106928Y0006300D03*
X0096928Y0006300D03*
X0096928Y0066300D03*
X0106928Y0066300D03*
X0116928Y0066300D03*
X0126928Y0066300D03*
X0136928Y0066300D03*
X0146928Y0066300D03*
X0156928Y0066300D03*
X0166928Y0066300D03*
X0176928Y0066300D03*
X0186928Y0066300D03*
X0196928Y0066300D03*
X0206928Y0066300D03*
X0216928Y0066300D03*
X0226928Y0066300D03*
X0236928Y0066300D03*
X0246928Y0066300D03*
X0256928Y0066300D03*
X0266928Y0066300D03*
X0276928Y0066300D03*
X0276928Y0076300D03*
X0266928Y0076300D03*
X0256928Y0076300D03*
X0246928Y0076300D03*
X0236928Y0076300D03*
X0226928Y0076300D03*
X0216928Y0076300D03*
X0206928Y0076300D03*
X0196928Y0076300D03*
X0186928Y0076300D03*
X0176928Y0076300D03*
X0166928Y0076300D03*
X0156928Y0076300D03*
X0146928Y0076300D03*
X0136928Y0076300D03*
X0126928Y0076300D03*
X0116928Y0076300D03*
X0106928Y0076300D03*
X0096928Y0076300D03*
X0086928Y0076300D03*
X0086928Y0066300D03*
D12*
X0069369Y0056064D03*
X0069369Y0054095D03*
X0069369Y0052127D03*
X0069369Y0050158D03*
X0069369Y0048190D03*
X0069369Y0046221D03*
X0069369Y0044253D03*
X0069369Y0042284D03*
X0069369Y0040316D03*
X0069369Y0038347D03*
X0069369Y0036379D03*
X0069369Y0034410D03*
X0069369Y0032442D03*
X0069369Y0030473D03*
X0069369Y0028505D03*
X0069369Y0026536D03*
X0024488Y0026536D03*
X0024488Y0028505D03*
X0024488Y0030473D03*
X0024488Y0032442D03*
X0024488Y0034410D03*
X0024488Y0036379D03*
X0024488Y0038347D03*
X0024488Y0040316D03*
X0024488Y0042284D03*
X0024488Y0044253D03*
X0024488Y0046221D03*
X0024488Y0048190D03*
X0024488Y0050158D03*
X0024488Y0052127D03*
X0024488Y0054095D03*
X0024488Y0056064D03*
D13*
X0032165Y0018859D03*
X0034133Y0018859D03*
X0036102Y0018859D03*
X0038070Y0018859D03*
X0040039Y0018859D03*
X0042007Y0018859D03*
X0043976Y0018859D03*
X0045944Y0018859D03*
X0047913Y0018859D03*
X0049881Y0018859D03*
X0051850Y0018859D03*
X0053818Y0018859D03*
X0055787Y0018859D03*
X0057755Y0018859D03*
X0059724Y0018859D03*
X0061692Y0018859D03*
X0061692Y0063741D03*
X0059724Y0063741D03*
X0057755Y0063741D03*
X0055787Y0063741D03*
X0053818Y0063741D03*
X0051850Y0063741D03*
X0049881Y0063741D03*
X0047913Y0063741D03*
X0045944Y0063741D03*
X0043976Y0063741D03*
X0042007Y0063741D03*
X0040039Y0063741D03*
X0038070Y0063741D03*
X0036102Y0063741D03*
X0034133Y0063741D03*
X0032165Y0063741D03*
M02*
