G75*
%MOIN*%
%OFA0B0*%
%FSLAX25Y25*%
%IPPOS*%
%LPD*%
%AMOC8*
5,1,8,0,0,1.08239X$1,22.5*
%
%ADD10C,0.00000*%
D10*
X0014428Y0006300D02*
X0014428Y0076300D01*
X0014430Y0076440D01*
X0014436Y0076580D01*
X0014446Y0076720D01*
X0014459Y0076860D01*
X0014477Y0076999D01*
X0014499Y0077138D01*
X0014524Y0077275D01*
X0014553Y0077413D01*
X0014586Y0077549D01*
X0014623Y0077684D01*
X0014664Y0077818D01*
X0014709Y0077951D01*
X0014757Y0078083D01*
X0014809Y0078213D01*
X0014864Y0078342D01*
X0014923Y0078469D01*
X0014986Y0078595D01*
X0015052Y0078719D01*
X0015121Y0078840D01*
X0015194Y0078960D01*
X0015271Y0079078D01*
X0015350Y0079193D01*
X0015433Y0079307D01*
X0015519Y0079417D01*
X0015608Y0079526D01*
X0015700Y0079632D01*
X0015795Y0079735D01*
X0015892Y0079836D01*
X0015993Y0079933D01*
X0016096Y0080028D01*
X0016202Y0080120D01*
X0016311Y0080209D01*
X0016421Y0080295D01*
X0016535Y0080378D01*
X0016650Y0080457D01*
X0016768Y0080534D01*
X0016888Y0080607D01*
X0017009Y0080676D01*
X0017133Y0080742D01*
X0017259Y0080805D01*
X0017386Y0080864D01*
X0017515Y0080919D01*
X0017645Y0080971D01*
X0017777Y0081019D01*
X0017910Y0081064D01*
X0018044Y0081105D01*
X0018179Y0081142D01*
X0018315Y0081175D01*
X0018453Y0081204D01*
X0018590Y0081229D01*
X0018729Y0081251D01*
X0018868Y0081269D01*
X0019008Y0081282D01*
X0019148Y0081292D01*
X0019288Y0081298D01*
X0019428Y0081300D01*
X0276924Y0081300D01*
X0277064Y0081298D01*
X0277204Y0081292D01*
X0277344Y0081282D01*
X0277484Y0081269D01*
X0277623Y0081251D01*
X0277761Y0081230D01*
X0277899Y0081204D01*
X0278036Y0081175D01*
X0278173Y0081142D01*
X0278308Y0081105D01*
X0278442Y0081064D01*
X0278575Y0081020D01*
X0278707Y0080972D01*
X0278838Y0080920D01*
X0278966Y0080865D01*
X0279094Y0080805D01*
X0279219Y0080743D01*
X0279343Y0080677D01*
X0279465Y0080607D01*
X0279585Y0080534D01*
X0279702Y0080458D01*
X0279818Y0080378D01*
X0279931Y0080296D01*
X0280042Y0080210D01*
X0280150Y0080121D01*
X0280256Y0080029D01*
X0280360Y0079934D01*
X0280460Y0079836D01*
X0280558Y0079736D01*
X0280653Y0079632D01*
X0280745Y0079526D01*
X0280834Y0079418D01*
X0280920Y0079307D01*
X0281002Y0079194D01*
X0281082Y0079078D01*
X0281158Y0078961D01*
X0281231Y0078841D01*
X0281301Y0078719D01*
X0281367Y0078595D01*
X0281429Y0078470D01*
X0281489Y0078342D01*
X0281544Y0078214D01*
X0281596Y0078083D01*
X0281644Y0077951D01*
X0281688Y0077818D01*
X0281729Y0077684D01*
X0281766Y0077549D01*
X0281799Y0077412D01*
X0281828Y0077275D01*
X0281854Y0077137D01*
X0281875Y0076999D01*
X0281893Y0076860D01*
X0281906Y0076720D01*
X0281916Y0076580D01*
X0281922Y0076440D01*
X0281924Y0076300D01*
X0281855Y0006300D01*
X0281853Y0006160D01*
X0281847Y0006020D01*
X0281837Y0005880D01*
X0281823Y0005740D01*
X0281806Y0005601D01*
X0281784Y0005463D01*
X0281759Y0005325D01*
X0281729Y0005188D01*
X0281696Y0005051D01*
X0281659Y0004916D01*
X0281619Y0004782D01*
X0281574Y0004649D01*
X0281526Y0004517D01*
X0281474Y0004387D01*
X0281419Y0004258D01*
X0281360Y0004131D01*
X0281297Y0004005D01*
X0281231Y0003882D01*
X0281161Y0003760D01*
X0281088Y0003640D01*
X0281012Y0003522D01*
X0280932Y0003407D01*
X0280850Y0003294D01*
X0280764Y0003183D01*
X0280675Y0003074D01*
X0280583Y0002968D01*
X0280488Y0002865D01*
X0280390Y0002765D01*
X0280289Y0002667D01*
X0280186Y0002572D01*
X0280080Y0002480D01*
X0279972Y0002391D01*
X0279861Y0002305D01*
X0279748Y0002222D01*
X0279632Y0002143D01*
X0279515Y0002066D01*
X0279395Y0001993D01*
X0279273Y0001924D01*
X0279149Y0001858D01*
X0279024Y0001795D01*
X0278896Y0001736D01*
X0278768Y0001681D01*
X0278637Y0001629D01*
X0278506Y0001581D01*
X0278373Y0001536D01*
X0278238Y0001495D01*
X0278103Y0001458D01*
X0277967Y0001425D01*
X0277830Y0001396D01*
X0277692Y0001371D01*
X0277553Y0001349D01*
X0277414Y0001331D01*
X0277274Y0001318D01*
X0277134Y0001308D01*
X0276994Y0001302D01*
X0276854Y0001300D01*
X0019428Y0001300D01*
X0019288Y0001302D01*
X0019148Y0001308D01*
X0019008Y0001318D01*
X0018868Y0001331D01*
X0018729Y0001349D01*
X0018590Y0001371D01*
X0018453Y0001396D01*
X0018315Y0001425D01*
X0018179Y0001458D01*
X0018044Y0001495D01*
X0017910Y0001536D01*
X0017777Y0001581D01*
X0017645Y0001629D01*
X0017515Y0001681D01*
X0017386Y0001736D01*
X0017259Y0001795D01*
X0017133Y0001858D01*
X0017009Y0001924D01*
X0016888Y0001993D01*
X0016768Y0002066D01*
X0016650Y0002143D01*
X0016535Y0002222D01*
X0016421Y0002305D01*
X0016311Y0002391D01*
X0016202Y0002480D01*
X0016096Y0002572D01*
X0015993Y0002667D01*
X0015892Y0002764D01*
X0015795Y0002865D01*
X0015700Y0002968D01*
X0015608Y0003074D01*
X0015519Y0003183D01*
X0015433Y0003293D01*
X0015350Y0003407D01*
X0015271Y0003522D01*
X0015194Y0003640D01*
X0015121Y0003760D01*
X0015052Y0003881D01*
X0014986Y0004005D01*
X0014923Y0004131D01*
X0014864Y0004258D01*
X0014809Y0004387D01*
X0014757Y0004517D01*
X0014709Y0004649D01*
X0014664Y0004782D01*
X0014623Y0004916D01*
X0014586Y0005051D01*
X0014553Y0005187D01*
X0014524Y0005325D01*
X0014499Y0005462D01*
X0014477Y0005601D01*
X0014459Y0005740D01*
X0014446Y0005880D01*
X0014436Y0006020D01*
X0014430Y0006160D01*
X0014428Y0006300D01*
M02*
