%
M48
M72
T01C0.01200
T02C0.03150
T03C0.03200
%
T01
X28178Y22550
X38178Y25050
X41928Y25050
X46928Y26300
X46928Y31300
X53178Y35050
X43178Y36300
X39428Y35050
X33178Y36300
X36928Y38800
X34428Y41300
X36928Y43800
X34428Y46300
X36928Y48800
X34428Y51300
X36928Y53800
X34428Y56300
X36928Y58800
X30678Y62550
X28178Y60050
X43178Y67550
X66928Y61300
X151928Y41300
X161928Y61300
X169428Y71300
X201928Y68800
X219428Y71300
X241928Y71300
X65678Y21300
X63178Y27550
X61928Y31300
X31928Y31300
X31928Y27550
T02
X18178Y16300
X18178Y26300
X18178Y36300
X18178Y46300
X18178Y56300
X18178Y66300
T03
X86928Y66300
X96928Y66300
X106928Y66300
X116928Y66300
X126928Y66300
X136928Y66300
X146928Y66300
X156928Y66300
X166928Y66300
X176928Y66300
X186928Y66300
X196928Y66300
X206928Y66300
X216928Y66300
X226928Y66300
X236928Y66300
X246928Y66300
X256928Y66300
X266928Y66300
X276928Y66300
X276928Y76300
X266928Y76300
X256928Y76300
X246928Y76300
X236928Y76300
X226928Y76300
X216928Y76300
X206928Y76300
X196928Y76300
X186928Y76300
X176928Y76300
X166928Y76300
X156928Y76300
X146928Y76300
X136928Y76300
X126928Y76300
X116928Y76300
X106928Y76300
X96928Y76300
X86928Y76300
X86928Y16300
X96928Y16300
X106928Y16300
X116928Y16300
X126928Y16300
X136928Y16300
X146928Y16300
X156928Y16300
X166928Y16300
X176928Y16300
X186928Y16300
X196928Y16300
X206928Y16300
X216928Y16300
X226928Y16300
X236928Y16300
X246928Y16300
X256928Y16300
X266928Y16300
X276928Y16300
X276928Y6300
X266928Y6300
X256928Y6300
X246928Y6300
X236928Y6300
X226928Y6300
X216928Y6300
X206928Y6300
X196928Y6300
X186928Y6300
X176928Y6300
X166928Y6300
X156928Y6300
X146928Y6300
X136928Y6300
X126928Y6300
X116928Y6300
X106928Y6300
X96928Y6300
X86928Y6300
M30
