G75*
%MOIN*%
%OFA0B0*%
%FSLAX25Y25*%
%IPPOS*%
%LPD*%
%AMOC8*
5,1,8,0,0,1.08239X$1,22.5*
%
%ADD10R,0.05200X0.05200*%
%ADD11C,0.05200*%
%ADD12R,0.03937X0.01181*%
%ADD13R,0.01181X0.03937*%
%ADD14C,0.00600*%
%ADD15C,0.04724*%
%ADD16C,0.02400*%
%ADD17C,0.01200*%
D10*
X0086928Y0006300D03*
X0086928Y0016300D03*
D11*
X0096928Y0016300D03*
X0106928Y0016300D03*
X0116928Y0016300D03*
X0126928Y0016300D03*
X0136928Y0016300D03*
X0146928Y0016300D03*
X0156928Y0016300D03*
X0166928Y0016300D03*
X0176928Y0016300D03*
X0186928Y0016300D03*
X0196928Y0016300D03*
X0206928Y0016300D03*
X0216928Y0016300D03*
X0226928Y0016300D03*
X0236928Y0016300D03*
X0246928Y0016300D03*
X0256928Y0016300D03*
X0266928Y0016300D03*
X0276928Y0016300D03*
X0276928Y0006300D03*
X0266928Y0006300D03*
X0256928Y0006300D03*
X0246928Y0006300D03*
X0236928Y0006300D03*
X0226928Y0006300D03*
X0216928Y0006300D03*
X0206928Y0006300D03*
X0196928Y0006300D03*
X0186928Y0006300D03*
X0176928Y0006300D03*
X0166928Y0006300D03*
X0156928Y0006300D03*
X0146928Y0006300D03*
X0136928Y0006300D03*
X0126928Y0006300D03*
X0116928Y0006300D03*
X0106928Y0006300D03*
X0096928Y0006300D03*
X0096928Y0066300D03*
X0106928Y0066300D03*
X0116928Y0066300D03*
X0126928Y0066300D03*
X0136928Y0066300D03*
X0146928Y0066300D03*
X0156928Y0066300D03*
X0166928Y0066300D03*
X0176928Y0066300D03*
X0186928Y0066300D03*
X0196928Y0066300D03*
X0206928Y0066300D03*
X0216928Y0066300D03*
X0226928Y0066300D03*
X0236928Y0066300D03*
X0246928Y0066300D03*
X0256928Y0066300D03*
X0266928Y0066300D03*
X0276928Y0066300D03*
X0276928Y0076300D03*
X0266928Y0076300D03*
X0256928Y0076300D03*
X0246928Y0076300D03*
X0236928Y0076300D03*
X0226928Y0076300D03*
X0216928Y0076300D03*
X0206928Y0076300D03*
X0196928Y0076300D03*
X0186928Y0076300D03*
X0176928Y0076300D03*
X0166928Y0076300D03*
X0156928Y0076300D03*
X0146928Y0076300D03*
X0136928Y0076300D03*
X0126928Y0076300D03*
X0116928Y0076300D03*
X0106928Y0076300D03*
X0096928Y0076300D03*
X0086928Y0076300D03*
X0086928Y0066300D03*
D12*
X0069369Y0056064D03*
X0069369Y0054095D03*
X0069369Y0052127D03*
X0069369Y0050158D03*
X0069369Y0048190D03*
X0069369Y0046221D03*
X0069369Y0044253D03*
X0069369Y0042284D03*
X0069369Y0040316D03*
X0069369Y0038347D03*
X0069369Y0036379D03*
X0069369Y0034410D03*
X0069369Y0032442D03*
X0069369Y0030473D03*
X0069369Y0028505D03*
X0069369Y0026536D03*
X0024488Y0026536D03*
X0024488Y0028505D03*
X0024488Y0030473D03*
X0024488Y0032442D03*
X0024488Y0034410D03*
X0024488Y0036379D03*
X0024488Y0038347D03*
X0024488Y0040316D03*
X0024488Y0042284D03*
X0024488Y0044253D03*
X0024488Y0046221D03*
X0024488Y0048190D03*
X0024488Y0050158D03*
X0024488Y0052127D03*
X0024488Y0054095D03*
X0024488Y0056064D03*
D13*
X0032165Y0063741D03*
X0034133Y0063741D03*
X0036102Y0063741D03*
X0038070Y0063741D03*
X0040039Y0063741D03*
X0042007Y0063741D03*
X0043976Y0063741D03*
X0045944Y0063741D03*
X0047913Y0063741D03*
X0049881Y0063741D03*
X0051850Y0063741D03*
X0053818Y0063741D03*
X0055787Y0063741D03*
X0057755Y0063741D03*
X0059724Y0063741D03*
X0061692Y0063741D03*
X0061692Y0018859D03*
X0059724Y0018859D03*
X0057755Y0018859D03*
X0055787Y0018859D03*
X0053818Y0018859D03*
X0051850Y0018859D03*
X0049881Y0018859D03*
X0047913Y0018859D03*
X0045944Y0018859D03*
X0043976Y0018859D03*
X0042007Y0018859D03*
X0040039Y0018859D03*
X0038070Y0018859D03*
X0036102Y0018859D03*
X0034133Y0018859D03*
X0032165Y0018859D03*
D14*
X0015328Y0006300D02*
X0015407Y0005500D01*
X0016019Y0004022D01*
X0017151Y0002891D01*
X0018629Y0002279D01*
X0019428Y0002200D01*
X0276854Y0002200D01*
X0277654Y0002279D01*
X0279132Y0002891D01*
X0280263Y0004022D01*
X0280876Y0005500D01*
X0280955Y0006300D01*
X0280955Y0006304D01*
X0280955Y0006673D01*
X0280955Y0006673D01*
X0281024Y0076297D01*
X0281024Y0076300D01*
X0280945Y0077100D01*
X0280333Y0078579D01*
X0279202Y0079710D01*
X0277724Y0080322D01*
X0276924Y0080400D01*
X0276923Y0080400D01*
X0276551Y0080400D01*
X0276551Y0080400D01*
X0077025Y0080400D01*
X0083676Y0073750D01*
X0084529Y0073750D01*
X0083961Y0074317D01*
X0083428Y0075604D01*
X0083428Y0076996D01*
X0083961Y0078283D01*
X0084946Y0079267D01*
X0086232Y0079800D01*
X0087625Y0079800D01*
X0088911Y0079267D01*
X0089896Y0078283D01*
X0090428Y0076996D01*
X0090428Y0075604D01*
X0089896Y0074317D01*
X0089328Y0073750D01*
X0094529Y0073750D01*
X0093961Y0074317D01*
X0093428Y0075604D01*
X0093428Y0076996D01*
X0093961Y0078283D01*
X0094946Y0079267D01*
X0096232Y0079800D01*
X0097625Y0079800D01*
X0098911Y0079267D01*
X0099896Y0078283D01*
X0100428Y0076996D01*
X0100428Y0075604D01*
X0099896Y0074317D01*
X0099328Y0073750D01*
X0102681Y0073750D01*
X0103753Y0074821D01*
X0103428Y0075604D01*
X0103428Y0076996D01*
X0103961Y0078283D01*
X0104946Y0079267D01*
X0106232Y0079800D01*
X0107625Y0079800D01*
X0108911Y0079267D01*
X0109896Y0078283D01*
X0110428Y0076996D01*
X0110428Y0075604D01*
X0109896Y0074317D01*
X0108911Y0073333D01*
X0107625Y0072800D01*
X0106232Y0072800D01*
X0105450Y0073124D01*
X0104825Y0072500D01*
X0111431Y0072500D01*
X0113753Y0074821D01*
X0113428Y0075604D01*
X0113428Y0076996D01*
X0113961Y0078283D01*
X0114946Y0079267D01*
X0116232Y0079800D01*
X0117625Y0079800D01*
X0118911Y0079267D01*
X0119896Y0078283D01*
X0120428Y0076996D01*
X0120428Y0075604D01*
X0119896Y0074317D01*
X0118911Y0073333D01*
X0117625Y0072800D01*
X0116232Y0072800D01*
X0115450Y0073124D01*
X0113575Y0071250D01*
X0120181Y0071250D01*
X0123753Y0074821D01*
X0123428Y0075604D01*
X0123428Y0076996D01*
X0123961Y0078283D01*
X0124946Y0079267D01*
X0126232Y0079800D01*
X0127625Y0079800D01*
X0128911Y0079267D01*
X0129896Y0078283D01*
X0130428Y0076996D01*
X0130428Y0075604D01*
X0129896Y0074317D01*
X0128911Y0073333D01*
X0127625Y0072800D01*
X0126232Y0072800D01*
X0125450Y0073124D01*
X0121878Y0069553D01*
X0121176Y0068850D01*
X0119328Y0068850D01*
X0119896Y0068283D01*
X0120428Y0066996D01*
X0120428Y0065604D01*
X0119896Y0064317D01*
X0118911Y0063333D01*
X0117625Y0062800D01*
X0116232Y0062800D01*
X0114946Y0063333D01*
X0113961Y0064317D01*
X0113428Y0065604D01*
X0113428Y0066996D01*
X0113961Y0068283D01*
X0114529Y0068850D01*
X0109328Y0068850D01*
X0109896Y0068283D01*
X0110428Y0066996D01*
X0110428Y0065604D01*
X0109896Y0064317D01*
X0108911Y0063333D01*
X0107625Y0062800D01*
X0106232Y0062800D01*
X0104946Y0063333D01*
X0103961Y0064317D01*
X0103428Y0065604D01*
X0103428Y0066996D01*
X0103961Y0068283D01*
X0104529Y0068850D01*
X0099328Y0068850D01*
X0099896Y0068283D01*
X0100428Y0066996D01*
X0100428Y0065604D01*
X0099896Y0064317D01*
X0098911Y0063333D01*
X0097625Y0062800D01*
X0096232Y0062800D01*
X0094946Y0063333D01*
X0093961Y0064317D01*
X0093428Y0065604D01*
X0093428Y0066996D01*
X0093961Y0068283D01*
X0094529Y0068850D01*
X0089328Y0068850D01*
X0089896Y0068283D01*
X0090428Y0066996D01*
X0090428Y0065604D01*
X0089896Y0064317D01*
X0088911Y0063333D01*
X0087625Y0062800D01*
X0086232Y0062800D01*
X0084946Y0063333D01*
X0083961Y0064317D01*
X0083637Y0065100D01*
X0081431Y0065100D01*
X0071431Y0075100D01*
X0049926Y0075100D01*
X0047144Y0072319D01*
X0047144Y0066609D01*
X0048876Y0066609D01*
X0048897Y0066589D01*
X0048918Y0066609D01*
X0050650Y0066609D01*
X0050650Y0071718D01*
X0051353Y0072421D01*
X0052681Y0073750D01*
X0071176Y0073750D01*
X0071878Y0073047D01*
X0083676Y0061250D01*
X0126431Y0061250D01*
X0128234Y0063052D01*
X0127625Y0062800D01*
X0126232Y0062800D01*
X0124946Y0063333D01*
X0123961Y0064317D01*
X0123428Y0065604D01*
X0123428Y0066996D01*
X0123961Y0068283D01*
X0124946Y0069267D01*
X0126232Y0069800D01*
X0127625Y0069800D01*
X0128911Y0069267D01*
X0129896Y0068283D01*
X0130428Y0066996D01*
X0130428Y0065604D01*
X0130176Y0064995D01*
X0130728Y0065547D01*
X0130728Y0071797D01*
X0131431Y0072500D01*
X0133753Y0074821D01*
X0133428Y0075604D01*
X0133428Y0076996D01*
X0133961Y0078283D01*
X0134946Y0079267D01*
X0136232Y0079800D01*
X0137625Y0079800D01*
X0138911Y0079267D01*
X0139896Y0078283D01*
X0140428Y0076996D01*
X0140428Y0075604D01*
X0139896Y0074317D01*
X0138911Y0073333D01*
X0137625Y0072800D01*
X0136232Y0072800D01*
X0135450Y0073124D01*
X0133128Y0070803D01*
X0133128Y0064553D01*
X0128128Y0059553D01*
X0127426Y0058850D01*
X0082681Y0058850D01*
X0070181Y0071350D01*
X0053676Y0071350D01*
X0053050Y0070724D01*
X0053050Y0066609D01*
X0054587Y0066609D01*
X0054587Y0068155D01*
X0056978Y0070547D01*
X0057681Y0071250D01*
X0069926Y0071250D01*
X0082426Y0058750D01*
X0133931Y0058750D01*
X0138234Y0063052D01*
X0137625Y0062800D01*
X0136232Y0062800D01*
X0134946Y0063333D01*
X0133961Y0064317D01*
X0133428Y0065604D01*
X0133428Y0066996D01*
X0133961Y0068283D01*
X0134946Y0069267D01*
X0136232Y0069800D01*
X0137625Y0069800D01*
X0138911Y0069267D01*
X0139896Y0068283D01*
X0140428Y0066996D01*
X0140428Y0065604D01*
X0140176Y0064995D01*
X0140728Y0065547D01*
X0140728Y0071797D01*
X0141431Y0072500D01*
X0143753Y0074821D01*
X0143428Y0075604D01*
X0143428Y0076996D01*
X0143961Y0078283D01*
X0144946Y0079267D01*
X0146232Y0079800D01*
X0147625Y0079800D01*
X0148911Y0079267D01*
X0149896Y0078283D01*
X0150428Y0076996D01*
X0150428Y0075604D01*
X0149896Y0074317D01*
X0148911Y0073333D01*
X0147625Y0072800D01*
X0146232Y0072800D01*
X0145450Y0073124D01*
X0143128Y0070803D01*
X0143128Y0064553D01*
X0136075Y0057500D01*
X0142681Y0057500D01*
X0148234Y0063052D01*
X0147625Y0062800D01*
X0146232Y0062800D01*
X0144946Y0063333D01*
X0143961Y0064317D01*
X0143428Y0065604D01*
X0143428Y0066996D01*
X0143961Y0068283D01*
X0144946Y0069267D01*
X0146232Y0069800D01*
X0147625Y0069800D01*
X0148911Y0069267D01*
X0149896Y0068283D01*
X0150428Y0066996D01*
X0150428Y0065604D01*
X0150176Y0064995D01*
X0150728Y0065547D01*
X0150728Y0071797D01*
X0153753Y0074821D01*
X0153428Y0075604D01*
X0153428Y0076996D01*
X0153961Y0078283D01*
X0154946Y0079267D01*
X0156232Y0079800D01*
X0157625Y0079800D01*
X0158911Y0079267D01*
X0159896Y0078283D01*
X0160428Y0076996D01*
X0160428Y0075604D01*
X0159896Y0074317D01*
X0158911Y0073333D01*
X0157625Y0072800D01*
X0156232Y0072800D01*
X0155450Y0073124D01*
X0153128Y0070803D01*
X0153128Y0064553D01*
X0144825Y0056250D01*
X0145181Y0056250D01*
X0153753Y0064821D01*
X0153428Y0065604D01*
X0153428Y0066996D01*
X0153961Y0068283D01*
X0154946Y0069267D01*
X0156232Y0069800D01*
X0157625Y0069800D01*
X0158911Y0069267D01*
X0159896Y0068283D01*
X0160428Y0066996D01*
X0160428Y0065604D01*
X0160176Y0064995D01*
X0160728Y0065547D01*
X0160728Y0071797D01*
X0161431Y0072500D01*
X0163753Y0074821D01*
X0163428Y0075604D01*
X0163428Y0076996D01*
X0163961Y0078283D01*
X0164946Y0079267D01*
X0166232Y0079800D01*
X0167625Y0079800D01*
X0168911Y0079267D01*
X0169896Y0078283D01*
X0170428Y0076996D01*
X0170428Y0075604D01*
X0169896Y0074317D01*
X0168978Y0073400D01*
X0170298Y0073400D01*
X0171198Y0072500D01*
X0217659Y0072500D01*
X0218195Y0073036D01*
X0217625Y0072800D01*
X0216232Y0072800D01*
X0214946Y0073333D01*
X0213961Y0074317D01*
X0213428Y0075604D01*
X0213428Y0076996D01*
X0213961Y0078283D01*
X0214946Y0079267D01*
X0216232Y0079800D01*
X0217625Y0079800D01*
X0218911Y0079267D01*
X0219896Y0078283D01*
X0220428Y0076996D01*
X0220428Y0075604D01*
X0219896Y0074317D01*
X0218978Y0073400D01*
X0220298Y0073400D01*
X0221528Y0072170D01*
X0221528Y0070430D01*
X0220298Y0069200D01*
X0218978Y0069200D01*
X0219896Y0068283D01*
X0220428Y0066996D01*
X0220428Y0065604D01*
X0220176Y0064995D01*
X0220728Y0065547D01*
X0220728Y0069297D01*
X0221431Y0070000D01*
X0224855Y0073424D01*
X0223961Y0074317D01*
X0223428Y0075604D01*
X0223428Y0076996D01*
X0223961Y0078283D01*
X0224946Y0079267D01*
X0226232Y0079800D01*
X0227625Y0079800D01*
X0228911Y0079267D01*
X0229896Y0078283D01*
X0230428Y0076996D01*
X0230428Y0075604D01*
X0229896Y0074317D01*
X0228911Y0073333D01*
X0227626Y0072801D01*
X0223128Y0068303D01*
X0223128Y0064553D01*
X0209825Y0051250D01*
X0210181Y0051250D01*
X0223753Y0064821D01*
X0223428Y0065604D01*
X0223428Y0066996D01*
X0223961Y0068283D01*
X0224946Y0069267D01*
X0226232Y0069800D01*
X0227625Y0069800D01*
X0228911Y0069267D01*
X0229478Y0068700D01*
X0229478Y0070547D01*
X0230181Y0071250D01*
X0233753Y0074821D01*
X0233428Y0075604D01*
X0233428Y0076996D01*
X0233961Y0078283D01*
X0234946Y0079267D01*
X0236232Y0079800D01*
X0237625Y0079800D01*
X0238911Y0079267D01*
X0239896Y0078283D01*
X0240428Y0076996D01*
X0240428Y0075604D01*
X0240176Y0074995D01*
X0242681Y0077500D01*
X0243637Y0077500D01*
X0243961Y0078283D01*
X0244946Y0079267D01*
X0246232Y0079800D01*
X0247625Y0079800D01*
X0248911Y0079267D01*
X0249896Y0078283D01*
X0250428Y0076996D01*
X0250428Y0075604D01*
X0249896Y0074317D01*
X0248911Y0073333D01*
X0247625Y0072800D01*
X0246232Y0072800D01*
X0244946Y0073333D01*
X0243961Y0074317D01*
X0243648Y0075073D01*
X0241975Y0073400D01*
X0242798Y0073400D01*
X0244028Y0072170D01*
X0244028Y0070430D01*
X0243128Y0069530D01*
X0243128Y0063303D01*
X0219926Y0040100D01*
X0153698Y0040100D01*
X0153598Y0040000D01*
X0225181Y0040000D01*
X0248234Y0063052D01*
X0247625Y0062800D01*
X0246232Y0062800D01*
X0244946Y0063333D01*
X0243961Y0064317D01*
X0243428Y0065604D01*
X0243428Y0066996D01*
X0243961Y0068283D01*
X0244946Y0069267D01*
X0246232Y0069800D01*
X0247625Y0069800D01*
X0248911Y0069267D01*
X0249896Y0068283D01*
X0250428Y0066996D01*
X0250428Y0065604D01*
X0250176Y0064995D01*
X0250728Y0065547D01*
X0250728Y0071797D01*
X0251431Y0072500D01*
X0253753Y0074821D01*
X0253428Y0075604D01*
X0253428Y0076996D01*
X0253961Y0078283D01*
X0254946Y0079267D01*
X0256232Y0079800D01*
X0257625Y0079800D01*
X0258911Y0079267D01*
X0259896Y0078283D01*
X0260428Y0076996D01*
X0260428Y0075604D01*
X0259896Y0074317D01*
X0258911Y0073333D01*
X0257625Y0072800D01*
X0256232Y0072800D01*
X0255450Y0073124D01*
X0253128Y0070803D01*
X0253128Y0064553D01*
X0227325Y0038750D01*
X0227681Y0038750D01*
X0253753Y0064821D01*
X0253428Y0065604D01*
X0253428Y0066996D01*
X0253961Y0068283D01*
X0254946Y0069267D01*
X0256232Y0069800D01*
X0257625Y0069800D01*
X0258911Y0069267D01*
X0259896Y0068283D01*
X0260428Y0066996D01*
X0260428Y0065604D01*
X0259896Y0064317D01*
X0258911Y0063333D01*
X0257625Y0062800D01*
X0256232Y0062800D01*
X0255450Y0063124D01*
X0229825Y0037500D01*
X0233931Y0037500D01*
X0260728Y0064297D01*
X0260728Y0071797D01*
X0261431Y0072500D01*
X0263753Y0074821D01*
X0263428Y0075604D01*
X0263428Y0076996D01*
X0263961Y0078283D01*
X0264946Y0079267D01*
X0266232Y0079800D01*
X0267625Y0079800D01*
X0268911Y0079267D01*
X0269896Y0078283D01*
X0270428Y0076996D01*
X0270428Y0075604D01*
X0269896Y0074317D01*
X0268911Y0073333D01*
X0267625Y0072800D01*
X0266232Y0072800D01*
X0265450Y0073124D01*
X0263128Y0070803D01*
X0263128Y0063303D01*
X0236075Y0036250D01*
X0265728Y0036250D01*
X0265728Y0063009D01*
X0264946Y0063333D01*
X0263961Y0064317D01*
X0263428Y0065604D01*
X0263428Y0066996D01*
X0263961Y0068283D01*
X0264946Y0069267D01*
X0266232Y0069800D01*
X0267625Y0069800D01*
X0268911Y0069267D01*
X0269896Y0068283D01*
X0270428Y0066996D01*
X0270428Y0065604D01*
X0269896Y0064317D01*
X0268911Y0063333D01*
X0268128Y0063009D01*
X0268128Y0019591D01*
X0268911Y0019267D01*
X0269896Y0018283D01*
X0270428Y0016996D01*
X0270428Y0015604D01*
X0269896Y0014317D01*
X0268911Y0013333D01*
X0267625Y0012800D01*
X0266232Y0012800D01*
X0264946Y0013333D01*
X0263961Y0014317D01*
X0263428Y0015604D01*
X0263428Y0016996D01*
X0263961Y0018283D01*
X0264946Y0019267D01*
X0265728Y0019591D01*
X0265728Y0033850D01*
X0241075Y0033850D01*
X0255450Y0019476D01*
X0256232Y0019800D01*
X0257625Y0019800D01*
X0258911Y0019267D01*
X0259896Y0018283D01*
X0260428Y0016996D01*
X0260428Y0015604D01*
X0259896Y0014317D01*
X0258911Y0013333D01*
X0257625Y0012800D01*
X0256232Y0012800D01*
X0254946Y0013333D01*
X0253961Y0014317D01*
X0253428Y0015604D01*
X0253428Y0016996D01*
X0253753Y0017779D01*
X0238931Y0032600D01*
X0232325Y0032600D01*
X0245450Y0019476D01*
X0246232Y0019800D01*
X0247625Y0019800D01*
X0248911Y0019267D01*
X0249896Y0018283D01*
X0250428Y0016996D01*
X0250428Y0015604D01*
X0249896Y0014317D01*
X0248911Y0013333D01*
X0247625Y0012800D01*
X0246232Y0012800D01*
X0244946Y0013333D01*
X0243961Y0014317D01*
X0243428Y0015604D01*
X0243428Y0016996D01*
X0243753Y0017779D01*
X0230181Y0031350D01*
X0223575Y0031350D01*
X0235450Y0019476D01*
X0236232Y0019800D01*
X0237625Y0019800D01*
X0238911Y0019267D01*
X0239896Y0018283D01*
X0240428Y0016996D01*
X0240428Y0015604D01*
X0239896Y0014317D01*
X0238911Y0013333D01*
X0237625Y0012800D01*
X0236232Y0012800D01*
X0234946Y0013333D01*
X0233961Y0014317D01*
X0233428Y0015604D01*
X0233428Y0016996D01*
X0233753Y0017779D01*
X0221431Y0030100D01*
X0214825Y0030100D01*
X0225450Y0019476D01*
X0226232Y0019800D01*
X0227625Y0019800D01*
X0228911Y0019267D01*
X0229896Y0018283D01*
X0230428Y0016996D01*
X0230428Y0015604D01*
X0229896Y0014317D01*
X0228911Y0013333D01*
X0227625Y0012800D01*
X0226232Y0012800D01*
X0224946Y0013333D01*
X0223961Y0014317D01*
X0223428Y0015604D01*
X0223428Y0016996D01*
X0223753Y0017779D01*
X0212681Y0028850D01*
X0206075Y0028850D01*
X0215450Y0019476D01*
X0216232Y0019800D01*
X0217625Y0019800D01*
X0218911Y0019267D01*
X0219896Y0018283D01*
X0220428Y0016996D01*
X0220428Y0015604D01*
X0219896Y0014317D01*
X0218911Y0013333D01*
X0217625Y0012800D01*
X0216232Y0012800D01*
X0214946Y0013333D01*
X0213961Y0014317D01*
X0213428Y0015604D01*
X0213428Y0016996D01*
X0213753Y0017779D01*
X0203931Y0027600D01*
X0197325Y0027600D01*
X0205450Y0019476D01*
X0206232Y0019800D01*
X0207625Y0019800D01*
X0208911Y0019267D01*
X0209896Y0018283D01*
X0210428Y0016996D01*
X0210428Y0015604D01*
X0209896Y0014317D01*
X0208911Y0013333D01*
X0207625Y0012800D01*
X0206232Y0012800D01*
X0204946Y0013333D01*
X0203961Y0014317D01*
X0203428Y0015604D01*
X0203428Y0016996D01*
X0203753Y0017779D01*
X0195181Y0026350D01*
X0188575Y0026350D01*
X0195450Y0019476D01*
X0196232Y0019800D01*
X0197625Y0019800D01*
X0198911Y0019267D01*
X0199896Y0018283D01*
X0200428Y0016996D01*
X0200428Y0015604D01*
X0199896Y0014317D01*
X0198911Y0013333D01*
X0197625Y0012800D01*
X0196232Y0012800D01*
X0194946Y0013333D01*
X0193961Y0014317D01*
X0193428Y0015604D01*
X0193428Y0016996D01*
X0193753Y0017779D01*
X0186431Y0025100D01*
X0179825Y0025100D01*
X0185450Y0019476D01*
X0186232Y0019800D01*
X0187625Y0019800D01*
X0188911Y0019267D01*
X0189896Y0018283D01*
X0190428Y0016996D01*
X0190428Y0015604D01*
X0189896Y0014317D01*
X0188911Y0013333D01*
X0187625Y0012800D01*
X0186232Y0012800D01*
X0184946Y0013333D01*
X0183961Y0014317D01*
X0183428Y0015604D01*
X0183428Y0016996D01*
X0183753Y0017779D01*
X0177681Y0023850D01*
X0171075Y0023850D01*
X0175450Y0019476D01*
X0176232Y0019800D01*
X0177625Y0019800D01*
X0178911Y0019267D01*
X0179896Y0018283D01*
X0180428Y0016996D01*
X0180428Y0015604D01*
X0179896Y0014317D01*
X0178911Y0013333D01*
X0177625Y0012800D01*
X0176232Y0012800D01*
X0174946Y0013333D01*
X0173961Y0014317D01*
X0173428Y0015604D01*
X0173428Y0016996D01*
X0173753Y0017779D01*
X0168931Y0022600D01*
X0162325Y0022600D01*
X0165450Y0019476D01*
X0166232Y0019800D01*
X0167625Y0019800D01*
X0168911Y0019267D01*
X0169896Y0018283D01*
X0170428Y0016996D01*
X0170428Y0015604D01*
X0169896Y0014317D01*
X0168911Y0013333D01*
X0167625Y0012800D01*
X0166232Y0012800D01*
X0164946Y0013333D01*
X0163961Y0014317D01*
X0163428Y0015604D01*
X0163428Y0016996D01*
X0163753Y0017779D01*
X0160181Y0021350D01*
X0153575Y0021350D01*
X0155450Y0019476D01*
X0156232Y0019800D01*
X0157625Y0019800D01*
X0158911Y0019267D01*
X0159896Y0018283D01*
X0160428Y0016996D01*
X0160428Y0015604D01*
X0159896Y0014317D01*
X0158911Y0013333D01*
X0157625Y0012800D01*
X0156232Y0012800D01*
X0154946Y0013333D01*
X0153961Y0014317D01*
X0153428Y0015604D01*
X0153428Y0016996D01*
X0153753Y0017779D01*
X0151431Y0020100D01*
X0144825Y0020100D01*
X0145450Y0019476D01*
X0146232Y0019800D01*
X0147625Y0019800D01*
X0148911Y0019267D01*
X0149896Y0018283D01*
X0150428Y0016996D01*
X0150428Y0015604D01*
X0149896Y0014317D01*
X0148911Y0013333D01*
X0147625Y0012800D01*
X0146232Y0012800D01*
X0144946Y0013333D01*
X0143961Y0014317D01*
X0143428Y0015604D01*
X0143428Y0016996D01*
X0143753Y0017779D01*
X0142681Y0018850D01*
X0139328Y0018850D01*
X0139896Y0018283D01*
X0140428Y0016996D01*
X0140428Y0015604D01*
X0139896Y0014317D01*
X0138911Y0013333D01*
X0137625Y0012800D01*
X0136232Y0012800D01*
X0134946Y0013333D01*
X0133961Y0014317D01*
X0133428Y0015604D01*
X0133428Y0016996D01*
X0133961Y0018283D01*
X0134529Y0018850D01*
X0129328Y0018850D01*
X0129896Y0018283D01*
X0130428Y0016996D01*
X0130428Y0015604D01*
X0129896Y0014317D01*
X0128911Y0013333D01*
X0127625Y0012800D01*
X0126232Y0012800D01*
X0124946Y0013333D01*
X0123961Y0014317D01*
X0123428Y0015604D01*
X0123428Y0016996D01*
X0123961Y0018283D01*
X0124529Y0018850D01*
X0119328Y0018850D01*
X0119896Y0018283D01*
X0120428Y0016996D01*
X0120428Y0015604D01*
X0119896Y0014317D01*
X0118911Y0013333D01*
X0117625Y0012800D01*
X0116232Y0012800D01*
X0114946Y0013333D01*
X0113961Y0014317D01*
X0113428Y0015604D01*
X0113428Y0016996D01*
X0113961Y0018283D01*
X0114529Y0018850D01*
X0109328Y0018850D01*
X0109896Y0018283D01*
X0110428Y0016996D01*
X0110428Y0015604D01*
X0110104Y0014821D01*
X0112426Y0012500D01*
X0142426Y0012500D01*
X0145450Y0009476D01*
X0146232Y0009800D01*
X0147625Y0009800D01*
X0148911Y0009267D01*
X0149896Y0008283D01*
X0150428Y0006996D01*
X0150428Y0005604D01*
X0149896Y0004317D01*
X0148911Y0003333D01*
X0147625Y0002800D01*
X0146232Y0002800D01*
X0144946Y0003333D01*
X0143961Y0004317D01*
X0143428Y0005604D01*
X0143428Y0006996D01*
X0143753Y0007779D01*
X0141431Y0010100D01*
X0082426Y0010100D01*
X0077426Y0005100D01*
X0043931Y0005100D01*
X0033041Y0015991D01*
X0031201Y0015991D01*
X0030674Y0016518D01*
X0030674Y0021200D01*
X0031201Y0021728D01*
X0033128Y0021728D01*
X0033149Y0021707D01*
X0033170Y0021728D01*
X0034804Y0021728D01*
X0033931Y0022600D01*
X0033228Y0023303D01*
X0033228Y0025880D01*
X0032798Y0025450D01*
X0031526Y0025450D01*
X0031412Y0025336D01*
X0027119Y0025336D01*
X0026829Y0025046D01*
X0022146Y0025046D01*
X0021619Y0025573D01*
X0021619Y0027500D01*
X0021640Y0027520D01*
X0021619Y0027541D01*
X0021619Y0029468D01*
X0021640Y0029489D01*
X0021619Y0029510D01*
X0021619Y0031437D01*
X0021640Y0031457D01*
X0021619Y0031478D01*
X0021619Y0033405D01*
X0021640Y0033426D01*
X0021619Y0033447D01*
X0021619Y0035374D01*
X0021640Y0035394D01*
X0021619Y0035415D01*
X0021619Y0037342D01*
X0021640Y0037363D01*
X0021619Y0037384D01*
X0021619Y0039311D01*
X0021640Y0039331D01*
X0021619Y0039352D01*
X0021619Y0040755D01*
X0021479Y0040895D01*
X0021308Y0041192D01*
X0021219Y0041523D01*
X0021219Y0042284D01*
X0024487Y0042284D01*
X0024487Y0042284D01*
X0021219Y0042284D01*
X0021219Y0043046D01*
X0021308Y0043377D01*
X0021479Y0043673D01*
X0021619Y0043813D01*
X0021619Y0045216D01*
X0021640Y0045237D01*
X0021619Y0045258D01*
X0021619Y0047185D01*
X0021640Y0047205D01*
X0021619Y0047226D01*
X0021619Y0049153D01*
X0021640Y0049174D01*
X0021619Y0049195D01*
X0021619Y0051122D01*
X0021640Y0051143D01*
X0021619Y0051163D01*
X0021619Y0053090D01*
X0021640Y0053111D01*
X0021619Y0053132D01*
X0021619Y0055059D01*
X0021640Y0055080D01*
X0021619Y0055100D01*
X0021619Y0057027D01*
X0022146Y0057554D01*
X0026829Y0057554D01*
X0027119Y0057264D01*
X0027445Y0057264D01*
X0029478Y0059297D01*
X0030181Y0060000D01*
X0035159Y0060000D01*
X0036031Y0060872D01*
X0035138Y0060872D01*
X0035117Y0060893D01*
X0035097Y0060872D01*
X0033170Y0060872D01*
X0033149Y0060893D01*
X0033128Y0060872D01*
X0031971Y0060872D01*
X0031548Y0060450D01*
X0029809Y0060450D01*
X0028578Y0061680D01*
X0028578Y0063420D01*
X0029809Y0064650D01*
X0030674Y0064650D01*
X0030674Y0066082D01*
X0031201Y0066609D01*
X0032933Y0066609D01*
X0032933Y0069002D01*
X0033636Y0069705D01*
X0044331Y0080400D01*
X0019428Y0080400D01*
X0018629Y0080321D01*
X0017151Y0079709D01*
X0016019Y0078578D01*
X0015407Y0077100D01*
X0015328Y0076300D01*
X0015328Y0067944D01*
X0015413Y0068148D01*
X0016331Y0069066D01*
X0017530Y0069562D01*
X0018827Y0069562D01*
X0020026Y0069066D01*
X0020944Y0068148D01*
X0021441Y0066949D01*
X0021441Y0065651D01*
X0020944Y0064452D01*
X0020026Y0063534D01*
X0018827Y0063038D01*
X0017530Y0063038D01*
X0016331Y0063534D01*
X0015413Y0064452D01*
X0015328Y0064656D01*
X0015328Y0047944D01*
X0015413Y0048148D01*
X0016331Y0049066D01*
X0017530Y0049562D01*
X0018827Y0049562D01*
X0020026Y0049066D01*
X0020944Y0048148D01*
X0021441Y0046949D01*
X0021441Y0045651D01*
X0020944Y0044452D01*
X0020026Y0043534D01*
X0018827Y0043038D01*
X0017530Y0043038D01*
X0016331Y0043534D01*
X0015413Y0044452D01*
X0015328Y0044656D01*
X0015328Y0037944D01*
X0015413Y0038148D01*
X0016331Y0039066D01*
X0017530Y0039562D01*
X0018827Y0039562D01*
X0020026Y0039066D01*
X0020944Y0038148D01*
X0021441Y0036949D01*
X0021441Y0035651D01*
X0020944Y0034452D01*
X0020026Y0033534D01*
X0018827Y0033038D01*
X0017530Y0033038D01*
X0016331Y0033534D01*
X0015413Y0034452D01*
X0015328Y0034656D01*
X0015328Y0027944D01*
X0015413Y0028148D01*
X0016331Y0029066D01*
X0017530Y0029562D01*
X0018827Y0029562D01*
X0020026Y0029066D01*
X0020944Y0028148D01*
X0021441Y0026949D01*
X0021441Y0025651D01*
X0020944Y0024452D01*
X0020026Y0023534D01*
X0018827Y0023038D01*
X0017530Y0023038D01*
X0016331Y0023534D01*
X0015413Y0024452D01*
X0015328Y0024656D01*
X0015328Y0017944D01*
X0015413Y0018148D01*
X0016331Y0019066D01*
X0017530Y0019562D01*
X0018827Y0019562D01*
X0020026Y0019066D01*
X0020944Y0018148D01*
X0021441Y0016949D01*
X0021441Y0015651D01*
X0020944Y0014452D01*
X0020026Y0013534D01*
X0018827Y0013038D01*
X0017530Y0013038D01*
X0016331Y0013534D01*
X0015413Y0014452D01*
X0015328Y0014656D01*
X0015328Y0006300D01*
X0015328Y0006475D02*
X0042557Y0006475D01*
X0041958Y0007073D02*
X0015328Y0007073D01*
X0015328Y0007672D02*
X0041360Y0007672D01*
X0040761Y0008270D02*
X0015328Y0008270D01*
X0015328Y0008869D02*
X0040163Y0008869D01*
X0039564Y0009467D02*
X0015328Y0009467D01*
X0015328Y0010066D02*
X0038966Y0010066D01*
X0038367Y0010664D02*
X0015328Y0010664D01*
X0015328Y0011263D02*
X0037769Y0011263D01*
X0037170Y0011861D02*
X0015328Y0011861D01*
X0015328Y0012460D02*
X0036572Y0012460D01*
X0035973Y0013058D02*
X0018877Y0013058D01*
X0017480Y0013058D02*
X0015328Y0013058D01*
X0015328Y0013657D02*
X0016208Y0013657D01*
X0015610Y0014255D02*
X0015328Y0014255D01*
X0020149Y0013657D02*
X0035375Y0013657D01*
X0034776Y0014255D02*
X0020747Y0014255D01*
X0021110Y0014854D02*
X0034178Y0014854D01*
X0033579Y0015452D02*
X0021358Y0015452D01*
X0021441Y0016051D02*
X0031141Y0016051D01*
X0030674Y0016649D02*
X0021441Y0016649D01*
X0021317Y0017248D02*
X0030674Y0017248D01*
X0030674Y0017846D02*
X0021069Y0017846D01*
X0020647Y0018445D02*
X0030674Y0018445D01*
X0030674Y0019043D02*
X0020048Y0019043D01*
X0016308Y0019043D02*
X0015328Y0019043D01*
X0015328Y0018445D02*
X0015710Y0018445D01*
X0015328Y0019642D02*
X0030674Y0019642D01*
X0030674Y0020240D02*
X0015328Y0020240D01*
X0015328Y0020839D02*
X0030674Y0020839D01*
X0030911Y0021437D02*
X0015328Y0021437D01*
X0015328Y0022036D02*
X0034495Y0022036D01*
X0033897Y0022634D02*
X0015328Y0022634D01*
X0015328Y0023233D02*
X0017058Y0023233D01*
X0016033Y0023832D02*
X0015328Y0023832D01*
X0015328Y0024430D02*
X0015435Y0024430D01*
X0019299Y0023233D02*
X0033298Y0023233D01*
X0033228Y0023832D02*
X0020323Y0023832D01*
X0020922Y0024430D02*
X0033228Y0024430D01*
X0033228Y0025029D02*
X0021183Y0025029D01*
X0021431Y0025627D02*
X0021619Y0025627D01*
X0021619Y0026226D02*
X0021441Y0026226D01*
X0021441Y0026824D02*
X0021619Y0026824D01*
X0021619Y0027423D02*
X0021244Y0027423D01*
X0020997Y0028021D02*
X0021619Y0028021D01*
X0021619Y0028620D02*
X0020472Y0028620D01*
X0019658Y0029218D02*
X0021619Y0029218D01*
X0021619Y0029817D02*
X0015328Y0029817D01*
X0015328Y0030415D02*
X0021619Y0030415D01*
X0021619Y0031014D02*
X0015328Y0031014D01*
X0015328Y0031612D02*
X0021619Y0031612D01*
X0021619Y0032211D02*
X0015328Y0032211D01*
X0015328Y0032809D02*
X0021619Y0032809D01*
X0021622Y0033408D02*
X0019720Y0033408D01*
X0020498Y0034006D02*
X0021619Y0034006D01*
X0021619Y0034605D02*
X0021007Y0034605D01*
X0021255Y0035203D02*
X0021619Y0035203D01*
X0021619Y0035802D02*
X0021441Y0035802D01*
X0021441Y0036400D02*
X0021619Y0036400D01*
X0021619Y0036999D02*
X0021420Y0036999D01*
X0021619Y0037597D02*
X0021172Y0037597D01*
X0020896Y0038196D02*
X0021619Y0038196D01*
X0021619Y0038794D02*
X0020298Y0038794D01*
X0019236Y0039393D02*
X0021619Y0039393D01*
X0021619Y0039991D02*
X0015328Y0039991D01*
X0015328Y0039393D02*
X0017121Y0039393D01*
X0016059Y0038794D02*
X0015328Y0038794D01*
X0015328Y0038196D02*
X0015461Y0038196D01*
X0015328Y0040590D02*
X0021619Y0040590D01*
X0021310Y0041188D02*
X0015328Y0041188D01*
X0015328Y0041787D02*
X0021219Y0041787D01*
X0021219Y0042385D02*
X0015328Y0042385D01*
X0015328Y0042984D02*
X0021219Y0042984D01*
X0021426Y0043582D02*
X0020074Y0043582D01*
X0020673Y0044181D02*
X0021619Y0044181D01*
X0021619Y0044779D02*
X0021080Y0044779D01*
X0021328Y0045378D02*
X0021619Y0045378D01*
X0021619Y0045976D02*
X0021441Y0045976D01*
X0021441Y0046575D02*
X0021619Y0046575D01*
X0021619Y0047173D02*
X0021348Y0047173D01*
X0021100Y0047772D02*
X0021619Y0047772D01*
X0021619Y0048370D02*
X0020721Y0048370D01*
X0020123Y0048969D02*
X0021619Y0048969D01*
X0021619Y0049568D02*
X0015328Y0049568D01*
X0015328Y0050166D02*
X0021619Y0050166D01*
X0021619Y0050765D02*
X0015328Y0050765D01*
X0015328Y0051363D02*
X0021619Y0051363D01*
X0021619Y0051962D02*
X0015328Y0051962D01*
X0015328Y0052560D02*
X0021619Y0052560D01*
X0021619Y0053159D02*
X0015328Y0053159D01*
X0015328Y0053757D02*
X0021619Y0053757D01*
X0021619Y0054356D02*
X0015328Y0054356D01*
X0015328Y0054954D02*
X0021619Y0054954D01*
X0021619Y0055553D02*
X0015328Y0055553D01*
X0015328Y0056151D02*
X0021619Y0056151D01*
X0021619Y0056750D02*
X0015328Y0056750D01*
X0015328Y0057348D02*
X0021940Y0057348D01*
X0024488Y0056064D02*
X0027942Y0056064D01*
X0030678Y0058800D01*
X0036928Y0058800D01*
X0041239Y0058545D02*
X0042476Y0058545D01*
X0042476Y0057947D02*
X0041239Y0057947D01*
X0041239Y0057348D02*
X0042476Y0057348D01*
X0042476Y0056750D02*
X0041239Y0056750D01*
X0041239Y0056151D02*
X0042476Y0056151D01*
X0042476Y0055553D02*
X0041239Y0055553D01*
X0041239Y0054954D02*
X0042476Y0054954D01*
X0042476Y0054458D02*
X0045428Y0051505D01*
X0045428Y0032770D01*
X0044828Y0032170D01*
X0044828Y0030430D01*
X0045428Y0029830D01*
X0045428Y0027770D01*
X0044828Y0027170D01*
X0044828Y0026321D01*
X0044028Y0025521D01*
X0044028Y0025920D01*
X0042798Y0027150D01*
X0041059Y0027150D01*
X0040053Y0026145D01*
X0039048Y0027150D01*
X0037309Y0027150D01*
X0036078Y0025920D01*
X0036078Y0024180D01*
X0036870Y0023388D01*
X0036870Y0023055D01*
X0035628Y0024297D01*
X0035628Y0035547D01*
X0035278Y0035897D01*
X0035278Y0037170D01*
X0034848Y0037600D01*
X0035159Y0037600D01*
X0036059Y0036700D01*
X0037798Y0036700D01*
X0038839Y0037740D01*
X0038839Y0037150D01*
X0038559Y0037150D01*
X0037328Y0035920D01*
X0037328Y0034180D01*
X0038559Y0032950D01*
X0040298Y0032950D01*
X0041528Y0034180D01*
X0041528Y0035920D01*
X0041239Y0036210D01*
X0041239Y0060474D01*
X0041245Y0060472D01*
X0042007Y0060472D01*
X0042007Y0063741D01*
X0042007Y0063741D01*
X0042007Y0060472D01*
X0042476Y0060472D01*
X0042476Y0054458D01*
X0042578Y0054356D02*
X0041239Y0054356D01*
X0041239Y0053757D02*
X0043177Y0053757D01*
X0043775Y0053159D02*
X0041239Y0053159D01*
X0041239Y0052560D02*
X0044374Y0052560D01*
X0044972Y0051962D02*
X0041239Y0051962D01*
X0041239Y0051363D02*
X0045428Y0051363D01*
X0045428Y0050765D02*
X0041239Y0050765D01*
X0041239Y0050166D02*
X0045428Y0050166D01*
X0045428Y0049568D02*
X0041239Y0049568D01*
X0041239Y0048969D02*
X0045428Y0048969D01*
X0045428Y0048370D02*
X0041239Y0048370D01*
X0041239Y0047772D02*
X0045428Y0047772D01*
X0045428Y0047173D02*
X0041239Y0047173D01*
X0041239Y0046575D02*
X0045428Y0046575D01*
X0045428Y0045976D02*
X0041239Y0045976D01*
X0041239Y0045378D02*
X0045428Y0045378D01*
X0045428Y0044779D02*
X0041239Y0044779D01*
X0041239Y0044181D02*
X0045428Y0044181D01*
X0045428Y0043582D02*
X0041239Y0043582D01*
X0041239Y0042984D02*
X0045428Y0042984D01*
X0045428Y0042385D02*
X0041239Y0042385D01*
X0041239Y0041787D02*
X0045428Y0041787D01*
X0045428Y0041188D02*
X0041239Y0041188D01*
X0041239Y0040590D02*
X0045428Y0040590D01*
X0045428Y0039991D02*
X0041239Y0039991D01*
X0041239Y0039393D02*
X0045428Y0039393D01*
X0045428Y0038794D02*
X0041239Y0038794D01*
X0041239Y0038196D02*
X0045428Y0038196D01*
X0045428Y0037597D02*
X0041239Y0037597D01*
X0041239Y0036999D02*
X0045428Y0036999D01*
X0045428Y0036400D02*
X0041239Y0036400D01*
X0041528Y0035802D02*
X0045428Y0035802D01*
X0045428Y0035203D02*
X0041528Y0035203D01*
X0041528Y0034605D02*
X0045428Y0034605D01*
X0045428Y0034006D02*
X0041355Y0034006D01*
X0040756Y0033408D02*
X0045428Y0033408D01*
X0045428Y0032809D02*
X0035628Y0032809D01*
X0035628Y0032211D02*
X0044869Y0032211D01*
X0044828Y0031612D02*
X0035628Y0031612D01*
X0035628Y0031014D02*
X0044828Y0031014D01*
X0044843Y0030415D02*
X0035628Y0030415D01*
X0035628Y0029817D02*
X0045428Y0029817D01*
X0045428Y0029218D02*
X0035628Y0029218D01*
X0035628Y0028620D02*
X0045428Y0028620D01*
X0045428Y0028021D02*
X0035628Y0028021D01*
X0035628Y0027423D02*
X0045081Y0027423D01*
X0044828Y0026824D02*
X0043124Y0026824D01*
X0043723Y0026226D02*
X0044733Y0026226D01*
X0044134Y0025627D02*
X0044028Y0025627D01*
X0041928Y0025050D02*
X0041928Y0023800D01*
X0040039Y0021910D01*
X0040039Y0018859D01*
X0038070Y0018859D02*
X0038070Y0024942D01*
X0038178Y0025050D01*
X0036078Y0025029D02*
X0035628Y0025029D01*
X0035628Y0025627D02*
X0036078Y0025627D01*
X0036384Y0026226D02*
X0035628Y0026226D01*
X0035628Y0026824D02*
X0036983Y0026824D01*
X0039374Y0026824D02*
X0040733Y0026824D01*
X0040134Y0026226D02*
X0039973Y0026226D01*
X0036078Y0024430D02*
X0035628Y0024430D01*
X0036094Y0023832D02*
X0036427Y0023832D01*
X0036692Y0023233D02*
X0036870Y0023233D01*
X0036102Y0022127D02*
X0034428Y0023800D01*
X0034428Y0035050D01*
X0033178Y0036300D01*
X0035278Y0036400D02*
X0037809Y0036400D01*
X0038097Y0036999D02*
X0038407Y0036999D01*
X0038696Y0037597D02*
X0038839Y0037597D01*
X0036928Y0038800D02*
X0030678Y0038800D01*
X0028257Y0036379D01*
X0024488Y0036379D01*
X0024488Y0038347D02*
X0027726Y0038347D01*
X0030678Y0041300D01*
X0034428Y0041300D01*
X0036528Y0041188D02*
X0038839Y0041188D01*
X0038839Y0040590D02*
X0038108Y0040590D01*
X0037798Y0040900D02*
X0036528Y0040900D01*
X0036528Y0042170D01*
X0035298Y0043400D01*
X0033559Y0043400D01*
X0032659Y0042500D01*
X0030181Y0042500D01*
X0029478Y0041797D01*
X0027356Y0039675D01*
X0027356Y0040755D01*
X0027496Y0040895D01*
X0027667Y0041192D01*
X0027756Y0041523D01*
X0027756Y0042284D01*
X0024488Y0042284D01*
X0024488Y0042284D01*
X0027756Y0042284D01*
X0027756Y0043046D01*
X0027754Y0043053D01*
X0029128Y0043053D01*
X0031176Y0045100D01*
X0032659Y0045100D01*
X0033559Y0044200D01*
X0035298Y0044200D01*
X0036528Y0045430D01*
X0036528Y0046700D01*
X0037798Y0046700D01*
X0038839Y0047740D01*
X0038839Y0039860D01*
X0037798Y0040900D01*
X0038707Y0039991D02*
X0038839Y0039991D01*
X0038839Y0041787D02*
X0036528Y0041787D01*
X0036313Y0042385D02*
X0038839Y0042385D01*
X0038839Y0042984D02*
X0035714Y0042984D01*
X0036928Y0043800D02*
X0030678Y0043800D01*
X0029163Y0042284D01*
X0024488Y0042284D01*
X0027756Y0042385D02*
X0030067Y0042385D01*
X0029468Y0041787D02*
X0027756Y0041787D01*
X0027665Y0041188D02*
X0028870Y0041188D01*
X0028271Y0040590D02*
X0027356Y0040590D01*
X0027356Y0039991D02*
X0027673Y0039991D01*
X0027756Y0042984D02*
X0033143Y0042984D01*
X0029658Y0043582D02*
X0038839Y0043582D01*
X0038839Y0044181D02*
X0030256Y0044181D01*
X0030855Y0044779D02*
X0032979Y0044779D01*
X0030678Y0046300D02*
X0028631Y0044253D01*
X0024488Y0044253D01*
X0030678Y0046300D02*
X0034428Y0046300D01*
X0036528Y0046575D02*
X0038839Y0046575D01*
X0038839Y0047173D02*
X0038272Y0047173D01*
X0038839Y0045976D02*
X0036528Y0045976D01*
X0036476Y0045378D02*
X0038839Y0045378D01*
X0038839Y0044779D02*
X0035878Y0044779D01*
X0036928Y0048800D02*
X0030678Y0048800D01*
X0030068Y0048190D01*
X0024488Y0048190D01*
X0024488Y0050158D02*
X0029537Y0050158D01*
X0030678Y0051300D01*
X0034428Y0051300D01*
X0030678Y0053800D02*
X0029005Y0052127D01*
X0024488Y0052127D01*
X0024488Y0054095D02*
X0028474Y0054095D01*
X0030678Y0056300D01*
X0034428Y0056300D01*
X0036928Y0053800D02*
X0030678Y0053800D01*
X0027530Y0057348D02*
X0027035Y0057348D01*
X0028128Y0057947D02*
X0015328Y0057947D01*
X0015328Y0058545D02*
X0028727Y0058545D01*
X0029325Y0059144D02*
X0015328Y0059144D01*
X0015328Y0059742D02*
X0029924Y0059742D01*
X0029319Y0060939D02*
X0015328Y0060939D01*
X0015328Y0060341D02*
X0035499Y0060341D01*
X0031869Y0063741D02*
X0030678Y0062550D01*
X0031869Y0063741D02*
X0032165Y0063741D01*
X0034133Y0063741D02*
X0034133Y0068505D01*
X0045678Y0080050D01*
X0075678Y0080050D01*
X0083178Y0072550D01*
X0103178Y0072550D01*
X0106928Y0076300D01*
X0103428Y0076501D02*
X0100428Y0076501D01*
X0100428Y0075902D02*
X0103428Y0075902D01*
X0103553Y0075303D02*
X0100304Y0075303D01*
X0100056Y0074705D02*
X0103636Y0074705D01*
X0103038Y0074106D02*
X0099685Y0074106D01*
X0094172Y0074106D02*
X0089685Y0074106D01*
X0090056Y0074705D02*
X0093801Y0074705D01*
X0093553Y0075303D02*
X0090304Y0075303D01*
X0090428Y0075902D02*
X0093428Y0075902D01*
X0093428Y0076501D02*
X0090428Y0076501D01*
X0090386Y0077099D02*
X0093471Y0077099D01*
X0093719Y0077698D02*
X0090138Y0077698D01*
X0089882Y0078296D02*
X0093975Y0078296D01*
X0094573Y0078895D02*
X0089284Y0078895D01*
X0088366Y0079493D02*
X0095491Y0079493D01*
X0098366Y0079493D02*
X0105491Y0079493D01*
X0104573Y0078895D02*
X0099284Y0078895D01*
X0099882Y0078296D02*
X0103975Y0078296D01*
X0103719Y0077698D02*
X0100138Y0077698D01*
X0100386Y0077099D02*
X0103471Y0077099D01*
X0109284Y0078895D02*
X0114573Y0078895D01*
X0113975Y0078296D02*
X0109882Y0078296D01*
X0110138Y0077698D02*
X0113719Y0077698D01*
X0113471Y0077099D02*
X0110386Y0077099D01*
X0110428Y0076501D02*
X0113428Y0076501D01*
X0113428Y0075902D02*
X0110428Y0075902D01*
X0110304Y0075303D02*
X0113553Y0075303D01*
X0113636Y0074705D02*
X0110056Y0074705D01*
X0109685Y0074106D02*
X0113038Y0074106D01*
X0112439Y0073508D02*
X0109086Y0073508D01*
X0107889Y0072909D02*
X0111841Y0072909D01*
X0114636Y0072311D02*
X0121242Y0072311D01*
X0120644Y0071712D02*
X0114038Y0071712D01*
X0111928Y0071300D02*
X0081928Y0071300D01*
X0074428Y0078800D01*
X0046928Y0078800D01*
X0036102Y0067973D01*
X0036102Y0063741D01*
X0038070Y0063741D02*
X0038070Y0067442D01*
X0048178Y0077550D01*
X0073178Y0077550D01*
X0080678Y0070050D01*
X0120678Y0070050D01*
X0126928Y0076300D01*
X0123428Y0076501D02*
X0120428Y0076501D01*
X0120428Y0075902D02*
X0123428Y0075902D01*
X0123553Y0075303D02*
X0120304Y0075303D01*
X0120056Y0074705D02*
X0123636Y0074705D01*
X0123038Y0074106D02*
X0119685Y0074106D01*
X0119086Y0073508D02*
X0122439Y0073508D01*
X0121841Y0072909D02*
X0117889Y0072909D01*
X0115968Y0072909D02*
X0115235Y0072909D01*
X0111928Y0071300D02*
X0116928Y0076300D01*
X0120386Y0077099D02*
X0123471Y0077099D01*
X0123719Y0077698D02*
X0120138Y0077698D01*
X0119882Y0078296D02*
X0123975Y0078296D01*
X0124573Y0078895D02*
X0119284Y0078895D01*
X0118366Y0079493D02*
X0125491Y0079493D01*
X0128366Y0079493D02*
X0135491Y0079493D01*
X0134573Y0078895D02*
X0129284Y0078895D01*
X0129882Y0078296D02*
X0133975Y0078296D01*
X0133719Y0077698D02*
X0130138Y0077698D01*
X0130386Y0077099D02*
X0133471Y0077099D01*
X0133428Y0076501D02*
X0130428Y0076501D01*
X0130428Y0075902D02*
X0133428Y0075902D01*
X0133553Y0075303D02*
X0130304Y0075303D01*
X0130056Y0074705D02*
X0133636Y0074705D01*
X0133038Y0074106D02*
X0129685Y0074106D01*
X0129086Y0073508D02*
X0132439Y0073508D01*
X0131841Y0072909D02*
X0127889Y0072909D01*
X0125968Y0072909D02*
X0125235Y0072909D01*
X0124636Y0072311D02*
X0131242Y0072311D01*
X0130728Y0071712D02*
X0124038Y0071712D01*
X0123439Y0071114D02*
X0130728Y0071114D01*
X0130728Y0070515D02*
X0122841Y0070515D01*
X0122242Y0069917D02*
X0130728Y0069917D01*
X0130728Y0069318D02*
X0128787Y0069318D01*
X0129458Y0068720D02*
X0130728Y0068720D01*
X0130728Y0068121D02*
X0129962Y0068121D01*
X0130210Y0067523D02*
X0130728Y0067523D01*
X0130728Y0066924D02*
X0130428Y0066924D01*
X0130428Y0066326D02*
X0130728Y0066326D01*
X0130728Y0065727D02*
X0130428Y0065727D01*
X0130310Y0065129D02*
X0130232Y0065129D01*
X0131928Y0065050D02*
X0126928Y0060050D01*
X0083178Y0060050D01*
X0070678Y0072550D01*
X0053178Y0072550D01*
X0051850Y0071221D01*
X0051850Y0063741D01*
X0055787Y0063741D02*
X0055787Y0067658D01*
X0058178Y0070050D01*
X0069428Y0070050D01*
X0081928Y0057550D01*
X0134428Y0057550D01*
X0141928Y0065050D01*
X0141928Y0071300D01*
X0146928Y0076300D01*
X0143428Y0076501D02*
X0140428Y0076501D01*
X0140428Y0075902D02*
X0143428Y0075902D01*
X0143553Y0075303D02*
X0140304Y0075303D01*
X0140056Y0074705D02*
X0143636Y0074705D01*
X0143038Y0074106D02*
X0139685Y0074106D01*
X0139086Y0073508D02*
X0142439Y0073508D01*
X0141841Y0072909D02*
X0137889Y0072909D01*
X0135968Y0072909D02*
X0135235Y0072909D01*
X0134636Y0072311D02*
X0141242Y0072311D01*
X0140728Y0071712D02*
X0134038Y0071712D01*
X0133439Y0071114D02*
X0140728Y0071114D01*
X0140728Y0070515D02*
X0133128Y0070515D01*
X0133128Y0069917D02*
X0140728Y0069917D01*
X0140728Y0069318D02*
X0138787Y0069318D01*
X0139458Y0068720D02*
X0140728Y0068720D01*
X0140728Y0068121D02*
X0139962Y0068121D01*
X0140210Y0067523D02*
X0140728Y0067523D01*
X0140728Y0066924D02*
X0140428Y0066924D01*
X0140428Y0066326D02*
X0140728Y0066326D01*
X0140728Y0065727D02*
X0140428Y0065727D01*
X0140310Y0065129D02*
X0140232Y0065129D01*
X0143128Y0065129D02*
X0143625Y0065129D01*
X0143428Y0065727D02*
X0143128Y0065727D01*
X0143128Y0066326D02*
X0143428Y0066326D01*
X0143428Y0066924D02*
X0143128Y0066924D01*
X0143128Y0067523D02*
X0143647Y0067523D01*
X0143895Y0068121D02*
X0143128Y0068121D01*
X0143128Y0068720D02*
X0144399Y0068720D01*
X0145070Y0069318D02*
X0143128Y0069318D01*
X0143128Y0069917D02*
X0150728Y0069917D01*
X0150728Y0070515D02*
X0143128Y0070515D01*
X0143439Y0071114D02*
X0150728Y0071114D01*
X0150728Y0071712D02*
X0144038Y0071712D01*
X0144636Y0072311D02*
X0151242Y0072311D01*
X0151841Y0072909D02*
X0147889Y0072909D01*
X0149086Y0073508D02*
X0152439Y0073508D01*
X0153038Y0074106D02*
X0149685Y0074106D01*
X0150056Y0074705D02*
X0153636Y0074705D01*
X0153553Y0075303D02*
X0150304Y0075303D01*
X0150428Y0075902D02*
X0153428Y0075902D01*
X0153428Y0076501D02*
X0150428Y0076501D01*
X0150386Y0077099D02*
X0153471Y0077099D01*
X0153719Y0077698D02*
X0150138Y0077698D01*
X0149882Y0078296D02*
X0153975Y0078296D01*
X0154573Y0078895D02*
X0149284Y0078895D01*
X0148366Y0079493D02*
X0155491Y0079493D01*
X0158366Y0079493D02*
X0165491Y0079493D01*
X0164573Y0078895D02*
X0159284Y0078895D01*
X0159882Y0078296D02*
X0163975Y0078296D01*
X0163719Y0077698D02*
X0160138Y0077698D01*
X0160386Y0077099D02*
X0163471Y0077099D01*
X0163428Y0076501D02*
X0160428Y0076501D01*
X0160428Y0075902D02*
X0163428Y0075902D01*
X0163553Y0075303D02*
X0160304Y0075303D01*
X0160056Y0074705D02*
X0163636Y0074705D01*
X0163038Y0074106D02*
X0159685Y0074106D01*
X0159086Y0073508D02*
X0162439Y0073508D01*
X0161841Y0072909D02*
X0157889Y0072909D01*
X0155968Y0072909D02*
X0155235Y0072909D01*
X0154636Y0072311D02*
X0161242Y0072311D01*
X0160728Y0071712D02*
X0154038Y0071712D01*
X0153439Y0071114D02*
X0160728Y0071114D01*
X0160728Y0070515D02*
X0153128Y0070515D01*
X0153128Y0069917D02*
X0160728Y0069917D01*
X0160728Y0069318D02*
X0158787Y0069318D01*
X0159458Y0068720D02*
X0160728Y0068720D01*
X0160728Y0068121D02*
X0159962Y0068121D01*
X0160210Y0067523D02*
X0160728Y0067523D01*
X0160728Y0066924D02*
X0160428Y0066924D01*
X0160428Y0066326D02*
X0160728Y0066326D01*
X0160728Y0065727D02*
X0160428Y0065727D01*
X0160310Y0065129D02*
X0160232Y0065129D01*
X0161928Y0065050D02*
X0150678Y0053800D01*
X0078178Y0053800D01*
X0066928Y0065050D01*
X0061928Y0065050D01*
X0061692Y0064814D01*
X0061692Y0063741D01*
X0063183Y0063850D02*
X0066431Y0063850D01*
X0066881Y0063400D01*
X0066059Y0063400D01*
X0064828Y0062170D01*
X0064828Y0060897D01*
X0056431Y0052500D01*
X0055728Y0051797D01*
X0055728Y0029553D01*
X0063578Y0021703D01*
X0063578Y0020430D01*
X0064809Y0019200D01*
X0065631Y0019200D01*
X0063990Y0017559D01*
X0063616Y0017559D01*
X0063183Y0017993D01*
X0063183Y0021200D01*
X0062656Y0021728D01*
X0060729Y0021728D01*
X0060708Y0021707D01*
X0060687Y0021728D01*
X0058760Y0021728D01*
X0058739Y0021707D01*
X0058719Y0021728D01*
X0056792Y0021728D01*
X0056771Y0021707D01*
X0056750Y0021728D01*
X0055347Y0021728D01*
X0055207Y0021868D01*
X0054911Y0022039D01*
X0054580Y0022128D01*
X0053818Y0022128D01*
X0053057Y0022128D01*
X0052726Y0022039D01*
X0052429Y0021868D01*
X0052289Y0021728D01*
X0050886Y0021728D01*
X0050865Y0021707D01*
X0050845Y0021728D01*
X0048918Y0021728D01*
X0048897Y0021707D01*
X0048876Y0021728D01*
X0046949Y0021728D01*
X0046928Y0021707D01*
X0046908Y0021728D01*
X0045476Y0021728D01*
X0045476Y0022726D01*
X0046950Y0024200D01*
X0047798Y0024200D01*
X0049028Y0025430D01*
X0049028Y0027170D01*
X0048428Y0027770D01*
X0048428Y0029830D01*
X0049028Y0030430D01*
X0049028Y0032170D01*
X0048428Y0032770D01*
X0048428Y0052748D01*
X0047550Y0053627D01*
X0045476Y0055701D01*
X0045476Y0060872D01*
X0046908Y0060872D01*
X0046928Y0060893D01*
X0046949Y0060872D01*
X0048876Y0060872D01*
X0048897Y0060893D01*
X0048918Y0060872D01*
X0050845Y0060872D01*
X0050865Y0060893D01*
X0050886Y0060872D01*
X0052813Y0060872D01*
X0052834Y0060893D01*
X0052855Y0060872D01*
X0054782Y0060872D01*
X0054802Y0060893D01*
X0054823Y0060872D01*
X0056750Y0060872D01*
X0056771Y0060893D01*
X0056792Y0060872D01*
X0058719Y0060872D01*
X0058739Y0060893D01*
X0058760Y0060872D01*
X0060687Y0060872D01*
X0060708Y0060893D01*
X0060729Y0060872D01*
X0062656Y0060872D01*
X0063183Y0061400D01*
X0063183Y0063850D01*
X0063183Y0063333D02*
X0065992Y0063333D01*
X0065393Y0062735D02*
X0063183Y0062735D01*
X0063183Y0062136D02*
X0064828Y0062136D01*
X0064828Y0061538D02*
X0063183Y0061538D01*
X0062722Y0060939D02*
X0064828Y0060939D01*
X0064272Y0060341D02*
X0045476Y0060341D01*
X0045476Y0059742D02*
X0063674Y0059742D01*
X0063075Y0059144D02*
X0045476Y0059144D01*
X0045476Y0058545D02*
X0062477Y0058545D01*
X0061878Y0057947D02*
X0045476Y0057947D01*
X0045476Y0057348D02*
X0061280Y0057348D01*
X0060681Y0056750D02*
X0045476Y0056750D01*
X0045476Y0056151D02*
X0060083Y0056151D01*
X0059484Y0055553D02*
X0045624Y0055553D01*
X0046222Y0054954D02*
X0058886Y0054954D01*
X0058287Y0054356D02*
X0046821Y0054356D01*
X0047419Y0053757D02*
X0057689Y0053757D01*
X0057090Y0053159D02*
X0048018Y0053159D01*
X0047550Y0053627D02*
X0047550Y0053627D01*
X0048428Y0052560D02*
X0056491Y0052560D01*
X0055893Y0051962D02*
X0048428Y0051962D01*
X0048428Y0051363D02*
X0055728Y0051363D01*
X0055728Y0050765D02*
X0048428Y0050765D01*
X0048428Y0050166D02*
X0055728Y0050166D01*
X0055728Y0049568D02*
X0048428Y0049568D01*
X0048428Y0048969D02*
X0055728Y0048969D01*
X0055728Y0048370D02*
X0048428Y0048370D01*
X0048428Y0047772D02*
X0055728Y0047772D01*
X0055728Y0047173D02*
X0048428Y0047173D01*
X0048428Y0046575D02*
X0055728Y0046575D01*
X0055728Y0045976D02*
X0048428Y0045976D01*
X0048428Y0045378D02*
X0055728Y0045378D01*
X0055728Y0044779D02*
X0048428Y0044779D01*
X0048428Y0044181D02*
X0055728Y0044181D01*
X0055728Y0043582D02*
X0048428Y0043582D01*
X0048428Y0042984D02*
X0055728Y0042984D01*
X0055728Y0042385D02*
X0048428Y0042385D01*
X0048428Y0041787D02*
X0055728Y0041787D01*
X0055728Y0041188D02*
X0048428Y0041188D01*
X0048428Y0040590D02*
X0055728Y0040590D01*
X0055728Y0039991D02*
X0048428Y0039991D01*
X0048428Y0039393D02*
X0055728Y0039393D01*
X0055728Y0038794D02*
X0048428Y0038794D01*
X0048428Y0038196D02*
X0055728Y0038196D01*
X0055728Y0037597D02*
X0048428Y0037597D01*
X0048428Y0036999D02*
X0055728Y0036999D01*
X0055728Y0036400D02*
X0048428Y0036400D01*
X0048428Y0035802D02*
X0055728Y0035802D01*
X0055728Y0035203D02*
X0048428Y0035203D01*
X0048428Y0034605D02*
X0055728Y0034605D01*
X0055728Y0034006D02*
X0048428Y0034006D01*
X0048428Y0033408D02*
X0055728Y0033408D01*
X0055728Y0032809D02*
X0048428Y0032809D01*
X0048988Y0032211D02*
X0055728Y0032211D01*
X0055728Y0031612D02*
X0049028Y0031612D01*
X0049028Y0031014D02*
X0055728Y0031014D01*
X0055728Y0030415D02*
X0049013Y0030415D01*
X0048428Y0029817D02*
X0055728Y0029817D01*
X0056063Y0029218D02*
X0048428Y0029218D01*
X0048428Y0028620D02*
X0056662Y0028620D01*
X0057260Y0028021D02*
X0048428Y0028021D01*
X0048776Y0027423D02*
X0057859Y0027423D01*
X0058457Y0026824D02*
X0049028Y0026824D01*
X0049028Y0026226D02*
X0059056Y0026226D01*
X0059654Y0025627D02*
X0049028Y0025627D01*
X0048627Y0025029D02*
X0060253Y0025029D01*
X0060851Y0024430D02*
X0048028Y0024430D01*
X0046581Y0023832D02*
X0061450Y0023832D01*
X0062048Y0023233D02*
X0045983Y0023233D01*
X0045476Y0022634D02*
X0062647Y0022634D01*
X0063245Y0022036D02*
X0054916Y0022036D01*
X0053818Y0022036D02*
X0053818Y0022036D01*
X0053818Y0022128D02*
X0053818Y0018859D01*
X0053818Y0022128D01*
X0053818Y0021437D02*
X0053818Y0021437D01*
X0053818Y0020839D02*
X0053818Y0020839D01*
X0053818Y0020240D02*
X0053818Y0020240D01*
X0053818Y0019642D02*
X0053818Y0019642D01*
X0053818Y0019043D02*
X0053818Y0019043D01*
X0053818Y0018859D02*
X0053818Y0018859D01*
X0051850Y0018859D02*
X0051850Y0016379D01*
X0056928Y0011300D01*
X0069428Y0011300D01*
X0080678Y0022550D01*
X0160678Y0022550D01*
X0166928Y0016300D01*
X0163428Y0016051D02*
X0160428Y0016051D01*
X0160428Y0016649D02*
X0163428Y0016649D01*
X0163533Y0017248D02*
X0160324Y0017248D01*
X0160076Y0017846D02*
X0163685Y0017846D01*
X0163086Y0018445D02*
X0159733Y0018445D01*
X0159135Y0019043D02*
X0162488Y0019043D01*
X0161889Y0019642D02*
X0158006Y0019642D01*
X0155851Y0019642D02*
X0155284Y0019642D01*
X0154685Y0020240D02*
X0161291Y0020240D01*
X0160692Y0020839D02*
X0154087Y0020839D01*
X0151928Y0021300D02*
X0081928Y0021300D01*
X0070678Y0010050D01*
X0055678Y0010050D01*
X0049881Y0015847D01*
X0049881Y0018859D01*
X0047913Y0018859D02*
X0047913Y0015316D01*
X0054428Y0008800D01*
X0071928Y0008800D01*
X0083178Y0020050D01*
X0143178Y0020050D01*
X0146928Y0016300D01*
X0150076Y0017846D02*
X0153685Y0017846D01*
X0153533Y0017248D02*
X0150324Y0017248D01*
X0150428Y0016649D02*
X0153428Y0016649D01*
X0153428Y0016051D02*
X0150428Y0016051D01*
X0150366Y0015452D02*
X0153491Y0015452D01*
X0153739Y0014854D02*
X0150118Y0014854D01*
X0149834Y0014255D02*
X0154023Y0014255D01*
X0154622Y0013657D02*
X0149235Y0013657D01*
X0148248Y0013058D02*
X0155609Y0013058D01*
X0158248Y0013058D02*
X0165609Y0013058D01*
X0164622Y0013657D02*
X0159235Y0013657D01*
X0159834Y0014255D02*
X0164023Y0014255D01*
X0163739Y0014854D02*
X0160118Y0014854D01*
X0160366Y0015452D02*
X0163491Y0015452D01*
X0169235Y0013657D02*
X0174622Y0013657D01*
X0174023Y0014255D02*
X0169834Y0014255D01*
X0170118Y0014854D02*
X0173739Y0014854D01*
X0173491Y0015452D02*
X0170366Y0015452D01*
X0170428Y0016051D02*
X0173428Y0016051D01*
X0173428Y0016649D02*
X0170428Y0016649D01*
X0170324Y0017248D02*
X0173533Y0017248D01*
X0173685Y0017846D02*
X0170076Y0017846D01*
X0169733Y0018445D02*
X0173087Y0018445D01*
X0172488Y0019043D02*
X0169135Y0019043D01*
X0168006Y0019642D02*
X0171889Y0019642D01*
X0171291Y0020240D02*
X0164685Y0020240D01*
X0165284Y0019642D02*
X0165851Y0019642D01*
X0164087Y0020839D02*
X0170692Y0020839D01*
X0170094Y0021437D02*
X0163488Y0021437D01*
X0162890Y0022036D02*
X0169495Y0022036D01*
X0169428Y0023800D02*
X0079428Y0023800D01*
X0068178Y0012550D01*
X0058178Y0012550D01*
X0055787Y0014942D01*
X0055787Y0018859D01*
X0057755Y0018859D02*
X0057755Y0015473D01*
X0059428Y0013800D01*
X0066928Y0013800D01*
X0078178Y0025050D01*
X0178178Y0025050D01*
X0186928Y0016300D01*
X0183428Y0016051D02*
X0180428Y0016051D01*
X0180428Y0016649D02*
X0183428Y0016649D01*
X0183533Y0017248D02*
X0180324Y0017248D01*
X0180076Y0017846D02*
X0183685Y0017846D01*
X0183086Y0018445D02*
X0179733Y0018445D01*
X0179135Y0019043D02*
X0182488Y0019043D01*
X0181889Y0019642D02*
X0178006Y0019642D01*
X0175851Y0019642D02*
X0175284Y0019642D01*
X0174685Y0020240D02*
X0181291Y0020240D01*
X0180692Y0020839D02*
X0174087Y0020839D01*
X0173488Y0021437D02*
X0180094Y0021437D01*
X0179495Y0022036D02*
X0172890Y0022036D01*
X0172291Y0022634D02*
X0178897Y0022634D01*
X0178298Y0023233D02*
X0171692Y0023233D01*
X0171094Y0023832D02*
X0177700Y0023832D01*
X0180495Y0024430D02*
X0187101Y0024430D01*
X0186503Y0025029D02*
X0179897Y0025029D01*
X0181094Y0023832D02*
X0187700Y0023832D01*
X0188298Y0023233D02*
X0181692Y0023233D01*
X0182291Y0022634D02*
X0188897Y0022634D01*
X0189495Y0022036D02*
X0182890Y0022036D01*
X0183488Y0021437D02*
X0190094Y0021437D01*
X0190692Y0020839D02*
X0184087Y0020839D01*
X0184685Y0020240D02*
X0191291Y0020240D01*
X0191889Y0019642D02*
X0188006Y0019642D01*
X0189135Y0019043D02*
X0192488Y0019043D01*
X0193086Y0018445D02*
X0189733Y0018445D01*
X0190076Y0017846D02*
X0193685Y0017846D01*
X0193533Y0017248D02*
X0190324Y0017248D01*
X0190428Y0016649D02*
X0193428Y0016649D01*
X0193428Y0016051D02*
X0190428Y0016051D01*
X0190366Y0015452D02*
X0193491Y0015452D01*
X0193739Y0014854D02*
X0190118Y0014854D01*
X0189834Y0014255D02*
X0194023Y0014255D01*
X0194622Y0013657D02*
X0189235Y0013657D01*
X0188248Y0013058D02*
X0195609Y0013058D01*
X0198248Y0013058D02*
X0205609Y0013058D01*
X0204622Y0013657D02*
X0199235Y0013657D01*
X0199834Y0014255D02*
X0204023Y0014255D01*
X0203739Y0014854D02*
X0200118Y0014854D01*
X0200366Y0015452D02*
X0203491Y0015452D01*
X0203428Y0016051D02*
X0200428Y0016051D01*
X0200428Y0016649D02*
X0203428Y0016649D01*
X0203533Y0017248D02*
X0200324Y0017248D01*
X0200076Y0017846D02*
X0203685Y0017846D01*
X0203086Y0018445D02*
X0199733Y0018445D01*
X0199135Y0019043D02*
X0202488Y0019043D01*
X0201889Y0019642D02*
X0198006Y0019642D01*
X0195851Y0019642D02*
X0195284Y0019642D01*
X0194685Y0020240D02*
X0201291Y0020240D01*
X0200692Y0020839D02*
X0194087Y0020839D01*
X0193488Y0021437D02*
X0200094Y0021437D01*
X0199495Y0022036D02*
X0192890Y0022036D01*
X0192291Y0022634D02*
X0198897Y0022634D01*
X0198298Y0023233D02*
X0191692Y0023233D01*
X0191094Y0023832D02*
X0197700Y0023832D01*
X0197101Y0024430D02*
X0190495Y0024430D01*
X0189897Y0025029D02*
X0196503Y0025029D01*
X0195904Y0025627D02*
X0189298Y0025627D01*
X0188700Y0026226D02*
X0195306Y0026226D01*
X0195678Y0027550D02*
X0075678Y0027550D01*
X0064488Y0016359D01*
X0063238Y0016359D01*
X0063178Y0016300D01*
X0061692Y0017786D01*
X0061692Y0018859D01*
X0063183Y0019043D02*
X0065475Y0019043D01*
X0064876Y0018445D02*
X0063183Y0018445D01*
X0063329Y0017846D02*
X0064278Y0017846D01*
X0059724Y0018859D02*
X0059724Y0016005D01*
X0060678Y0015050D01*
X0065678Y0015050D01*
X0076928Y0026300D01*
X0186928Y0026300D01*
X0196928Y0016300D01*
X0205284Y0019642D02*
X0205851Y0019642D01*
X0204685Y0020240D02*
X0211291Y0020240D01*
X0211889Y0019642D02*
X0208006Y0019642D01*
X0209135Y0019043D02*
X0212488Y0019043D01*
X0213086Y0018445D02*
X0209733Y0018445D01*
X0210076Y0017846D02*
X0213685Y0017846D01*
X0213533Y0017248D02*
X0210324Y0017248D01*
X0210428Y0016649D02*
X0213428Y0016649D01*
X0213428Y0016051D02*
X0210428Y0016051D01*
X0210366Y0015452D02*
X0213491Y0015452D01*
X0213739Y0014854D02*
X0210118Y0014854D01*
X0209834Y0014255D02*
X0214023Y0014255D01*
X0214622Y0013657D02*
X0209235Y0013657D01*
X0208248Y0013058D02*
X0215609Y0013058D01*
X0218248Y0013058D02*
X0225609Y0013058D01*
X0224622Y0013657D02*
X0219235Y0013657D01*
X0219834Y0014255D02*
X0224023Y0014255D01*
X0223739Y0014854D02*
X0220118Y0014854D01*
X0220366Y0015452D02*
X0223491Y0015452D01*
X0223428Y0016051D02*
X0220428Y0016051D01*
X0220428Y0016649D02*
X0223428Y0016649D01*
X0223533Y0017248D02*
X0220324Y0017248D01*
X0220076Y0017846D02*
X0223685Y0017846D01*
X0223086Y0018445D02*
X0219733Y0018445D01*
X0219135Y0019043D02*
X0222488Y0019043D01*
X0221889Y0019642D02*
X0218006Y0019642D01*
X0215851Y0019642D02*
X0215284Y0019642D01*
X0214685Y0020240D02*
X0221291Y0020240D01*
X0220692Y0020839D02*
X0214087Y0020839D01*
X0213488Y0021437D02*
X0220094Y0021437D01*
X0219495Y0022036D02*
X0212890Y0022036D01*
X0212291Y0022634D02*
X0218897Y0022634D01*
X0218298Y0023233D02*
X0211692Y0023233D01*
X0211094Y0023832D02*
X0217700Y0023832D01*
X0217101Y0024430D02*
X0210495Y0024430D01*
X0209897Y0025029D02*
X0216503Y0025029D01*
X0215904Y0025627D02*
X0209298Y0025627D01*
X0208700Y0026226D02*
X0215306Y0026226D01*
X0214707Y0026824D02*
X0208101Y0026824D01*
X0207503Y0027423D02*
X0214109Y0027423D01*
X0213510Y0028021D02*
X0206904Y0028021D01*
X0206306Y0028620D02*
X0212912Y0028620D01*
X0215707Y0029218D02*
X0222313Y0029218D01*
X0221715Y0029817D02*
X0215109Y0029817D01*
X0213178Y0030050D02*
X0073178Y0030050D01*
X0071633Y0028505D01*
X0069369Y0028505D01*
X0066501Y0028620D02*
X0060056Y0028620D01*
X0059457Y0029218D02*
X0061040Y0029218D01*
X0061059Y0029200D02*
X0062798Y0029200D01*
X0064028Y0030430D01*
X0064028Y0032170D01*
X0063428Y0032770D01*
X0063428Y0049429D01*
X0064627Y0050627D01*
X0066501Y0050627D01*
X0066501Y0049195D01*
X0066522Y0049174D01*
X0066501Y0049153D01*
X0066501Y0047226D01*
X0066522Y0047206D01*
X0066501Y0047185D01*
X0066501Y0045258D01*
X0066522Y0045237D01*
X0066501Y0045216D01*
X0066501Y0043289D01*
X0066522Y0043269D01*
X0066501Y0043248D01*
X0066501Y0041321D01*
X0066522Y0041300D01*
X0066501Y0041279D01*
X0066501Y0039352D01*
X0066522Y0039331D01*
X0066501Y0039311D01*
X0066501Y0037384D01*
X0066522Y0037363D01*
X0066501Y0037342D01*
X0066501Y0035415D01*
X0066522Y0035394D01*
X0066501Y0035374D01*
X0066501Y0033447D01*
X0066522Y0033426D01*
X0066501Y0033405D01*
X0066501Y0032002D01*
X0066361Y0031862D01*
X0066190Y0031566D01*
X0066101Y0031235D01*
X0066101Y0030473D01*
X0066101Y0029712D01*
X0066190Y0029381D01*
X0066361Y0029084D01*
X0066501Y0028944D01*
X0066501Y0027541D01*
X0066522Y0027520D01*
X0066501Y0027500D01*
X0066501Y0025573D01*
X0067028Y0025046D01*
X0071477Y0025046D01*
X0067778Y0021347D01*
X0067778Y0022170D01*
X0066548Y0023400D01*
X0065276Y0023400D01*
X0058128Y0030547D01*
X0058128Y0050803D01*
X0066526Y0059200D01*
X0067798Y0059200D01*
X0069028Y0060430D01*
X0069028Y0061253D01*
X0076531Y0053750D01*
X0076176Y0053750D01*
X0072662Y0057264D01*
X0072001Y0057264D01*
X0071711Y0057554D01*
X0067028Y0057554D01*
X0066501Y0057027D01*
X0066501Y0055100D01*
X0066522Y0055080D01*
X0066501Y0055059D01*
X0066501Y0053627D01*
X0063384Y0053627D01*
X0061307Y0051550D01*
X0060428Y0050671D01*
X0060428Y0032770D01*
X0059828Y0032170D01*
X0059828Y0030430D01*
X0061059Y0029200D01*
X0060442Y0029817D02*
X0058859Y0029817D01*
X0058260Y0030415D02*
X0059843Y0030415D01*
X0059828Y0031014D02*
X0058128Y0031014D01*
X0058128Y0031612D02*
X0059828Y0031612D01*
X0059869Y0032211D02*
X0058128Y0032211D01*
X0058128Y0032809D02*
X0060428Y0032809D01*
X0060428Y0033408D02*
X0058128Y0033408D01*
X0058128Y0034006D02*
X0060428Y0034006D01*
X0060428Y0034605D02*
X0058128Y0034605D01*
X0058128Y0035203D02*
X0060428Y0035203D01*
X0060428Y0035802D02*
X0058128Y0035802D01*
X0058128Y0036400D02*
X0060428Y0036400D01*
X0060428Y0036999D02*
X0058128Y0036999D01*
X0058128Y0037597D02*
X0060428Y0037597D01*
X0060428Y0038196D02*
X0058128Y0038196D01*
X0058128Y0038794D02*
X0060428Y0038794D01*
X0060428Y0039393D02*
X0058128Y0039393D01*
X0058128Y0039991D02*
X0060428Y0039991D01*
X0060428Y0040590D02*
X0058128Y0040590D01*
X0058128Y0041188D02*
X0060428Y0041188D01*
X0060428Y0041787D02*
X0058128Y0041787D01*
X0058128Y0042385D02*
X0060428Y0042385D01*
X0060428Y0042984D02*
X0058128Y0042984D01*
X0058128Y0043582D02*
X0060428Y0043582D01*
X0060428Y0044181D02*
X0058128Y0044181D01*
X0058128Y0044779D02*
X0060428Y0044779D01*
X0060428Y0045378D02*
X0058128Y0045378D01*
X0058128Y0045976D02*
X0060428Y0045976D01*
X0060428Y0046575D02*
X0058128Y0046575D01*
X0058128Y0047173D02*
X0060428Y0047173D01*
X0060428Y0047772D02*
X0058128Y0047772D01*
X0058128Y0048370D02*
X0060428Y0048370D01*
X0060428Y0048969D02*
X0058128Y0048969D01*
X0058128Y0049568D02*
X0060428Y0049568D01*
X0060428Y0050166D02*
X0058128Y0050166D01*
X0058128Y0050765D02*
X0060522Y0050765D01*
X0061120Y0051363D02*
X0058689Y0051363D01*
X0059287Y0051962D02*
X0061719Y0051962D01*
X0062317Y0052560D02*
X0059886Y0052560D01*
X0060484Y0053159D02*
X0062916Y0053159D01*
X0061681Y0054356D02*
X0066501Y0054356D01*
X0066501Y0054954D02*
X0062280Y0054954D01*
X0062878Y0055553D02*
X0066501Y0055553D01*
X0066501Y0056151D02*
X0063477Y0056151D01*
X0064075Y0056750D02*
X0066501Y0056750D01*
X0066822Y0057348D02*
X0064674Y0057348D01*
X0065272Y0057947D02*
X0072335Y0057947D01*
X0071917Y0057348D02*
X0072933Y0057348D01*
X0073176Y0056750D02*
X0073532Y0056750D01*
X0073774Y0056151D02*
X0074130Y0056151D01*
X0074373Y0055553D02*
X0074729Y0055553D01*
X0074971Y0054954D02*
X0075327Y0054954D01*
X0075570Y0054356D02*
X0075926Y0054356D01*
X0076168Y0053757D02*
X0076524Y0053757D01*
X0079428Y0055050D02*
X0066928Y0067550D01*
X0060678Y0067550D01*
X0059724Y0066595D01*
X0059724Y0063741D01*
X0057755Y0063741D02*
X0057755Y0067127D01*
X0059428Y0068800D01*
X0068178Y0068800D01*
X0080678Y0056300D01*
X0143178Y0056300D01*
X0151928Y0065050D01*
X0151928Y0071300D01*
X0156928Y0076300D01*
X0161928Y0071300D02*
X0166928Y0076300D01*
X0170138Y0077698D02*
X0173719Y0077698D01*
X0173961Y0078283D02*
X0173428Y0076996D01*
X0173428Y0075604D01*
X0173961Y0074317D01*
X0174946Y0073333D01*
X0176232Y0072800D01*
X0177625Y0072800D01*
X0178911Y0073333D01*
X0179896Y0074317D01*
X0180428Y0075604D01*
X0180428Y0076996D01*
X0179896Y0078283D01*
X0178911Y0079267D01*
X0177625Y0079800D01*
X0176232Y0079800D01*
X0174946Y0079267D01*
X0173961Y0078283D01*
X0173975Y0078296D02*
X0169882Y0078296D01*
X0169284Y0078895D02*
X0174573Y0078895D01*
X0175491Y0079493D02*
X0168366Y0079493D01*
X0170386Y0077099D02*
X0173471Y0077099D01*
X0173428Y0076501D02*
X0170428Y0076501D01*
X0170428Y0075902D02*
X0173428Y0075902D01*
X0173553Y0075303D02*
X0170304Y0075303D01*
X0170056Y0074705D02*
X0173801Y0074705D01*
X0174172Y0074106D02*
X0169685Y0074106D01*
X0169086Y0073508D02*
X0174771Y0073508D01*
X0175968Y0072909D02*
X0170789Y0072909D01*
X0169428Y0071300D02*
X0219428Y0071300D01*
X0221015Y0069917D02*
X0221348Y0069917D01*
X0221528Y0070515D02*
X0221947Y0070515D01*
X0221528Y0071114D02*
X0222545Y0071114D01*
X0223144Y0071712D02*
X0221528Y0071712D01*
X0221387Y0072311D02*
X0223742Y0072311D01*
X0224341Y0072909D02*
X0220789Y0072909D01*
X0219685Y0074106D02*
X0224172Y0074106D01*
X0223801Y0074705D02*
X0220056Y0074705D01*
X0220304Y0075303D02*
X0223553Y0075303D01*
X0223428Y0075902D02*
X0220428Y0075902D01*
X0220428Y0076501D02*
X0223428Y0076501D01*
X0223471Y0077099D02*
X0220386Y0077099D01*
X0220138Y0077698D02*
X0223719Y0077698D01*
X0223975Y0078296D02*
X0219882Y0078296D01*
X0219284Y0078895D02*
X0224573Y0078895D01*
X0225491Y0079493D02*
X0218366Y0079493D01*
X0215491Y0079493D02*
X0208366Y0079493D01*
X0208911Y0079267D02*
X0207625Y0079800D01*
X0206232Y0079800D01*
X0204946Y0079267D01*
X0203961Y0078283D01*
X0203428Y0076996D01*
X0203428Y0075604D01*
X0203961Y0074317D01*
X0204946Y0073333D01*
X0206232Y0072800D01*
X0207625Y0072800D01*
X0208911Y0073333D01*
X0209896Y0074317D01*
X0210428Y0075604D01*
X0210428Y0076996D01*
X0209896Y0078283D01*
X0208911Y0079267D01*
X0209284Y0078895D02*
X0214573Y0078895D01*
X0213975Y0078296D02*
X0209882Y0078296D01*
X0210138Y0077698D02*
X0213719Y0077698D01*
X0213471Y0077099D02*
X0210386Y0077099D01*
X0210428Y0076501D02*
X0213428Y0076501D01*
X0213428Y0075902D02*
X0210428Y0075902D01*
X0210304Y0075303D02*
X0213553Y0075303D01*
X0213801Y0074705D02*
X0210056Y0074705D01*
X0209685Y0074106D02*
X0214172Y0074106D01*
X0214771Y0073508D02*
X0209086Y0073508D01*
X0207889Y0072909D02*
X0215968Y0072909D01*
X0217889Y0072909D02*
X0218068Y0072909D01*
X0219086Y0073508D02*
X0224771Y0073508D01*
X0226928Y0073800D02*
X0221928Y0068800D01*
X0221928Y0065050D01*
X0208178Y0051300D01*
X0074428Y0051300D01*
X0071633Y0054095D01*
X0069369Y0054095D01*
X0066501Y0053757D02*
X0061083Y0053757D01*
X0056928Y0051300D02*
X0056928Y0030050D01*
X0065678Y0021300D01*
X0063578Y0021437D02*
X0062946Y0021437D01*
X0063183Y0020839D02*
X0063578Y0020839D01*
X0063768Y0020240D02*
X0063183Y0020240D01*
X0063183Y0019642D02*
X0064367Y0019642D01*
X0067778Y0021437D02*
X0067869Y0021437D01*
X0067778Y0022036D02*
X0068467Y0022036D01*
X0069066Y0022634D02*
X0067314Y0022634D01*
X0066715Y0023233D02*
X0069664Y0023233D01*
X0070263Y0023832D02*
X0064844Y0023832D01*
X0064245Y0024430D02*
X0070861Y0024430D01*
X0071460Y0025029D02*
X0063647Y0025029D01*
X0063048Y0025627D02*
X0066501Y0025627D01*
X0066501Y0026226D02*
X0062450Y0026226D01*
X0061851Y0026824D02*
X0066501Y0026824D01*
X0066501Y0027423D02*
X0061253Y0027423D01*
X0060654Y0028021D02*
X0066501Y0028021D01*
X0066283Y0029218D02*
X0062816Y0029218D01*
X0063415Y0029817D02*
X0066101Y0029817D01*
X0066101Y0030415D02*
X0064013Y0030415D01*
X0064028Y0031014D02*
X0066101Y0031014D01*
X0066101Y0030473D02*
X0069369Y0030473D01*
X0066101Y0030473D01*
X0069369Y0030473D02*
X0069369Y0030473D01*
X0072037Y0032442D02*
X0073178Y0031300D01*
X0221928Y0031300D01*
X0236928Y0016300D01*
X0240076Y0017846D02*
X0243685Y0017846D01*
X0243533Y0017248D02*
X0240324Y0017248D01*
X0240428Y0016649D02*
X0243428Y0016649D01*
X0243428Y0016051D02*
X0240428Y0016051D01*
X0240366Y0015452D02*
X0243491Y0015452D01*
X0243739Y0014854D02*
X0240118Y0014854D01*
X0239834Y0014255D02*
X0244023Y0014255D01*
X0244622Y0013657D02*
X0239235Y0013657D01*
X0238248Y0013058D02*
X0245609Y0013058D01*
X0248248Y0013058D02*
X0255609Y0013058D01*
X0254622Y0013657D02*
X0249235Y0013657D01*
X0249834Y0014255D02*
X0254023Y0014255D01*
X0253739Y0014854D02*
X0250118Y0014854D01*
X0250366Y0015452D02*
X0253491Y0015452D01*
X0253428Y0016051D02*
X0250428Y0016051D01*
X0250428Y0016649D02*
X0253428Y0016649D01*
X0253533Y0017248D02*
X0250324Y0017248D01*
X0250076Y0017846D02*
X0253685Y0017846D01*
X0253086Y0018445D02*
X0249733Y0018445D01*
X0249135Y0019043D02*
X0252488Y0019043D01*
X0251889Y0019642D02*
X0248006Y0019642D01*
X0245851Y0019642D02*
X0245284Y0019642D01*
X0244685Y0020240D02*
X0251291Y0020240D01*
X0250692Y0020839D02*
X0244087Y0020839D01*
X0243488Y0021437D02*
X0250094Y0021437D01*
X0249495Y0022036D02*
X0242890Y0022036D01*
X0242291Y0022634D02*
X0248897Y0022634D01*
X0248298Y0023233D02*
X0241692Y0023233D01*
X0241094Y0023832D02*
X0247700Y0023832D01*
X0247101Y0024430D02*
X0240495Y0024430D01*
X0239897Y0025029D02*
X0246503Y0025029D01*
X0245904Y0025627D02*
X0239298Y0025627D01*
X0238700Y0026226D02*
X0245306Y0026226D01*
X0244707Y0026824D02*
X0238101Y0026824D01*
X0237503Y0027423D02*
X0244109Y0027423D01*
X0243510Y0028021D02*
X0236904Y0028021D01*
X0236306Y0028620D02*
X0242912Y0028620D01*
X0242313Y0029218D02*
X0235707Y0029218D01*
X0235109Y0029817D02*
X0241715Y0029817D01*
X0241116Y0030415D02*
X0234510Y0030415D01*
X0233912Y0031014D02*
X0240518Y0031014D01*
X0239919Y0031612D02*
X0233313Y0031612D01*
X0232715Y0032211D02*
X0239321Y0032211D01*
X0241518Y0033408D02*
X0265728Y0033408D01*
X0265728Y0032809D02*
X0242116Y0032809D01*
X0242715Y0032211D02*
X0265728Y0032211D01*
X0265728Y0031612D02*
X0243313Y0031612D01*
X0243912Y0031014D02*
X0265728Y0031014D01*
X0265728Y0030415D02*
X0244510Y0030415D01*
X0245109Y0029817D02*
X0265728Y0029817D01*
X0265728Y0029218D02*
X0245707Y0029218D01*
X0246306Y0028620D02*
X0265728Y0028620D01*
X0265728Y0028021D02*
X0246904Y0028021D01*
X0247503Y0027423D02*
X0265728Y0027423D01*
X0265728Y0026824D02*
X0248101Y0026824D01*
X0248700Y0026226D02*
X0265728Y0026226D01*
X0265728Y0025627D02*
X0249298Y0025627D01*
X0249897Y0025029D02*
X0265728Y0025029D01*
X0265728Y0024430D02*
X0250495Y0024430D01*
X0251094Y0023832D02*
X0265728Y0023832D01*
X0265728Y0023233D02*
X0251692Y0023233D01*
X0252291Y0022634D02*
X0265728Y0022634D01*
X0265728Y0022036D02*
X0252890Y0022036D01*
X0253488Y0021437D02*
X0265728Y0021437D01*
X0265728Y0020839D02*
X0254087Y0020839D01*
X0254685Y0020240D02*
X0265728Y0020240D01*
X0265728Y0019642D02*
X0258006Y0019642D01*
X0259135Y0019043D02*
X0264722Y0019043D01*
X0264124Y0018445D02*
X0259733Y0018445D01*
X0260076Y0017846D02*
X0263781Y0017846D01*
X0263533Y0017248D02*
X0260324Y0017248D01*
X0260428Y0016649D02*
X0263428Y0016649D01*
X0263428Y0016051D02*
X0260428Y0016051D01*
X0260366Y0015452D02*
X0263491Y0015452D01*
X0263739Y0014854D02*
X0260118Y0014854D01*
X0259834Y0014255D02*
X0264023Y0014255D01*
X0264622Y0013657D02*
X0259235Y0013657D01*
X0258248Y0013058D02*
X0265609Y0013058D01*
X0268248Y0013058D02*
X0275609Y0013058D01*
X0276232Y0012800D02*
X0277625Y0012800D01*
X0278911Y0013333D01*
X0279896Y0014317D01*
X0280428Y0015604D01*
X0280428Y0016996D01*
X0279896Y0018283D01*
X0278911Y0019267D01*
X0277625Y0019800D01*
X0276232Y0019800D01*
X0274946Y0019267D01*
X0273961Y0018283D01*
X0273428Y0016996D01*
X0273428Y0015604D01*
X0273961Y0014317D01*
X0274946Y0013333D01*
X0276232Y0012800D01*
X0274622Y0013657D02*
X0269235Y0013657D01*
X0269834Y0014255D02*
X0274023Y0014255D01*
X0273739Y0014854D02*
X0270118Y0014854D01*
X0270366Y0015452D02*
X0273491Y0015452D01*
X0273428Y0016051D02*
X0270428Y0016051D01*
X0270428Y0016649D02*
X0273428Y0016649D01*
X0273533Y0017248D02*
X0270324Y0017248D01*
X0270076Y0017846D02*
X0273781Y0017846D01*
X0274124Y0018445D02*
X0269733Y0018445D01*
X0269135Y0019043D02*
X0274722Y0019043D01*
X0275851Y0019642D02*
X0268128Y0019642D01*
X0268128Y0020240D02*
X0280968Y0020240D01*
X0280968Y0019642D02*
X0278006Y0019642D01*
X0279135Y0019043D02*
X0280967Y0019043D01*
X0280967Y0018445D02*
X0279733Y0018445D01*
X0280076Y0017846D02*
X0280966Y0017846D01*
X0280965Y0017248D02*
X0280324Y0017248D01*
X0280428Y0016649D02*
X0280965Y0016649D01*
X0280964Y0016051D02*
X0280428Y0016051D01*
X0280366Y0015452D02*
X0280964Y0015452D01*
X0280963Y0014854D02*
X0280118Y0014854D01*
X0279834Y0014255D02*
X0280962Y0014255D01*
X0280962Y0013657D02*
X0279235Y0013657D01*
X0278248Y0013058D02*
X0280961Y0013058D01*
X0280961Y0012460D02*
X0142466Y0012460D01*
X0143064Y0011861D02*
X0280960Y0011861D01*
X0280960Y0011263D02*
X0143663Y0011263D01*
X0144261Y0010664D02*
X0280959Y0010664D01*
X0280958Y0010066D02*
X0144860Y0010066D01*
X0142663Y0008869D02*
X0139309Y0008869D01*
X0138911Y0009267D02*
X0137625Y0009800D01*
X0136232Y0009800D01*
X0134946Y0009267D01*
X0133961Y0008283D01*
X0133428Y0006996D01*
X0133428Y0005604D01*
X0133961Y0004317D01*
X0134946Y0003333D01*
X0136232Y0002800D01*
X0137625Y0002800D01*
X0138911Y0003333D01*
X0139896Y0004317D01*
X0140428Y0005604D01*
X0140428Y0006996D01*
X0139896Y0008283D01*
X0138911Y0009267D01*
X0138428Y0009467D02*
X0142064Y0009467D01*
X0141466Y0010066D02*
X0082391Y0010066D01*
X0081793Y0009467D02*
X0083623Y0009467D01*
X0083428Y0009273D02*
X0083428Y0003327D01*
X0083956Y0002800D01*
X0089901Y0002800D01*
X0090428Y0003327D01*
X0090428Y0009273D01*
X0089901Y0009800D01*
X0083956Y0009800D01*
X0083428Y0009273D01*
X0083428Y0008869D02*
X0081194Y0008869D01*
X0080596Y0008270D02*
X0083428Y0008270D01*
X0083428Y0007672D02*
X0079997Y0007672D01*
X0079399Y0007073D02*
X0083428Y0007073D01*
X0083428Y0006475D02*
X0078800Y0006475D01*
X0078202Y0005876D02*
X0083428Y0005876D01*
X0083428Y0005278D02*
X0077603Y0005278D01*
X0076928Y0006300D02*
X0081928Y0011300D01*
X0111928Y0011300D01*
X0106928Y0016300D01*
X0110076Y0017846D02*
X0113781Y0017846D01*
X0113533Y0017248D02*
X0110324Y0017248D01*
X0110428Y0016649D02*
X0113428Y0016649D01*
X0113428Y0016051D02*
X0110428Y0016051D01*
X0110366Y0015452D02*
X0113491Y0015452D01*
X0113739Y0014854D02*
X0110118Y0014854D01*
X0110670Y0014255D02*
X0114023Y0014255D01*
X0114622Y0013657D02*
X0111269Y0013657D01*
X0111867Y0013058D02*
X0115609Y0013058D01*
X0118248Y0013058D02*
X0125609Y0013058D01*
X0124622Y0013657D02*
X0119235Y0013657D01*
X0119834Y0014255D02*
X0124023Y0014255D01*
X0123739Y0014854D02*
X0120118Y0014854D01*
X0120366Y0015452D02*
X0123491Y0015452D01*
X0123428Y0016051D02*
X0120428Y0016051D01*
X0120428Y0016649D02*
X0123428Y0016649D01*
X0123533Y0017248D02*
X0120324Y0017248D01*
X0120076Y0017846D02*
X0123781Y0017846D01*
X0124124Y0018445D02*
X0119733Y0018445D01*
X0114124Y0018445D02*
X0109733Y0018445D01*
X0128248Y0013058D02*
X0135609Y0013058D01*
X0134622Y0013657D02*
X0129235Y0013657D01*
X0129834Y0014255D02*
X0134023Y0014255D01*
X0133739Y0014854D02*
X0130118Y0014854D01*
X0130366Y0015452D02*
X0133491Y0015452D01*
X0133428Y0016051D02*
X0130428Y0016051D01*
X0130428Y0016649D02*
X0133428Y0016649D01*
X0133533Y0017248D02*
X0130324Y0017248D01*
X0130076Y0017846D02*
X0133781Y0017846D01*
X0134124Y0018445D02*
X0129733Y0018445D01*
X0139733Y0018445D02*
X0143086Y0018445D01*
X0143685Y0017846D02*
X0140076Y0017846D01*
X0140324Y0017248D02*
X0143533Y0017248D01*
X0143428Y0016649D02*
X0140428Y0016649D01*
X0140428Y0016051D02*
X0143428Y0016051D01*
X0143491Y0015452D02*
X0140366Y0015452D01*
X0140118Y0014854D02*
X0143739Y0014854D01*
X0144023Y0014255D02*
X0139834Y0014255D01*
X0139235Y0013657D02*
X0144622Y0013657D01*
X0145609Y0013058D02*
X0138248Y0013058D01*
X0141928Y0011300D02*
X0146928Y0006300D01*
X0143428Y0006475D02*
X0140428Y0006475D01*
X0140428Y0005876D02*
X0143428Y0005876D01*
X0143564Y0005278D02*
X0140293Y0005278D01*
X0140045Y0004679D02*
X0143811Y0004679D01*
X0144198Y0004081D02*
X0139659Y0004081D01*
X0139060Y0003482D02*
X0144797Y0003482D01*
X0146030Y0002884D02*
X0137827Y0002884D01*
X0136030Y0002884D02*
X0127827Y0002884D01*
X0127625Y0002800D02*
X0128911Y0003333D01*
X0129896Y0004317D01*
X0130428Y0005604D01*
X0130428Y0006996D01*
X0129896Y0008283D01*
X0128911Y0009267D01*
X0127625Y0009800D01*
X0126232Y0009800D01*
X0124946Y0009267D01*
X0123961Y0008283D01*
X0123428Y0006996D01*
X0123428Y0005604D01*
X0123961Y0004317D01*
X0124946Y0003333D01*
X0126232Y0002800D01*
X0127625Y0002800D01*
X0129060Y0003482D02*
X0134797Y0003482D01*
X0134198Y0004081D02*
X0129659Y0004081D01*
X0130045Y0004679D02*
X0133811Y0004679D01*
X0133564Y0005278D02*
X0130293Y0005278D01*
X0130428Y0005876D02*
X0133428Y0005876D01*
X0133428Y0006475D02*
X0130428Y0006475D01*
X0130397Y0007073D02*
X0133460Y0007073D01*
X0133708Y0007672D02*
X0130149Y0007672D01*
X0129901Y0008270D02*
X0133956Y0008270D01*
X0134547Y0008869D02*
X0129309Y0008869D01*
X0128428Y0009467D02*
X0135429Y0009467D01*
X0139901Y0008270D02*
X0143261Y0008270D01*
X0143708Y0007672D02*
X0140149Y0007672D01*
X0140397Y0007073D02*
X0143460Y0007073D01*
X0148428Y0009467D02*
X0155429Y0009467D01*
X0154946Y0009267D02*
X0153961Y0008283D01*
X0153428Y0006996D01*
X0153428Y0005604D01*
X0153961Y0004317D01*
X0154946Y0003333D01*
X0156232Y0002800D01*
X0157625Y0002800D01*
X0158911Y0003333D01*
X0159896Y0004317D01*
X0160428Y0005604D01*
X0160428Y0006996D01*
X0159896Y0008283D01*
X0158911Y0009267D01*
X0157625Y0009800D01*
X0156232Y0009800D01*
X0154946Y0009267D01*
X0154547Y0008869D02*
X0149309Y0008869D01*
X0149901Y0008270D02*
X0153956Y0008270D01*
X0153708Y0007672D02*
X0150149Y0007672D01*
X0150397Y0007073D02*
X0153460Y0007073D01*
X0153428Y0006475D02*
X0150428Y0006475D01*
X0150428Y0005876D02*
X0153428Y0005876D01*
X0153564Y0005278D02*
X0150293Y0005278D01*
X0150045Y0004679D02*
X0153811Y0004679D01*
X0154198Y0004081D02*
X0149659Y0004081D01*
X0149060Y0003482D02*
X0154797Y0003482D01*
X0156030Y0002884D02*
X0147827Y0002884D01*
X0157827Y0002884D02*
X0166030Y0002884D01*
X0166232Y0002800D02*
X0164946Y0003333D01*
X0163961Y0004317D01*
X0163428Y0005604D01*
X0163428Y0006996D01*
X0163961Y0008283D01*
X0164946Y0009267D01*
X0166232Y0009800D01*
X0167625Y0009800D01*
X0168911Y0009267D01*
X0169896Y0008283D01*
X0170428Y0006996D01*
X0170428Y0005604D01*
X0169896Y0004317D01*
X0168911Y0003333D01*
X0167625Y0002800D01*
X0166232Y0002800D01*
X0164797Y0003482D02*
X0159060Y0003482D01*
X0159659Y0004081D02*
X0164198Y0004081D01*
X0163811Y0004679D02*
X0160045Y0004679D01*
X0160293Y0005278D02*
X0163564Y0005278D01*
X0163428Y0005876D02*
X0160428Y0005876D01*
X0160428Y0006475D02*
X0163428Y0006475D01*
X0163460Y0007073D02*
X0160397Y0007073D01*
X0160149Y0007672D02*
X0163708Y0007672D01*
X0163956Y0008270D02*
X0159901Y0008270D01*
X0159309Y0008869D02*
X0164547Y0008869D01*
X0165429Y0009467D02*
X0158428Y0009467D01*
X0168428Y0009467D02*
X0175429Y0009467D01*
X0174946Y0009267D02*
X0173961Y0008283D01*
X0173428Y0006996D01*
X0173428Y0005604D01*
X0173961Y0004317D01*
X0174946Y0003333D01*
X0176232Y0002800D01*
X0177625Y0002800D01*
X0178911Y0003333D01*
X0179896Y0004317D01*
X0180428Y0005604D01*
X0180428Y0006996D01*
X0179896Y0008283D01*
X0178911Y0009267D01*
X0177625Y0009800D01*
X0176232Y0009800D01*
X0174946Y0009267D01*
X0174547Y0008869D02*
X0169309Y0008869D01*
X0169901Y0008270D02*
X0173956Y0008270D01*
X0173708Y0007672D02*
X0170149Y0007672D01*
X0170397Y0007073D02*
X0173460Y0007073D01*
X0173428Y0006475D02*
X0170428Y0006475D01*
X0170428Y0005876D02*
X0173428Y0005876D01*
X0173564Y0005278D02*
X0170293Y0005278D01*
X0170045Y0004679D02*
X0173811Y0004679D01*
X0174198Y0004081D02*
X0169659Y0004081D01*
X0169060Y0003482D02*
X0174797Y0003482D01*
X0176030Y0002884D02*
X0167827Y0002884D01*
X0177827Y0002884D02*
X0186030Y0002884D01*
X0186232Y0002800D02*
X0184946Y0003333D01*
X0183961Y0004317D01*
X0183428Y0005604D01*
X0183428Y0006996D01*
X0183961Y0008283D01*
X0184946Y0009267D01*
X0186232Y0009800D01*
X0187625Y0009800D01*
X0188911Y0009267D01*
X0189896Y0008283D01*
X0190428Y0006996D01*
X0190428Y0005604D01*
X0189896Y0004317D01*
X0188911Y0003333D01*
X0187625Y0002800D01*
X0186232Y0002800D01*
X0184797Y0003482D02*
X0179060Y0003482D01*
X0179659Y0004081D02*
X0184198Y0004081D01*
X0183811Y0004679D02*
X0180045Y0004679D01*
X0180293Y0005278D02*
X0183564Y0005278D01*
X0183428Y0005876D02*
X0180428Y0005876D01*
X0180428Y0006475D02*
X0183428Y0006475D01*
X0183460Y0007073D02*
X0180397Y0007073D01*
X0180149Y0007672D02*
X0183708Y0007672D01*
X0183956Y0008270D02*
X0179901Y0008270D01*
X0179309Y0008869D02*
X0184547Y0008869D01*
X0185429Y0009467D02*
X0178428Y0009467D01*
X0178248Y0013058D02*
X0185609Y0013058D01*
X0184622Y0013657D02*
X0179235Y0013657D01*
X0179834Y0014255D02*
X0184023Y0014255D01*
X0183739Y0014854D02*
X0180118Y0014854D01*
X0180366Y0015452D02*
X0183491Y0015452D01*
X0176928Y0016300D02*
X0169428Y0023800D01*
X0153086Y0018445D02*
X0149733Y0018445D01*
X0149135Y0019043D02*
X0152488Y0019043D01*
X0151889Y0019642D02*
X0148006Y0019642D01*
X0145851Y0019642D02*
X0145284Y0019642D01*
X0151928Y0021300D02*
X0156928Y0016300D01*
X0168248Y0013058D02*
X0175609Y0013058D01*
X0188428Y0009467D02*
X0195429Y0009467D01*
X0194946Y0009267D02*
X0193961Y0008283D01*
X0193428Y0006996D01*
X0193428Y0005604D01*
X0193961Y0004317D01*
X0194946Y0003333D01*
X0196232Y0002800D01*
X0197625Y0002800D01*
X0198911Y0003333D01*
X0199896Y0004317D01*
X0200428Y0005604D01*
X0200428Y0006996D01*
X0199896Y0008283D01*
X0198911Y0009267D01*
X0197625Y0009800D01*
X0196232Y0009800D01*
X0194946Y0009267D01*
X0194547Y0008869D02*
X0189309Y0008869D01*
X0189901Y0008270D02*
X0193956Y0008270D01*
X0193708Y0007672D02*
X0190149Y0007672D01*
X0190397Y0007073D02*
X0193460Y0007073D01*
X0193428Y0006475D02*
X0190428Y0006475D01*
X0190428Y0005876D02*
X0193428Y0005876D01*
X0193564Y0005278D02*
X0190293Y0005278D01*
X0190045Y0004679D02*
X0193811Y0004679D01*
X0194198Y0004081D02*
X0189659Y0004081D01*
X0189060Y0003482D02*
X0194797Y0003482D01*
X0196030Y0002884D02*
X0187827Y0002884D01*
X0197827Y0002884D02*
X0206030Y0002884D01*
X0206232Y0002800D02*
X0204946Y0003333D01*
X0203961Y0004317D01*
X0203428Y0005604D01*
X0203428Y0006996D01*
X0203961Y0008283D01*
X0204946Y0009267D01*
X0206232Y0009800D01*
X0207625Y0009800D01*
X0208911Y0009267D01*
X0209896Y0008283D01*
X0210428Y0006996D01*
X0210428Y0005604D01*
X0209896Y0004317D01*
X0208911Y0003333D01*
X0207625Y0002800D01*
X0206232Y0002800D01*
X0204797Y0003482D02*
X0199060Y0003482D01*
X0199659Y0004081D02*
X0204198Y0004081D01*
X0203811Y0004679D02*
X0200045Y0004679D01*
X0200293Y0005278D02*
X0203564Y0005278D01*
X0203428Y0005876D02*
X0200428Y0005876D01*
X0200428Y0006475D02*
X0203428Y0006475D01*
X0203460Y0007073D02*
X0200397Y0007073D01*
X0200149Y0007672D02*
X0203708Y0007672D01*
X0203956Y0008270D02*
X0199901Y0008270D01*
X0199309Y0008869D02*
X0204547Y0008869D01*
X0205429Y0009467D02*
X0198428Y0009467D01*
X0208428Y0009467D02*
X0215429Y0009467D01*
X0214946Y0009267D02*
X0213961Y0008283D01*
X0213428Y0006996D01*
X0213428Y0005604D01*
X0213961Y0004317D01*
X0214946Y0003333D01*
X0216232Y0002800D01*
X0217625Y0002800D01*
X0218911Y0003333D01*
X0219896Y0004317D01*
X0220428Y0005604D01*
X0220428Y0006996D01*
X0219896Y0008283D01*
X0218911Y0009267D01*
X0217625Y0009800D01*
X0216232Y0009800D01*
X0214946Y0009267D01*
X0214547Y0008869D02*
X0209309Y0008869D01*
X0209901Y0008270D02*
X0213956Y0008270D01*
X0213708Y0007672D02*
X0210149Y0007672D01*
X0210397Y0007073D02*
X0213460Y0007073D01*
X0213428Y0006475D02*
X0210428Y0006475D01*
X0210428Y0005876D02*
X0213428Y0005876D01*
X0213564Y0005278D02*
X0210293Y0005278D01*
X0210045Y0004679D02*
X0213811Y0004679D01*
X0214198Y0004081D02*
X0209659Y0004081D01*
X0209060Y0003482D02*
X0214797Y0003482D01*
X0216030Y0002884D02*
X0207827Y0002884D01*
X0217827Y0002884D02*
X0226030Y0002884D01*
X0226232Y0002800D02*
X0224946Y0003333D01*
X0223961Y0004317D01*
X0223428Y0005604D01*
X0223428Y0006996D01*
X0223961Y0008283D01*
X0224946Y0009267D01*
X0226232Y0009800D01*
X0227625Y0009800D01*
X0228911Y0009267D01*
X0229896Y0008283D01*
X0230428Y0006996D01*
X0230428Y0005604D01*
X0229896Y0004317D01*
X0228911Y0003333D01*
X0227625Y0002800D01*
X0226232Y0002800D01*
X0224797Y0003482D02*
X0219060Y0003482D01*
X0219659Y0004081D02*
X0224198Y0004081D01*
X0223811Y0004679D02*
X0220045Y0004679D01*
X0220293Y0005278D02*
X0223564Y0005278D01*
X0223428Y0005876D02*
X0220428Y0005876D01*
X0220428Y0006475D02*
X0223428Y0006475D01*
X0223460Y0007073D02*
X0220397Y0007073D01*
X0220149Y0007672D02*
X0223708Y0007672D01*
X0223956Y0008270D02*
X0219901Y0008270D01*
X0219309Y0008869D02*
X0224547Y0008869D01*
X0225429Y0009467D02*
X0218428Y0009467D01*
X0228428Y0009467D02*
X0235429Y0009467D01*
X0234946Y0009267D02*
X0233961Y0008283D01*
X0233428Y0006996D01*
X0233428Y0005604D01*
X0233961Y0004317D01*
X0234946Y0003333D01*
X0236232Y0002800D01*
X0237625Y0002800D01*
X0238911Y0003333D01*
X0239896Y0004317D01*
X0240428Y0005604D01*
X0240428Y0006996D01*
X0239896Y0008283D01*
X0238911Y0009267D01*
X0237625Y0009800D01*
X0236232Y0009800D01*
X0234946Y0009267D01*
X0234547Y0008869D02*
X0229309Y0008869D01*
X0229901Y0008270D02*
X0233956Y0008270D01*
X0233708Y0007672D02*
X0230149Y0007672D01*
X0230397Y0007073D02*
X0233460Y0007073D01*
X0233428Y0006475D02*
X0230428Y0006475D01*
X0230428Y0005876D02*
X0233428Y0005876D01*
X0233564Y0005278D02*
X0230293Y0005278D01*
X0230045Y0004679D02*
X0233811Y0004679D01*
X0234198Y0004081D02*
X0229659Y0004081D01*
X0229060Y0003482D02*
X0234797Y0003482D01*
X0236030Y0002884D02*
X0227827Y0002884D01*
X0237827Y0002884D02*
X0246030Y0002884D01*
X0246232Y0002800D02*
X0244946Y0003333D01*
X0243961Y0004317D01*
X0243428Y0005604D01*
X0243428Y0006996D01*
X0243961Y0008283D01*
X0244946Y0009267D01*
X0246232Y0009800D01*
X0247625Y0009800D01*
X0248911Y0009267D01*
X0249896Y0008283D01*
X0250428Y0006996D01*
X0250428Y0005604D01*
X0249896Y0004317D01*
X0248911Y0003333D01*
X0247625Y0002800D01*
X0246232Y0002800D01*
X0244797Y0003482D02*
X0239060Y0003482D01*
X0239659Y0004081D02*
X0244198Y0004081D01*
X0243811Y0004679D02*
X0240045Y0004679D01*
X0240293Y0005278D02*
X0243564Y0005278D01*
X0243428Y0005876D02*
X0240428Y0005876D01*
X0240428Y0006475D02*
X0243428Y0006475D01*
X0243460Y0007073D02*
X0240397Y0007073D01*
X0240149Y0007672D02*
X0243708Y0007672D01*
X0243956Y0008270D02*
X0239901Y0008270D01*
X0239309Y0008869D02*
X0244547Y0008869D01*
X0245429Y0009467D02*
X0238428Y0009467D01*
X0248428Y0009467D02*
X0255429Y0009467D01*
X0254946Y0009267D02*
X0253961Y0008283D01*
X0253428Y0006996D01*
X0253428Y0005604D01*
X0253961Y0004317D01*
X0254946Y0003333D01*
X0256232Y0002800D01*
X0257625Y0002800D01*
X0258911Y0003333D01*
X0259896Y0004317D01*
X0260428Y0005604D01*
X0260428Y0006996D01*
X0259896Y0008283D01*
X0258911Y0009267D01*
X0257625Y0009800D01*
X0256232Y0009800D01*
X0254946Y0009267D01*
X0254547Y0008869D02*
X0249309Y0008869D01*
X0249901Y0008270D02*
X0253956Y0008270D01*
X0253708Y0007672D02*
X0250149Y0007672D01*
X0250397Y0007073D02*
X0253460Y0007073D01*
X0253428Y0006475D02*
X0250428Y0006475D01*
X0250428Y0005876D02*
X0253428Y0005876D01*
X0253564Y0005278D02*
X0250293Y0005278D01*
X0250045Y0004679D02*
X0253811Y0004679D01*
X0254198Y0004081D02*
X0249659Y0004081D01*
X0249060Y0003482D02*
X0254797Y0003482D01*
X0256030Y0002884D02*
X0247827Y0002884D01*
X0257827Y0002884D02*
X0266030Y0002884D01*
X0266232Y0002800D02*
X0264946Y0003333D01*
X0263961Y0004317D01*
X0263428Y0005604D01*
X0263428Y0006996D01*
X0263961Y0008283D01*
X0264946Y0009267D01*
X0266232Y0009800D01*
X0267625Y0009800D01*
X0268911Y0009267D01*
X0269896Y0008283D01*
X0270428Y0006996D01*
X0270428Y0005604D01*
X0269896Y0004317D01*
X0268911Y0003333D01*
X0267625Y0002800D01*
X0266232Y0002800D01*
X0264797Y0003482D02*
X0259060Y0003482D01*
X0259659Y0004081D02*
X0264198Y0004081D01*
X0263811Y0004679D02*
X0260045Y0004679D01*
X0260293Y0005278D02*
X0263564Y0005278D01*
X0263428Y0005876D02*
X0260428Y0005876D01*
X0260428Y0006475D02*
X0263428Y0006475D01*
X0263460Y0007073D02*
X0260397Y0007073D01*
X0260149Y0007672D02*
X0263708Y0007672D01*
X0263956Y0008270D02*
X0259901Y0008270D01*
X0259309Y0008869D02*
X0264547Y0008869D01*
X0265429Y0009467D02*
X0258428Y0009467D01*
X0268428Y0009467D02*
X0275429Y0009467D01*
X0274946Y0009267D02*
X0273961Y0008283D01*
X0273428Y0006996D01*
X0273428Y0005604D01*
X0273961Y0004317D01*
X0274946Y0003333D01*
X0276232Y0002800D01*
X0277625Y0002800D01*
X0278911Y0003333D01*
X0279896Y0004317D01*
X0280428Y0005604D01*
X0280428Y0006996D01*
X0279896Y0008283D01*
X0278911Y0009267D01*
X0277625Y0009800D01*
X0276232Y0009800D01*
X0274946Y0009267D01*
X0274547Y0008869D02*
X0269309Y0008869D01*
X0269901Y0008270D02*
X0273956Y0008270D01*
X0273708Y0007672D02*
X0270149Y0007672D01*
X0270397Y0007073D02*
X0273460Y0007073D01*
X0273428Y0006475D02*
X0270428Y0006475D01*
X0270428Y0005876D02*
X0273428Y0005876D01*
X0273564Y0005278D02*
X0270293Y0005278D01*
X0270045Y0004679D02*
X0273811Y0004679D01*
X0274198Y0004081D02*
X0269659Y0004081D01*
X0269060Y0003482D02*
X0274797Y0003482D01*
X0276030Y0002884D02*
X0267827Y0002884D01*
X0277669Y0002285D02*
X0018613Y0002285D01*
X0017168Y0002884D02*
X0083872Y0002884D01*
X0083428Y0003482D02*
X0016559Y0003482D01*
X0015995Y0004081D02*
X0083428Y0004081D01*
X0083428Y0004679D02*
X0015747Y0004679D01*
X0015499Y0005278D02*
X0043754Y0005278D01*
X0043155Y0005876D02*
X0015370Y0005876D01*
X0034133Y0016595D02*
X0044428Y0006300D01*
X0076928Y0006300D01*
X0073178Y0007550D02*
X0053178Y0007550D01*
X0045944Y0014784D01*
X0045944Y0018859D01*
X0045476Y0022036D02*
X0052721Y0022036D01*
X0036102Y0022127D02*
X0036102Y0018859D01*
X0033228Y0025627D02*
X0032975Y0025627D01*
X0031928Y0027550D02*
X0030915Y0026536D01*
X0024488Y0026536D01*
X0016699Y0029218D02*
X0015328Y0029218D01*
X0015328Y0028620D02*
X0015885Y0028620D01*
X0015360Y0028021D02*
X0015328Y0028021D01*
X0015328Y0033408D02*
X0016637Y0033408D01*
X0015859Y0034006D02*
X0015328Y0034006D01*
X0015328Y0034605D02*
X0015350Y0034605D01*
X0034851Y0037597D02*
X0035161Y0037597D01*
X0035278Y0036999D02*
X0035760Y0036999D01*
X0035374Y0035802D02*
X0037328Y0035802D01*
X0037328Y0035203D02*
X0035628Y0035203D01*
X0035628Y0034605D02*
X0037328Y0034605D01*
X0037502Y0034006D02*
X0035628Y0034006D01*
X0035628Y0033408D02*
X0038101Y0033408D01*
X0039428Y0035050D02*
X0040039Y0035660D01*
X0040039Y0063741D01*
X0042007Y0063333D02*
X0042007Y0063333D01*
X0042007Y0062735D02*
X0042007Y0062735D01*
X0042007Y0062136D02*
X0042007Y0062136D01*
X0042007Y0061538D02*
X0042007Y0061538D01*
X0042007Y0060939D02*
X0042007Y0060939D01*
X0042476Y0060341D02*
X0041239Y0060341D01*
X0041239Y0059742D02*
X0042476Y0059742D01*
X0042476Y0059144D02*
X0041239Y0059144D01*
X0028721Y0061538D02*
X0015328Y0061538D01*
X0015328Y0062136D02*
X0028578Y0062136D01*
X0028578Y0062735D02*
X0015328Y0062735D01*
X0015328Y0063333D02*
X0016816Y0063333D01*
X0015933Y0063932D02*
X0015328Y0063932D01*
X0015328Y0064530D02*
X0015381Y0064530D01*
X0019541Y0063333D02*
X0028578Y0063333D01*
X0029090Y0063932D02*
X0020424Y0063932D01*
X0020976Y0064530D02*
X0029689Y0064530D01*
X0030674Y0065129D02*
X0021224Y0065129D01*
X0021441Y0065727D02*
X0030674Y0065727D01*
X0030918Y0066326D02*
X0021441Y0066326D01*
X0021441Y0066924D02*
X0032933Y0066924D01*
X0032933Y0067523D02*
X0021203Y0067523D01*
X0020955Y0068121D02*
X0032933Y0068121D01*
X0032933Y0068720D02*
X0020372Y0068720D01*
X0019416Y0069318D02*
X0033250Y0069318D01*
X0033848Y0069917D02*
X0015328Y0069917D01*
X0015328Y0070515D02*
X0034447Y0070515D01*
X0035045Y0071114D02*
X0015328Y0071114D01*
X0015328Y0071712D02*
X0035644Y0071712D01*
X0036242Y0072311D02*
X0015328Y0072311D01*
X0015328Y0072909D02*
X0036841Y0072909D01*
X0037439Y0073508D02*
X0015328Y0073508D01*
X0015328Y0074106D02*
X0038038Y0074106D01*
X0038636Y0074705D02*
X0015328Y0074705D01*
X0015328Y0075303D02*
X0039235Y0075303D01*
X0039833Y0075902D02*
X0015328Y0075902D01*
X0015348Y0076501D02*
X0040432Y0076501D01*
X0041030Y0077099D02*
X0015407Y0077099D01*
X0015655Y0077698D02*
X0041629Y0077698D01*
X0042227Y0078296D02*
X0015903Y0078296D01*
X0016336Y0078895D02*
X0042826Y0078895D01*
X0043425Y0079493D02*
X0016935Y0079493D01*
X0018074Y0080092D02*
X0044023Y0080092D01*
X0049428Y0076300D02*
X0045944Y0072816D01*
X0045944Y0063741D01*
X0047144Y0066924D02*
X0050650Y0066924D01*
X0050650Y0067523D02*
X0047144Y0067523D01*
X0047144Y0068121D02*
X0050650Y0068121D01*
X0050650Y0068720D02*
X0047144Y0068720D01*
X0047144Y0069318D02*
X0050650Y0069318D01*
X0050650Y0069917D02*
X0047144Y0069917D01*
X0047144Y0070515D02*
X0050650Y0070515D01*
X0050650Y0071114D02*
X0047144Y0071114D01*
X0047144Y0071712D02*
X0050650Y0071712D01*
X0051242Y0072311D02*
X0047144Y0072311D01*
X0047735Y0072909D02*
X0051841Y0072909D01*
X0052439Y0073508D02*
X0048333Y0073508D01*
X0048932Y0074106D02*
X0072425Y0074106D01*
X0073023Y0073508D02*
X0071418Y0073508D01*
X0072016Y0072909D02*
X0073622Y0072909D01*
X0074220Y0072311D02*
X0072615Y0072311D01*
X0073213Y0071712D02*
X0074819Y0071712D01*
X0075417Y0071114D02*
X0073812Y0071114D01*
X0074410Y0070515D02*
X0076016Y0070515D01*
X0076615Y0069917D02*
X0075009Y0069917D01*
X0075607Y0069318D02*
X0077213Y0069318D01*
X0077812Y0068720D02*
X0076206Y0068720D01*
X0076804Y0068121D02*
X0078410Y0068121D01*
X0079009Y0067523D02*
X0077403Y0067523D01*
X0078001Y0066924D02*
X0079607Y0066924D01*
X0080206Y0066326D02*
X0078600Y0066326D01*
X0079198Y0065727D02*
X0080804Y0065727D01*
X0081403Y0065129D02*
X0079797Y0065129D01*
X0080395Y0064530D02*
X0083873Y0064530D01*
X0084347Y0063932D02*
X0080994Y0063932D01*
X0081592Y0063333D02*
X0084945Y0063333D01*
X0082191Y0062735D02*
X0127916Y0062735D01*
X0127318Y0062136D02*
X0082789Y0062136D01*
X0083388Y0061538D02*
X0126719Y0061538D01*
X0128916Y0060341D02*
X0135522Y0060341D01*
X0136121Y0060939D02*
X0129515Y0060939D01*
X0130113Y0061538D02*
X0136719Y0061538D01*
X0137318Y0062136D02*
X0130712Y0062136D01*
X0131310Y0062735D02*
X0137916Y0062735D01*
X0140113Y0061538D02*
X0146719Y0061538D01*
X0147318Y0062136D02*
X0140712Y0062136D01*
X0141310Y0062735D02*
X0147916Y0062735D01*
X0150113Y0061538D02*
X0150469Y0061538D01*
X0150712Y0062136D02*
X0151068Y0062136D01*
X0151310Y0062735D02*
X0151666Y0062735D01*
X0151909Y0063333D02*
X0152265Y0063333D01*
X0152507Y0063932D02*
X0152863Y0063932D01*
X0153106Y0064530D02*
X0153462Y0064530D01*
X0153625Y0065129D02*
X0153128Y0065129D01*
X0153128Y0065727D02*
X0153428Y0065727D01*
X0153428Y0066326D02*
X0153128Y0066326D01*
X0153128Y0066924D02*
X0153428Y0066924D01*
X0153647Y0067523D02*
X0153128Y0067523D01*
X0153128Y0068121D02*
X0153895Y0068121D01*
X0154399Y0068720D02*
X0153128Y0068720D01*
X0153128Y0069318D02*
X0155070Y0069318D01*
X0150728Y0069318D02*
X0148787Y0069318D01*
X0149458Y0068720D02*
X0150728Y0068720D01*
X0150728Y0068121D02*
X0149962Y0068121D01*
X0150210Y0067523D02*
X0150728Y0067523D01*
X0150728Y0066924D02*
X0150428Y0066924D01*
X0150428Y0066326D02*
X0150728Y0066326D01*
X0150728Y0065727D02*
X0150428Y0065727D01*
X0150310Y0065129D02*
X0150232Y0065129D01*
X0144945Y0063333D02*
X0141909Y0063333D01*
X0142507Y0063932D02*
X0144347Y0063932D01*
X0143873Y0064530D02*
X0143106Y0064530D01*
X0134945Y0063333D02*
X0131909Y0063333D01*
X0132507Y0063932D02*
X0134347Y0063932D01*
X0133873Y0064530D02*
X0133106Y0064530D01*
X0133128Y0065129D02*
X0133625Y0065129D01*
X0133428Y0065727D02*
X0133128Y0065727D01*
X0133128Y0066326D02*
X0133428Y0066326D01*
X0133428Y0066924D02*
X0133128Y0066924D01*
X0133128Y0067523D02*
X0133647Y0067523D01*
X0133895Y0068121D02*
X0133128Y0068121D01*
X0133128Y0068720D02*
X0134399Y0068720D01*
X0135070Y0069318D02*
X0133128Y0069318D01*
X0131928Y0071300D02*
X0131928Y0065050D01*
X0124945Y0063333D02*
X0118911Y0063333D01*
X0119510Y0063932D02*
X0124347Y0063932D01*
X0123873Y0064530D02*
X0119984Y0064530D01*
X0120232Y0065129D02*
X0123625Y0065129D01*
X0123428Y0065727D02*
X0120428Y0065727D01*
X0120428Y0066326D02*
X0123428Y0066326D01*
X0123428Y0066924D02*
X0120428Y0066924D01*
X0120210Y0067523D02*
X0123647Y0067523D01*
X0123895Y0068121D02*
X0119962Y0068121D01*
X0119458Y0068720D02*
X0124399Y0068720D01*
X0125070Y0069318D02*
X0121644Y0069318D01*
X0114399Y0068720D02*
X0109458Y0068720D01*
X0109962Y0068121D02*
X0113895Y0068121D01*
X0113647Y0067523D02*
X0110210Y0067523D01*
X0110428Y0066924D02*
X0113428Y0066924D01*
X0113428Y0066326D02*
X0110428Y0066326D01*
X0110428Y0065727D02*
X0113428Y0065727D01*
X0113625Y0065129D02*
X0110232Y0065129D01*
X0109984Y0064530D02*
X0113873Y0064530D01*
X0114347Y0063932D02*
X0109510Y0063932D01*
X0108911Y0063333D02*
X0114945Y0063333D01*
X0104945Y0063333D02*
X0098911Y0063333D01*
X0099510Y0063932D02*
X0104347Y0063932D01*
X0103873Y0064530D02*
X0099984Y0064530D01*
X0100232Y0065129D02*
X0103625Y0065129D01*
X0103428Y0065727D02*
X0100428Y0065727D01*
X0100428Y0066326D02*
X0103428Y0066326D01*
X0103428Y0066924D02*
X0100428Y0066924D01*
X0100210Y0067523D02*
X0103647Y0067523D01*
X0103895Y0068121D02*
X0099962Y0068121D01*
X0099458Y0068720D02*
X0104399Y0068720D01*
X0094399Y0068720D02*
X0089458Y0068720D01*
X0089962Y0068121D02*
X0093895Y0068121D01*
X0093647Y0067523D02*
X0090210Y0067523D01*
X0090428Y0066924D02*
X0093428Y0066924D01*
X0093428Y0066326D02*
X0090428Y0066326D01*
X0090428Y0065727D02*
X0093428Y0065727D01*
X0093625Y0065129D02*
X0090232Y0065129D01*
X0089984Y0064530D02*
X0093873Y0064530D01*
X0094347Y0063932D02*
X0089510Y0063932D01*
X0088911Y0063333D02*
X0094945Y0063333D01*
X0086928Y0066300D02*
X0081928Y0066300D01*
X0071928Y0076300D01*
X0049428Y0076300D01*
X0049530Y0074705D02*
X0071826Y0074705D01*
X0079129Y0078296D02*
X0083975Y0078296D01*
X0083719Y0077698D02*
X0079728Y0077698D01*
X0080326Y0077099D02*
X0083471Y0077099D01*
X0083428Y0076501D02*
X0080925Y0076501D01*
X0081523Y0075902D02*
X0083428Y0075902D01*
X0083553Y0075303D02*
X0082122Y0075303D01*
X0082721Y0074705D02*
X0083801Y0074705D01*
X0084172Y0074106D02*
X0083319Y0074106D01*
X0071615Y0069917D02*
X0071259Y0069917D01*
X0071016Y0070515D02*
X0070660Y0070515D01*
X0070417Y0071114D02*
X0070062Y0071114D01*
X0071857Y0069318D02*
X0072213Y0069318D01*
X0072456Y0068720D02*
X0072812Y0068720D01*
X0073054Y0068121D02*
X0073410Y0068121D01*
X0073653Y0067523D02*
X0074009Y0067523D01*
X0074251Y0066924D02*
X0074607Y0066924D01*
X0074850Y0066326D02*
X0075206Y0066326D01*
X0075448Y0065727D02*
X0075804Y0065727D01*
X0076047Y0065129D02*
X0076403Y0065129D01*
X0076645Y0064530D02*
X0077001Y0064530D01*
X0077244Y0063932D02*
X0077600Y0063932D01*
X0077842Y0063333D02*
X0078198Y0063333D01*
X0078441Y0062735D02*
X0078797Y0062735D01*
X0079039Y0062136D02*
X0079395Y0062136D01*
X0079638Y0061538D02*
X0079994Y0061538D01*
X0080236Y0060939D02*
X0080592Y0060939D01*
X0080835Y0060341D02*
X0081191Y0060341D01*
X0081433Y0059742D02*
X0081789Y0059742D01*
X0082032Y0059144D02*
X0082388Y0059144D01*
X0079428Y0055050D02*
X0145678Y0055050D01*
X0156928Y0066300D01*
X0161928Y0065050D02*
X0161928Y0071300D01*
X0177889Y0072909D02*
X0185968Y0072909D01*
X0186232Y0072800D02*
X0187625Y0072800D01*
X0188911Y0073333D01*
X0189896Y0074317D01*
X0190428Y0075604D01*
X0190428Y0076996D01*
X0189896Y0078283D01*
X0188911Y0079267D01*
X0187625Y0079800D01*
X0186232Y0079800D01*
X0184946Y0079267D01*
X0183961Y0078283D01*
X0183428Y0076996D01*
X0183428Y0075604D01*
X0183961Y0074317D01*
X0184946Y0073333D01*
X0186232Y0072800D01*
X0184771Y0073508D02*
X0179086Y0073508D01*
X0179685Y0074106D02*
X0184172Y0074106D01*
X0183801Y0074705D02*
X0180056Y0074705D01*
X0180304Y0075303D02*
X0183553Y0075303D01*
X0183428Y0075902D02*
X0180428Y0075902D01*
X0180428Y0076501D02*
X0183428Y0076501D01*
X0183471Y0077099D02*
X0180386Y0077099D01*
X0180138Y0077698D02*
X0183719Y0077698D01*
X0183975Y0078296D02*
X0179882Y0078296D01*
X0179284Y0078895D02*
X0184573Y0078895D01*
X0185491Y0079493D02*
X0178366Y0079493D01*
X0188366Y0079493D02*
X0195491Y0079493D01*
X0194946Y0079267D02*
X0196232Y0079800D01*
X0197625Y0079800D01*
X0198911Y0079267D01*
X0199896Y0078283D01*
X0200428Y0076996D01*
X0200428Y0075604D01*
X0199896Y0074317D01*
X0198911Y0073333D01*
X0197625Y0072800D01*
X0196232Y0072800D01*
X0194946Y0073333D01*
X0193961Y0074317D01*
X0193428Y0075604D01*
X0193428Y0076996D01*
X0193961Y0078283D01*
X0194946Y0079267D01*
X0194573Y0078895D02*
X0189284Y0078895D01*
X0189882Y0078296D02*
X0193975Y0078296D01*
X0193719Y0077698D02*
X0190138Y0077698D01*
X0190386Y0077099D02*
X0193471Y0077099D01*
X0193428Y0076501D02*
X0190428Y0076501D01*
X0190428Y0075902D02*
X0193428Y0075902D01*
X0193553Y0075303D02*
X0190304Y0075303D01*
X0190056Y0074705D02*
X0193801Y0074705D01*
X0194172Y0074106D02*
X0189685Y0074106D01*
X0189086Y0073508D02*
X0194771Y0073508D01*
X0195968Y0072909D02*
X0187889Y0072909D01*
X0197889Y0072909D02*
X0205968Y0072909D01*
X0204771Y0073508D02*
X0199086Y0073508D01*
X0199685Y0074106D02*
X0204172Y0074106D01*
X0203801Y0074705D02*
X0200056Y0074705D01*
X0200304Y0075303D02*
X0203553Y0075303D01*
X0203428Y0075902D02*
X0200428Y0075902D01*
X0200428Y0076501D02*
X0203428Y0076501D01*
X0203471Y0077099D02*
X0200386Y0077099D01*
X0200138Y0077698D02*
X0203719Y0077698D01*
X0203975Y0078296D02*
X0199882Y0078296D01*
X0199284Y0078895D02*
X0204573Y0078895D01*
X0205491Y0079493D02*
X0198366Y0079493D01*
X0225939Y0071114D02*
X0230045Y0071114D01*
X0229478Y0070515D02*
X0225341Y0070515D01*
X0224742Y0069917D02*
X0229478Y0069917D01*
X0229478Y0069318D02*
X0228787Y0069318D01*
X0229458Y0068720D02*
X0229478Y0068720D01*
X0233178Y0068800D02*
X0233178Y0062550D01*
X0218178Y0047550D01*
X0074428Y0047550D01*
X0073100Y0046221D01*
X0069369Y0046221D01*
X0066501Y0045976D02*
X0063428Y0045976D01*
X0063428Y0045378D02*
X0066501Y0045378D01*
X0066501Y0044779D02*
X0063428Y0044779D01*
X0063428Y0044181D02*
X0066501Y0044181D01*
X0066501Y0043582D02*
X0063428Y0043582D01*
X0063428Y0042984D02*
X0066501Y0042984D01*
X0066501Y0042385D02*
X0063428Y0042385D01*
X0063428Y0041787D02*
X0066501Y0041787D01*
X0066501Y0041188D02*
X0063428Y0041188D01*
X0063428Y0040590D02*
X0066501Y0040590D01*
X0066501Y0039991D02*
X0063428Y0039991D01*
X0063428Y0039393D02*
X0066501Y0039393D01*
X0066501Y0038794D02*
X0063428Y0038794D01*
X0063428Y0038196D02*
X0066501Y0038196D01*
X0066501Y0037597D02*
X0063428Y0037597D01*
X0063428Y0036999D02*
X0066501Y0036999D01*
X0066501Y0036400D02*
X0063428Y0036400D01*
X0063428Y0035802D02*
X0066501Y0035802D01*
X0066501Y0035203D02*
X0063428Y0035203D01*
X0063428Y0034605D02*
X0066501Y0034605D01*
X0066501Y0034006D02*
X0063428Y0034006D01*
X0063428Y0033408D02*
X0066504Y0033408D01*
X0066501Y0032809D02*
X0063428Y0032809D01*
X0063988Y0032211D02*
X0066501Y0032211D01*
X0066216Y0031612D02*
X0064028Y0031612D01*
X0069369Y0032442D02*
X0072037Y0032442D01*
X0072568Y0034410D02*
X0074428Y0032550D01*
X0230678Y0032550D01*
X0246928Y0016300D01*
X0243086Y0018445D02*
X0239733Y0018445D01*
X0239135Y0019043D02*
X0242488Y0019043D01*
X0241889Y0019642D02*
X0238006Y0019642D01*
X0235851Y0019642D02*
X0235284Y0019642D01*
X0234685Y0020240D02*
X0241291Y0020240D01*
X0240692Y0020839D02*
X0234087Y0020839D01*
X0233488Y0021437D02*
X0240094Y0021437D01*
X0239495Y0022036D02*
X0232890Y0022036D01*
X0232291Y0022634D02*
X0238897Y0022634D01*
X0238298Y0023233D02*
X0231692Y0023233D01*
X0231094Y0023832D02*
X0237700Y0023832D01*
X0237101Y0024430D02*
X0230495Y0024430D01*
X0229897Y0025029D02*
X0236503Y0025029D01*
X0235904Y0025627D02*
X0229298Y0025627D01*
X0228700Y0026226D02*
X0235306Y0026226D01*
X0234707Y0026824D02*
X0228101Y0026824D01*
X0227503Y0027423D02*
X0234109Y0027423D01*
X0233510Y0028021D02*
X0226904Y0028021D01*
X0226306Y0028620D02*
X0232912Y0028620D01*
X0232313Y0029218D02*
X0225707Y0029218D01*
X0225109Y0029817D02*
X0231715Y0029817D01*
X0231116Y0030415D02*
X0224510Y0030415D01*
X0223912Y0031014D02*
X0230518Y0031014D01*
X0223510Y0028021D02*
X0216904Y0028021D01*
X0216306Y0028620D02*
X0222912Y0028620D01*
X0224109Y0027423D02*
X0217503Y0027423D01*
X0218101Y0026824D02*
X0224707Y0026824D01*
X0225306Y0026226D02*
X0218700Y0026226D01*
X0219298Y0025627D02*
X0225904Y0025627D01*
X0226503Y0025029D02*
X0219897Y0025029D01*
X0220495Y0024430D02*
X0227101Y0024430D01*
X0227700Y0023832D02*
X0221094Y0023832D01*
X0221692Y0023233D02*
X0228298Y0023233D01*
X0228897Y0022634D02*
X0222291Y0022634D01*
X0222890Y0022036D02*
X0229495Y0022036D01*
X0230094Y0021437D02*
X0223488Y0021437D01*
X0224087Y0020839D02*
X0230692Y0020839D01*
X0231291Y0020240D02*
X0224685Y0020240D01*
X0225284Y0019642D02*
X0225851Y0019642D01*
X0228006Y0019642D02*
X0231889Y0019642D01*
X0232488Y0019043D02*
X0229135Y0019043D01*
X0229733Y0018445D02*
X0233086Y0018445D01*
X0233685Y0017846D02*
X0230076Y0017846D01*
X0230324Y0017248D02*
X0233533Y0017248D01*
X0233428Y0016649D02*
X0230428Y0016649D01*
X0230428Y0016051D02*
X0233428Y0016051D01*
X0233491Y0015452D02*
X0230366Y0015452D01*
X0230118Y0014854D02*
X0233739Y0014854D01*
X0234023Y0014255D02*
X0229834Y0014255D01*
X0229235Y0013657D02*
X0234622Y0013657D01*
X0235609Y0013058D02*
X0228248Y0013058D01*
X0226928Y0016300D02*
X0213178Y0030050D01*
X0204428Y0028800D02*
X0074428Y0028800D01*
X0072165Y0026536D01*
X0069369Y0026536D01*
X0069369Y0034410D02*
X0072568Y0034410D01*
X0073100Y0036379D02*
X0075678Y0033800D01*
X0239428Y0033800D01*
X0256928Y0016300D01*
X0255851Y0019642D02*
X0255284Y0019642D01*
X0266928Y0016300D02*
X0266928Y0035050D01*
X0266928Y0066300D01*
X0263428Y0066326D02*
X0263128Y0066326D01*
X0263128Y0066924D02*
X0263428Y0066924D01*
X0263647Y0067523D02*
X0263128Y0067523D01*
X0263128Y0068121D02*
X0263895Y0068121D01*
X0264399Y0068720D02*
X0263128Y0068720D01*
X0263128Y0069318D02*
X0265070Y0069318D01*
X0263128Y0069917D02*
X0275469Y0069917D01*
X0275791Y0070050D02*
X0275081Y0069756D01*
X0274442Y0069329D01*
X0273899Y0068786D01*
X0273472Y0068147D01*
X0273178Y0067438D01*
X0273028Y0066684D01*
X0273028Y0066600D01*
X0276628Y0066600D01*
X0276628Y0066000D01*
X0273028Y0066000D01*
X0273028Y0065916D01*
X0273178Y0065162D01*
X0273472Y0064453D01*
X0273899Y0063814D01*
X0274442Y0063271D01*
X0275081Y0062844D01*
X0275791Y0062550D01*
X0276544Y0062400D01*
X0276628Y0062400D01*
X0276628Y0066000D01*
X0277228Y0066000D01*
X0277228Y0062400D01*
X0277313Y0062400D01*
X0278066Y0062550D01*
X0278776Y0062844D01*
X0279415Y0063271D01*
X0279958Y0063814D01*
X0280385Y0064453D01*
X0280679Y0065162D01*
X0280828Y0065916D01*
X0280828Y0066000D01*
X0277229Y0066000D01*
X0277229Y0066600D01*
X0280828Y0066600D01*
X0280828Y0066684D01*
X0280679Y0067438D01*
X0280385Y0068147D01*
X0279958Y0068786D01*
X0279415Y0069329D01*
X0278776Y0069756D01*
X0278066Y0070050D01*
X0277313Y0070200D01*
X0277228Y0070200D01*
X0277228Y0066600D01*
X0276628Y0066600D01*
X0276628Y0070200D01*
X0276544Y0070200D01*
X0275791Y0070050D01*
X0276628Y0069917D02*
X0277228Y0069917D01*
X0277228Y0069318D02*
X0276628Y0069318D01*
X0276628Y0068720D02*
X0277228Y0068720D01*
X0277228Y0068121D02*
X0276628Y0068121D01*
X0276628Y0067523D02*
X0277228Y0067523D01*
X0277228Y0066924D02*
X0276628Y0066924D01*
X0276628Y0066326D02*
X0270428Y0066326D01*
X0270428Y0066924D02*
X0273076Y0066924D01*
X0273214Y0067523D02*
X0270210Y0067523D01*
X0269962Y0068121D02*
X0273462Y0068121D01*
X0273855Y0068720D02*
X0269458Y0068720D01*
X0268787Y0069318D02*
X0274431Y0069318D01*
X0278388Y0069917D02*
X0281017Y0069917D01*
X0281018Y0070515D02*
X0263128Y0070515D01*
X0263439Y0071114D02*
X0281018Y0071114D01*
X0281019Y0071712D02*
X0264038Y0071712D01*
X0264636Y0072311D02*
X0281020Y0072311D01*
X0281020Y0072909D02*
X0278874Y0072909D01*
X0278776Y0072844D02*
X0279415Y0073271D01*
X0279958Y0073814D01*
X0280385Y0074453D01*
X0280679Y0075162D01*
X0280828Y0075916D01*
X0280828Y0076000D01*
X0277229Y0076000D01*
X0277229Y0076600D01*
X0280828Y0076600D01*
X0280828Y0076684D01*
X0280679Y0077438D01*
X0280385Y0078147D01*
X0279958Y0078786D01*
X0279415Y0079329D01*
X0278776Y0079756D01*
X0278066Y0080050D01*
X0277313Y0080200D01*
X0277228Y0080200D01*
X0277228Y0076600D01*
X0276628Y0076600D01*
X0276628Y0076000D01*
X0273028Y0076000D01*
X0273028Y0075916D01*
X0273178Y0075162D01*
X0273472Y0074453D01*
X0273899Y0073814D01*
X0274442Y0073271D01*
X0275081Y0072844D01*
X0275791Y0072550D01*
X0276544Y0072400D01*
X0276628Y0072400D01*
X0276628Y0076000D01*
X0277228Y0076000D01*
X0277228Y0072400D01*
X0277313Y0072400D01*
X0278066Y0072550D01*
X0278776Y0072844D01*
X0279652Y0073508D02*
X0281021Y0073508D01*
X0281021Y0074106D02*
X0280153Y0074106D01*
X0280489Y0074705D02*
X0281022Y0074705D01*
X0281023Y0075303D02*
X0280707Y0075303D01*
X0280826Y0075902D02*
X0281023Y0075902D01*
X0281004Y0076501D02*
X0277229Y0076501D01*
X0277228Y0077099D02*
X0276628Y0077099D01*
X0276628Y0076600D02*
X0276628Y0080200D01*
X0276544Y0080200D01*
X0275791Y0080050D01*
X0275081Y0079756D01*
X0274442Y0079329D01*
X0273899Y0078786D01*
X0273472Y0078147D01*
X0273178Y0077438D01*
X0273028Y0076684D01*
X0273028Y0076600D01*
X0276628Y0076600D01*
X0276628Y0076501D02*
X0270428Y0076501D01*
X0270428Y0075902D02*
X0273031Y0075902D01*
X0273150Y0075303D02*
X0270304Y0075303D01*
X0270056Y0074705D02*
X0273368Y0074705D01*
X0273704Y0074106D02*
X0269685Y0074106D01*
X0269086Y0073508D02*
X0274205Y0073508D01*
X0274983Y0072909D02*
X0267889Y0072909D01*
X0265968Y0072909D02*
X0265235Y0072909D01*
X0263038Y0074106D02*
X0259685Y0074106D01*
X0260056Y0074705D02*
X0263636Y0074705D01*
X0263553Y0075303D02*
X0260304Y0075303D01*
X0260428Y0075902D02*
X0263428Y0075902D01*
X0263428Y0076501D02*
X0260428Y0076501D01*
X0260386Y0077099D02*
X0263471Y0077099D01*
X0263719Y0077698D02*
X0260138Y0077698D01*
X0259882Y0078296D02*
X0263975Y0078296D01*
X0264573Y0078895D02*
X0259284Y0078895D01*
X0258366Y0079493D02*
X0265491Y0079493D01*
X0268366Y0079493D02*
X0274687Y0079493D01*
X0274008Y0078895D02*
X0269284Y0078895D01*
X0269882Y0078296D02*
X0273572Y0078296D01*
X0273286Y0077698D02*
X0270138Y0077698D01*
X0270386Y0077099D02*
X0273111Y0077099D01*
X0276628Y0077698D02*
X0277228Y0077698D01*
X0277228Y0078296D02*
X0276628Y0078296D01*
X0276628Y0078895D02*
X0277228Y0078895D01*
X0277228Y0079493D02*
X0276628Y0079493D01*
X0276628Y0080092D02*
X0277228Y0080092D01*
X0277858Y0080092D02*
X0278280Y0080092D01*
X0279170Y0079493D02*
X0279419Y0079493D01*
X0279849Y0078895D02*
X0280017Y0078895D01*
X0280285Y0078296D02*
X0280450Y0078296D01*
X0280571Y0077698D02*
X0280698Y0077698D01*
X0280746Y0077099D02*
X0280945Y0077099D01*
X0277228Y0075902D02*
X0276628Y0075902D01*
X0276628Y0075303D02*
X0277228Y0075303D01*
X0277228Y0074705D02*
X0276628Y0074705D01*
X0276628Y0074106D02*
X0277228Y0074106D01*
X0277228Y0073508D02*
X0276628Y0073508D01*
X0276628Y0072909D02*
X0277228Y0072909D01*
X0266928Y0076300D02*
X0261928Y0071300D01*
X0261928Y0063800D01*
X0234428Y0036300D01*
X0078178Y0036300D01*
X0074163Y0040316D01*
X0069369Y0040316D01*
X0069369Y0042284D02*
X0074694Y0042284D01*
X0079428Y0037550D01*
X0228178Y0037550D01*
X0256928Y0066300D01*
X0253428Y0066326D02*
X0253128Y0066326D01*
X0253128Y0066924D02*
X0253428Y0066924D01*
X0253647Y0067523D02*
X0253128Y0067523D01*
X0253128Y0068121D02*
X0253895Y0068121D01*
X0254399Y0068720D02*
X0253128Y0068720D01*
X0253128Y0069318D02*
X0255070Y0069318D01*
X0253128Y0069917D02*
X0260728Y0069917D01*
X0260728Y0070515D02*
X0253128Y0070515D01*
X0253439Y0071114D02*
X0260728Y0071114D01*
X0260728Y0071712D02*
X0254038Y0071712D01*
X0254636Y0072311D02*
X0261242Y0072311D01*
X0261841Y0072909D02*
X0257889Y0072909D01*
X0259086Y0073508D02*
X0262439Y0073508D01*
X0255968Y0072909D02*
X0255235Y0072909D01*
X0253038Y0074106D02*
X0249685Y0074106D01*
X0250056Y0074705D02*
X0253636Y0074705D01*
X0253553Y0075303D02*
X0250304Y0075303D01*
X0250428Y0075902D02*
X0253428Y0075902D01*
X0253428Y0076501D02*
X0250428Y0076501D01*
X0250386Y0077099D02*
X0253471Y0077099D01*
X0253719Y0077698D02*
X0250138Y0077698D01*
X0249882Y0078296D02*
X0253975Y0078296D01*
X0254573Y0078895D02*
X0249284Y0078895D01*
X0248366Y0079493D02*
X0255491Y0079493D01*
X0256928Y0076300D02*
X0251928Y0071300D01*
X0251928Y0065050D01*
X0225678Y0038800D01*
X0080678Y0038800D01*
X0075226Y0044253D01*
X0069369Y0044253D01*
X0066501Y0046575D02*
X0063428Y0046575D01*
X0063428Y0047173D02*
X0066501Y0047173D01*
X0066501Y0047772D02*
X0063428Y0047772D01*
X0063428Y0048370D02*
X0066501Y0048370D01*
X0066501Y0048969D02*
X0063428Y0048969D01*
X0063567Y0049568D02*
X0066501Y0049568D01*
X0066501Y0050166D02*
X0064166Y0050166D01*
X0069369Y0050158D02*
X0072037Y0050158D01*
X0071928Y0050050D01*
X0210678Y0050050D01*
X0226928Y0066300D01*
X0223428Y0066326D02*
X0223128Y0066326D01*
X0223128Y0066924D02*
X0223428Y0066924D01*
X0223647Y0067523D02*
X0223128Y0067523D01*
X0223128Y0068121D02*
X0223895Y0068121D01*
X0223545Y0068720D02*
X0224399Y0068720D01*
X0224144Y0069318D02*
X0225070Y0069318D01*
X0226538Y0071712D02*
X0230644Y0071712D01*
X0231242Y0072311D02*
X0227136Y0072311D01*
X0227889Y0072909D02*
X0231841Y0072909D01*
X0232439Y0073508D02*
X0229086Y0073508D01*
X0229685Y0074106D02*
X0233038Y0074106D01*
X0233636Y0074705D02*
X0230056Y0074705D01*
X0230304Y0075303D02*
X0233553Y0075303D01*
X0233428Y0075902D02*
X0230428Y0075902D01*
X0230428Y0076501D02*
X0233428Y0076501D01*
X0233471Y0077099D02*
X0230386Y0077099D01*
X0230138Y0077698D02*
X0233719Y0077698D01*
X0233975Y0078296D02*
X0229882Y0078296D01*
X0229284Y0078895D02*
X0234573Y0078895D01*
X0235491Y0079493D02*
X0228366Y0079493D01*
X0226928Y0076300D02*
X0226928Y0073800D01*
X0230678Y0070050D02*
X0236928Y0076300D01*
X0240428Y0076501D02*
X0241682Y0076501D01*
X0242280Y0077099D02*
X0240386Y0077099D01*
X0240138Y0077698D02*
X0243719Y0077698D01*
X0243975Y0078296D02*
X0239882Y0078296D01*
X0239284Y0078895D02*
X0244573Y0078895D01*
X0245491Y0079493D02*
X0238366Y0079493D01*
X0240428Y0075902D02*
X0241083Y0075902D01*
X0240485Y0075303D02*
X0240304Y0075303D01*
X0242682Y0074106D02*
X0244172Y0074106D01*
X0243801Y0074705D02*
X0243280Y0074705D01*
X0243178Y0076300D02*
X0238178Y0071300D01*
X0235678Y0071300D01*
X0233178Y0068800D01*
X0230678Y0070050D02*
X0230678Y0063800D01*
X0215678Y0048800D01*
X0073178Y0048800D01*
X0072568Y0048190D01*
X0069369Y0048190D01*
X0075678Y0052550D02*
X0072165Y0056064D01*
X0069369Y0056064D01*
X0071736Y0058545D02*
X0065871Y0058545D01*
X0066469Y0059144D02*
X0071138Y0059144D01*
X0070539Y0059742D02*
X0068341Y0059742D01*
X0068939Y0060341D02*
X0069941Y0060341D01*
X0069342Y0060939D02*
X0069028Y0060939D01*
X0066928Y0061300D02*
X0056928Y0051300D01*
X0075678Y0052550D02*
X0203178Y0052550D01*
X0216928Y0066300D01*
X0220428Y0066326D02*
X0220728Y0066326D01*
X0220728Y0066924D02*
X0220428Y0066924D01*
X0220210Y0067523D02*
X0220728Y0067523D01*
X0220728Y0068121D02*
X0219962Y0068121D01*
X0219458Y0068720D02*
X0220728Y0068720D01*
X0220750Y0069318D02*
X0220417Y0069318D01*
X0220428Y0065727D02*
X0220728Y0065727D01*
X0220310Y0065129D02*
X0220232Y0065129D01*
X0223128Y0065129D02*
X0223625Y0065129D01*
X0223462Y0064530D02*
X0223106Y0064530D01*
X0222863Y0063932D02*
X0222507Y0063932D01*
X0222265Y0063333D02*
X0221909Y0063333D01*
X0221666Y0062735D02*
X0221310Y0062735D01*
X0221068Y0062136D02*
X0220712Y0062136D01*
X0220469Y0061538D02*
X0220113Y0061538D01*
X0219871Y0060939D02*
X0219515Y0060939D01*
X0219272Y0060341D02*
X0218916Y0060341D01*
X0218674Y0059742D02*
X0218318Y0059742D01*
X0218075Y0059144D02*
X0217719Y0059144D01*
X0217477Y0058545D02*
X0217121Y0058545D01*
X0216878Y0057947D02*
X0216522Y0057947D01*
X0216280Y0057348D02*
X0215924Y0057348D01*
X0215681Y0056750D02*
X0215325Y0056750D01*
X0215083Y0056151D02*
X0214727Y0056151D01*
X0214484Y0055553D02*
X0214128Y0055553D01*
X0213886Y0054954D02*
X0213530Y0054954D01*
X0213287Y0054356D02*
X0212931Y0054356D01*
X0212689Y0053757D02*
X0212333Y0053757D01*
X0212090Y0053159D02*
X0211734Y0053159D01*
X0211491Y0052560D02*
X0211136Y0052560D01*
X0210893Y0051962D02*
X0210537Y0051962D01*
X0210294Y0051363D02*
X0209939Y0051363D01*
X0225802Y0045976D02*
X0231158Y0045976D01*
X0230559Y0045378D02*
X0225203Y0045378D01*
X0224605Y0044779D02*
X0229961Y0044779D01*
X0229362Y0044181D02*
X0224006Y0044181D01*
X0223408Y0043582D02*
X0228764Y0043582D01*
X0228165Y0042984D02*
X0222809Y0042984D01*
X0222211Y0042385D02*
X0227567Y0042385D01*
X0226968Y0041787D02*
X0221612Y0041787D01*
X0221014Y0041188D02*
X0226370Y0041188D01*
X0225771Y0040590D02*
X0220415Y0040590D01*
X0219428Y0041300D02*
X0241928Y0063800D01*
X0241928Y0071300D01*
X0243515Y0069917D02*
X0250728Y0069917D01*
X0250728Y0070515D02*
X0244028Y0070515D01*
X0244028Y0071114D02*
X0250728Y0071114D01*
X0250728Y0071712D02*
X0244028Y0071712D01*
X0243887Y0072311D02*
X0251242Y0072311D01*
X0251841Y0072909D02*
X0247889Y0072909D01*
X0249086Y0073508D02*
X0252439Y0073508D01*
X0246928Y0076300D02*
X0243178Y0076300D01*
X0242083Y0073508D02*
X0244771Y0073508D01*
X0245968Y0072909D02*
X0243289Y0072909D01*
X0243128Y0069318D02*
X0245070Y0069318D01*
X0244399Y0068720D02*
X0243128Y0068720D01*
X0243128Y0068121D02*
X0243895Y0068121D01*
X0243647Y0067523D02*
X0243128Y0067523D01*
X0243128Y0066924D02*
X0243428Y0066924D01*
X0243428Y0066326D02*
X0243128Y0066326D01*
X0243128Y0065727D02*
X0243428Y0065727D01*
X0243625Y0065129D02*
X0243128Y0065129D01*
X0243128Y0064530D02*
X0243873Y0064530D01*
X0244347Y0063932D02*
X0243128Y0063932D01*
X0243128Y0063333D02*
X0244945Y0063333D01*
X0242560Y0062735D02*
X0247916Y0062735D01*
X0247318Y0062136D02*
X0241962Y0062136D01*
X0241363Y0061538D02*
X0246719Y0061538D01*
X0246121Y0060939D02*
X0240765Y0060939D01*
X0240166Y0060341D02*
X0245522Y0060341D01*
X0244924Y0059742D02*
X0239568Y0059742D01*
X0238969Y0059144D02*
X0244325Y0059144D01*
X0243727Y0058545D02*
X0238371Y0058545D01*
X0237772Y0057947D02*
X0243128Y0057947D01*
X0242530Y0057348D02*
X0237174Y0057348D01*
X0236575Y0056750D02*
X0241931Y0056750D01*
X0241333Y0056151D02*
X0235977Y0056151D01*
X0235378Y0055553D02*
X0240734Y0055553D01*
X0240136Y0054954D02*
X0234780Y0054954D01*
X0234181Y0054356D02*
X0239537Y0054356D01*
X0238939Y0053757D02*
X0233583Y0053757D01*
X0232984Y0053159D02*
X0238340Y0053159D01*
X0237741Y0052560D02*
X0232386Y0052560D01*
X0231787Y0051962D02*
X0237143Y0051962D01*
X0236544Y0051363D02*
X0231189Y0051363D01*
X0230590Y0050765D02*
X0235946Y0050765D01*
X0235347Y0050166D02*
X0229992Y0050166D01*
X0229393Y0049568D02*
X0234749Y0049568D01*
X0234150Y0048969D02*
X0228795Y0048969D01*
X0228196Y0048370D02*
X0233552Y0048370D01*
X0232953Y0047772D02*
X0227597Y0047772D01*
X0226999Y0047173D02*
X0232355Y0047173D01*
X0231756Y0046575D02*
X0226400Y0046575D01*
X0232158Y0043582D02*
X0232514Y0043582D01*
X0232756Y0044181D02*
X0233112Y0044181D01*
X0233355Y0044779D02*
X0233711Y0044779D01*
X0233953Y0045378D02*
X0234309Y0045378D01*
X0234552Y0045976D02*
X0234908Y0045976D01*
X0235150Y0046575D02*
X0235506Y0046575D01*
X0235749Y0047173D02*
X0236105Y0047173D01*
X0236347Y0047772D02*
X0236703Y0047772D01*
X0236946Y0048370D02*
X0237302Y0048370D01*
X0237545Y0048969D02*
X0237900Y0048969D01*
X0238143Y0049568D02*
X0238499Y0049568D01*
X0238742Y0050166D02*
X0239097Y0050166D01*
X0239340Y0050765D02*
X0239696Y0050765D01*
X0239939Y0051363D02*
X0240294Y0051363D01*
X0240537Y0051962D02*
X0240893Y0051962D01*
X0241136Y0052560D02*
X0241491Y0052560D01*
X0241734Y0053159D02*
X0242090Y0053159D01*
X0242333Y0053757D02*
X0242689Y0053757D01*
X0242931Y0054356D02*
X0243287Y0054356D01*
X0243530Y0054954D02*
X0243886Y0054954D01*
X0244128Y0055553D02*
X0244484Y0055553D01*
X0244727Y0056151D02*
X0245083Y0056151D01*
X0245325Y0056750D02*
X0245681Y0056750D01*
X0245924Y0057348D02*
X0246280Y0057348D01*
X0246522Y0057947D02*
X0246878Y0057947D01*
X0247121Y0058545D02*
X0247477Y0058545D01*
X0247719Y0059144D02*
X0248075Y0059144D01*
X0248318Y0059742D02*
X0248674Y0059742D01*
X0248916Y0060341D02*
X0249272Y0060341D01*
X0249515Y0060939D02*
X0249871Y0060939D01*
X0250113Y0061538D02*
X0250469Y0061538D01*
X0250712Y0062136D02*
X0251068Y0062136D01*
X0251310Y0062735D02*
X0251666Y0062735D01*
X0251909Y0063333D02*
X0252265Y0063333D01*
X0252507Y0063932D02*
X0252863Y0063932D01*
X0253106Y0064530D02*
X0253462Y0064530D01*
X0253625Y0065129D02*
X0253128Y0065129D01*
X0253128Y0065727D02*
X0253428Y0065727D01*
X0250728Y0065727D02*
X0250428Y0065727D01*
X0250428Y0066326D02*
X0250728Y0066326D01*
X0250728Y0066924D02*
X0250428Y0066924D01*
X0250210Y0067523D02*
X0250728Y0067523D01*
X0250728Y0068121D02*
X0249962Y0068121D01*
X0249458Y0068720D02*
X0250728Y0068720D01*
X0250728Y0069318D02*
X0248787Y0069318D01*
X0250232Y0065129D02*
X0250310Y0065129D01*
X0255060Y0062735D02*
X0259166Y0062735D01*
X0258911Y0063333D02*
X0259765Y0063333D01*
X0259510Y0063932D02*
X0260363Y0063932D01*
X0260728Y0064530D02*
X0259984Y0064530D01*
X0260232Y0065129D02*
X0260728Y0065129D01*
X0260728Y0065727D02*
X0260428Y0065727D01*
X0260428Y0066326D02*
X0260728Y0066326D01*
X0260728Y0066924D02*
X0260428Y0066924D01*
X0260210Y0067523D02*
X0260728Y0067523D01*
X0260728Y0068121D02*
X0259962Y0068121D01*
X0259458Y0068720D02*
X0260728Y0068720D01*
X0260728Y0069318D02*
X0258787Y0069318D01*
X0263128Y0065727D02*
X0263428Y0065727D01*
X0263625Y0065129D02*
X0263128Y0065129D01*
X0263128Y0064530D02*
X0263873Y0064530D01*
X0264347Y0063932D02*
X0263128Y0063932D01*
X0263128Y0063333D02*
X0264945Y0063333D01*
X0265728Y0062735D02*
X0262560Y0062735D01*
X0261962Y0062136D02*
X0265728Y0062136D01*
X0265728Y0061538D02*
X0261363Y0061538D01*
X0260765Y0060939D02*
X0265728Y0060939D01*
X0265728Y0060341D02*
X0260166Y0060341D01*
X0259568Y0059742D02*
X0265728Y0059742D01*
X0265728Y0059144D02*
X0258969Y0059144D01*
X0258371Y0058545D02*
X0265728Y0058545D01*
X0265728Y0057947D02*
X0257772Y0057947D01*
X0257174Y0057348D02*
X0265728Y0057348D01*
X0265728Y0056750D02*
X0256575Y0056750D01*
X0255977Y0056151D02*
X0265728Y0056151D01*
X0265728Y0055553D02*
X0255378Y0055553D01*
X0254780Y0054954D02*
X0265728Y0054954D01*
X0265728Y0054356D02*
X0254181Y0054356D01*
X0253583Y0053757D02*
X0265728Y0053757D01*
X0265728Y0053159D02*
X0252984Y0053159D01*
X0252386Y0052560D02*
X0265728Y0052560D01*
X0265728Y0051962D02*
X0251787Y0051962D01*
X0251189Y0051363D02*
X0265728Y0051363D01*
X0265728Y0050765D02*
X0250590Y0050765D01*
X0249992Y0050166D02*
X0265728Y0050166D01*
X0265728Y0049568D02*
X0249393Y0049568D01*
X0248795Y0048969D02*
X0265728Y0048969D01*
X0265728Y0048370D02*
X0248196Y0048370D01*
X0247597Y0047772D02*
X0265728Y0047772D01*
X0265728Y0047173D02*
X0246999Y0047173D01*
X0246400Y0046575D02*
X0265728Y0046575D01*
X0265728Y0045976D02*
X0245802Y0045976D01*
X0245203Y0045378D02*
X0265728Y0045378D01*
X0265728Y0044779D02*
X0244605Y0044779D01*
X0244006Y0044181D02*
X0265728Y0044181D01*
X0265728Y0043582D02*
X0243408Y0043582D01*
X0242809Y0042984D02*
X0265728Y0042984D01*
X0265728Y0042385D02*
X0242211Y0042385D01*
X0241612Y0041787D02*
X0265728Y0041787D01*
X0265728Y0041188D02*
X0241014Y0041188D01*
X0240415Y0040590D02*
X0265728Y0040590D01*
X0265728Y0039991D02*
X0239817Y0039991D01*
X0239218Y0039393D02*
X0265728Y0039393D01*
X0265728Y0038794D02*
X0238620Y0038794D01*
X0238021Y0038196D02*
X0265728Y0038196D01*
X0265728Y0037597D02*
X0237423Y0037597D01*
X0236824Y0036999D02*
X0265728Y0036999D01*
X0265728Y0036400D02*
X0236226Y0036400D01*
X0234627Y0038196D02*
X0230521Y0038196D01*
X0229923Y0037597D02*
X0234029Y0037597D01*
X0235226Y0038794D02*
X0231120Y0038794D01*
X0231718Y0039393D02*
X0235824Y0039393D01*
X0236423Y0039991D02*
X0232317Y0039991D01*
X0232915Y0040590D02*
X0237021Y0040590D01*
X0237620Y0041188D02*
X0233514Y0041188D01*
X0234112Y0041787D02*
X0238218Y0041787D01*
X0238817Y0042385D02*
X0234711Y0042385D01*
X0235309Y0042984D02*
X0239415Y0042984D01*
X0240014Y0043582D02*
X0235908Y0043582D01*
X0236506Y0044181D02*
X0240612Y0044181D01*
X0241211Y0044779D02*
X0237105Y0044779D01*
X0237703Y0045378D02*
X0241809Y0045378D01*
X0242408Y0045976D02*
X0238302Y0045976D01*
X0238900Y0046575D02*
X0243006Y0046575D01*
X0243605Y0047173D02*
X0239499Y0047173D01*
X0240097Y0047772D02*
X0244203Y0047772D01*
X0244802Y0048370D02*
X0240696Y0048370D01*
X0241295Y0048969D02*
X0245400Y0048969D01*
X0245999Y0049568D02*
X0241893Y0049568D01*
X0242492Y0050166D02*
X0246597Y0050166D01*
X0247196Y0050765D02*
X0243090Y0050765D01*
X0243689Y0051363D02*
X0247794Y0051363D01*
X0248393Y0051962D02*
X0244287Y0051962D01*
X0244886Y0052560D02*
X0248991Y0052560D01*
X0249590Y0053159D02*
X0245484Y0053159D01*
X0246083Y0053757D02*
X0250189Y0053757D01*
X0250787Y0054356D02*
X0246681Y0054356D01*
X0247280Y0054954D02*
X0251386Y0054954D01*
X0251984Y0055553D02*
X0247878Y0055553D01*
X0248477Y0056151D02*
X0252583Y0056151D01*
X0253181Y0056750D02*
X0249075Y0056750D01*
X0249674Y0057348D02*
X0253780Y0057348D01*
X0254378Y0057947D02*
X0250272Y0057947D01*
X0250871Y0058545D02*
X0254977Y0058545D01*
X0255575Y0059144D02*
X0251469Y0059144D01*
X0252068Y0059742D02*
X0256174Y0059742D01*
X0256772Y0060341D02*
X0252666Y0060341D01*
X0253265Y0060939D02*
X0257371Y0060939D01*
X0257969Y0061538D02*
X0253863Y0061538D01*
X0254462Y0062136D02*
X0258568Y0062136D01*
X0268128Y0062136D02*
X0281010Y0062136D01*
X0281009Y0061538D02*
X0268128Y0061538D01*
X0268128Y0060939D02*
X0281008Y0060939D01*
X0281008Y0060341D02*
X0268128Y0060341D01*
X0268128Y0059742D02*
X0281007Y0059742D01*
X0281007Y0059144D02*
X0268128Y0059144D01*
X0268128Y0058545D02*
X0281006Y0058545D01*
X0281005Y0057947D02*
X0268128Y0057947D01*
X0268128Y0057348D02*
X0281005Y0057348D01*
X0281004Y0056750D02*
X0268128Y0056750D01*
X0268128Y0056151D02*
X0281004Y0056151D01*
X0281003Y0055553D02*
X0268128Y0055553D01*
X0268128Y0054954D02*
X0281003Y0054954D01*
X0281002Y0054356D02*
X0268128Y0054356D01*
X0268128Y0053757D02*
X0281001Y0053757D01*
X0281001Y0053159D02*
X0268128Y0053159D01*
X0268128Y0052560D02*
X0281000Y0052560D01*
X0281000Y0051962D02*
X0268128Y0051962D01*
X0268128Y0051363D02*
X0280999Y0051363D01*
X0280998Y0050765D02*
X0268128Y0050765D01*
X0268128Y0050166D02*
X0280998Y0050166D01*
X0280997Y0049568D02*
X0268128Y0049568D01*
X0268128Y0048969D02*
X0280997Y0048969D01*
X0280996Y0048370D02*
X0268128Y0048370D01*
X0268128Y0047772D02*
X0280995Y0047772D01*
X0280995Y0047173D02*
X0268128Y0047173D01*
X0268128Y0046575D02*
X0280994Y0046575D01*
X0280994Y0045976D02*
X0268128Y0045976D01*
X0268128Y0045378D02*
X0280993Y0045378D01*
X0280993Y0044779D02*
X0268128Y0044779D01*
X0268128Y0044181D02*
X0280992Y0044181D01*
X0280991Y0043582D02*
X0268128Y0043582D01*
X0268128Y0042984D02*
X0280991Y0042984D01*
X0280990Y0042385D02*
X0268128Y0042385D01*
X0268128Y0041787D02*
X0280990Y0041787D01*
X0280989Y0041188D02*
X0268128Y0041188D01*
X0268128Y0040590D02*
X0280988Y0040590D01*
X0280988Y0039991D02*
X0268128Y0039991D01*
X0268128Y0039393D02*
X0280987Y0039393D01*
X0280987Y0038794D02*
X0268128Y0038794D01*
X0268128Y0038196D02*
X0280986Y0038196D01*
X0280985Y0037597D02*
X0268128Y0037597D01*
X0268128Y0036999D02*
X0280985Y0036999D01*
X0280984Y0036400D02*
X0268128Y0036400D01*
X0268128Y0035802D02*
X0280984Y0035802D01*
X0280983Y0035203D02*
X0268128Y0035203D01*
X0268128Y0034605D02*
X0280983Y0034605D01*
X0280982Y0034006D02*
X0268128Y0034006D01*
X0268128Y0033408D02*
X0280981Y0033408D01*
X0280981Y0032809D02*
X0268128Y0032809D01*
X0268128Y0032211D02*
X0280980Y0032211D01*
X0280980Y0031612D02*
X0268128Y0031612D01*
X0268128Y0031014D02*
X0280979Y0031014D01*
X0280978Y0030415D02*
X0268128Y0030415D01*
X0268128Y0029817D02*
X0280978Y0029817D01*
X0280977Y0029218D02*
X0268128Y0029218D01*
X0268128Y0028620D02*
X0280977Y0028620D01*
X0280976Y0028021D02*
X0268128Y0028021D01*
X0268128Y0027423D02*
X0280975Y0027423D01*
X0280975Y0026824D02*
X0268128Y0026824D01*
X0268128Y0026226D02*
X0280974Y0026226D01*
X0280974Y0025627D02*
X0268128Y0025627D01*
X0268128Y0025029D02*
X0280973Y0025029D01*
X0280973Y0024430D02*
X0268128Y0024430D01*
X0268128Y0023832D02*
X0280972Y0023832D01*
X0280971Y0023233D02*
X0268128Y0023233D01*
X0268128Y0022634D02*
X0280971Y0022634D01*
X0280970Y0022036D02*
X0268128Y0022036D01*
X0268128Y0021437D02*
X0280970Y0021437D01*
X0280969Y0020839D02*
X0268128Y0020839D01*
X0278428Y0009467D02*
X0280958Y0009467D01*
X0280957Y0008869D02*
X0279309Y0008869D01*
X0279901Y0008270D02*
X0280957Y0008270D01*
X0280956Y0007672D02*
X0280149Y0007672D01*
X0280397Y0007073D02*
X0280955Y0007073D01*
X0280955Y0006475D02*
X0280428Y0006475D01*
X0280428Y0005876D02*
X0280913Y0005876D01*
X0280784Y0005278D02*
X0280293Y0005278D01*
X0280536Y0004679D02*
X0280045Y0004679D01*
X0280288Y0004081D02*
X0279659Y0004081D01*
X0279723Y0003482D02*
X0279060Y0003482D01*
X0279114Y0002884D02*
X0277827Y0002884D01*
X0216928Y0016300D02*
X0204428Y0028800D01*
X0204109Y0027423D02*
X0197503Y0027423D01*
X0198101Y0026824D02*
X0204707Y0026824D01*
X0205306Y0026226D02*
X0198700Y0026226D01*
X0199298Y0025627D02*
X0205904Y0025627D01*
X0206503Y0025029D02*
X0199897Y0025029D01*
X0200495Y0024430D02*
X0207101Y0024430D01*
X0207700Y0023832D02*
X0201094Y0023832D01*
X0201692Y0023233D02*
X0208298Y0023233D01*
X0208897Y0022634D02*
X0202291Y0022634D01*
X0202890Y0022036D02*
X0209495Y0022036D01*
X0210094Y0021437D02*
X0203488Y0021437D01*
X0204087Y0020839D02*
X0210692Y0020839D01*
X0206928Y0016300D02*
X0195678Y0027550D01*
X0185851Y0019642D02*
X0185284Y0019642D01*
X0141928Y0011300D02*
X0111928Y0011300D01*
X0109309Y0008869D02*
X0114547Y0008869D01*
X0114946Y0009267D02*
X0113961Y0008283D01*
X0113428Y0006996D01*
X0113428Y0005604D01*
X0113961Y0004317D01*
X0114946Y0003333D01*
X0116232Y0002800D01*
X0117625Y0002800D01*
X0118911Y0003333D01*
X0119896Y0004317D01*
X0120428Y0005604D01*
X0120428Y0006996D01*
X0119896Y0008283D01*
X0118911Y0009267D01*
X0117625Y0009800D01*
X0116232Y0009800D01*
X0114946Y0009267D01*
X0115429Y0009467D02*
X0108428Y0009467D01*
X0108911Y0009267D02*
X0107625Y0009800D01*
X0106232Y0009800D01*
X0104946Y0009267D01*
X0103961Y0008283D01*
X0103428Y0006996D01*
X0103428Y0005604D01*
X0103961Y0004317D01*
X0104946Y0003333D01*
X0106232Y0002800D01*
X0107625Y0002800D01*
X0108911Y0003333D01*
X0109896Y0004317D01*
X0110428Y0005604D01*
X0110428Y0006996D01*
X0109896Y0008283D01*
X0108911Y0009267D01*
X0109901Y0008270D02*
X0113956Y0008270D01*
X0113708Y0007672D02*
X0110149Y0007672D01*
X0110397Y0007073D02*
X0113460Y0007073D01*
X0113428Y0006475D02*
X0110428Y0006475D01*
X0110428Y0005876D02*
X0113428Y0005876D01*
X0113564Y0005278D02*
X0110293Y0005278D01*
X0110045Y0004679D02*
X0113811Y0004679D01*
X0114198Y0004081D02*
X0109659Y0004081D01*
X0109060Y0003482D02*
X0114797Y0003482D01*
X0116030Y0002884D02*
X0107827Y0002884D01*
X0106030Y0002884D02*
X0097827Y0002884D01*
X0097625Y0002800D02*
X0098911Y0003333D01*
X0099896Y0004317D01*
X0100428Y0005604D01*
X0100428Y0006996D01*
X0099896Y0008283D01*
X0098911Y0009267D01*
X0097625Y0009800D01*
X0096232Y0009800D01*
X0094946Y0009267D01*
X0093961Y0008283D01*
X0093428Y0006996D01*
X0093428Y0005604D01*
X0093961Y0004317D01*
X0094946Y0003333D01*
X0096232Y0002800D01*
X0097625Y0002800D01*
X0099060Y0003482D02*
X0104797Y0003482D01*
X0104198Y0004081D02*
X0099659Y0004081D01*
X0100045Y0004679D02*
X0103811Y0004679D01*
X0103564Y0005278D02*
X0100293Y0005278D01*
X0100428Y0005876D02*
X0103428Y0005876D01*
X0103428Y0006475D02*
X0100428Y0006475D01*
X0100397Y0007073D02*
X0103460Y0007073D01*
X0103708Y0007672D02*
X0100149Y0007672D01*
X0099901Y0008270D02*
X0103956Y0008270D01*
X0104547Y0008869D02*
X0099309Y0008869D01*
X0098428Y0009467D02*
X0105429Y0009467D01*
X0095429Y0009467D02*
X0090234Y0009467D01*
X0090428Y0008869D02*
X0094547Y0008869D01*
X0093956Y0008270D02*
X0090428Y0008270D01*
X0090428Y0007672D02*
X0093708Y0007672D01*
X0093460Y0007073D02*
X0090428Y0007073D01*
X0090428Y0006475D02*
X0093428Y0006475D01*
X0093428Y0005876D02*
X0090428Y0005876D01*
X0090428Y0005278D02*
X0093564Y0005278D01*
X0093811Y0004679D02*
X0090428Y0004679D01*
X0090428Y0004081D02*
X0094198Y0004081D01*
X0094797Y0003482D02*
X0090428Y0003482D01*
X0089985Y0002884D02*
X0096030Y0002884D01*
X0081928Y0016300D02*
X0073178Y0007550D01*
X0081928Y0016300D02*
X0086928Y0016300D01*
X0118428Y0009467D02*
X0125429Y0009467D01*
X0124547Y0008869D02*
X0119309Y0008869D01*
X0119901Y0008270D02*
X0123956Y0008270D01*
X0123708Y0007672D02*
X0120149Y0007672D01*
X0120397Y0007073D02*
X0123460Y0007073D01*
X0123428Y0006475D02*
X0120428Y0006475D01*
X0120428Y0005876D02*
X0123428Y0005876D01*
X0123564Y0005278D02*
X0120293Y0005278D01*
X0120045Y0004679D02*
X0123811Y0004679D01*
X0124198Y0004081D02*
X0119659Y0004081D01*
X0119060Y0003482D02*
X0124797Y0003482D01*
X0126030Y0002884D02*
X0117827Y0002884D01*
X0076928Y0035050D02*
X0073631Y0038347D01*
X0069369Y0038347D01*
X0069369Y0036379D02*
X0073100Y0036379D01*
X0076928Y0035050D02*
X0266928Y0035050D01*
X0231915Y0042984D02*
X0231559Y0042984D01*
X0231317Y0042385D02*
X0230961Y0042385D01*
X0230718Y0041787D02*
X0230362Y0041787D01*
X0230120Y0041188D02*
X0229764Y0041188D01*
X0229521Y0040590D02*
X0229165Y0040590D01*
X0228923Y0039991D02*
X0228567Y0039991D01*
X0228324Y0039393D02*
X0227968Y0039393D01*
X0227726Y0038794D02*
X0227370Y0038794D01*
X0219428Y0041300D02*
X0151928Y0041300D01*
X0145681Y0056750D02*
X0145325Y0056750D01*
X0145924Y0057348D02*
X0146280Y0057348D01*
X0146522Y0057947D02*
X0146878Y0057947D01*
X0147121Y0058545D02*
X0147477Y0058545D01*
X0147719Y0059144D02*
X0148075Y0059144D01*
X0148318Y0059742D02*
X0148674Y0059742D01*
X0148916Y0060341D02*
X0149272Y0060341D01*
X0149515Y0060939D02*
X0149871Y0060939D01*
X0146121Y0060939D02*
X0139515Y0060939D01*
X0138916Y0060341D02*
X0145522Y0060341D01*
X0144924Y0059742D02*
X0138318Y0059742D01*
X0137719Y0059144D02*
X0144325Y0059144D01*
X0143727Y0058545D02*
X0137121Y0058545D01*
X0136522Y0057947D02*
X0143128Y0057947D01*
X0134924Y0059742D02*
X0128318Y0059742D01*
X0127719Y0059144D02*
X0134325Y0059144D01*
X0161928Y0061300D02*
X0199428Y0061300D01*
X0201928Y0063800D01*
X0201928Y0068800D01*
X0223128Y0065727D02*
X0223428Y0065727D01*
X0268128Y0062735D02*
X0275345Y0062735D01*
X0274380Y0063333D02*
X0268911Y0063333D01*
X0269510Y0063932D02*
X0273820Y0063932D01*
X0273440Y0064530D02*
X0269984Y0064530D01*
X0270232Y0065129D02*
X0273192Y0065129D01*
X0273066Y0065727D02*
X0270428Y0065727D01*
X0276628Y0065727D02*
X0277228Y0065727D01*
X0277228Y0065129D02*
X0276628Y0065129D01*
X0276628Y0064530D02*
X0277228Y0064530D01*
X0277228Y0063932D02*
X0276628Y0063932D01*
X0276628Y0063333D02*
X0277228Y0063333D01*
X0277228Y0062735D02*
X0276628Y0062735D01*
X0278512Y0062735D02*
X0281010Y0062735D01*
X0281011Y0063333D02*
X0279477Y0063333D01*
X0280037Y0063932D02*
X0281011Y0063932D01*
X0281012Y0064530D02*
X0280417Y0064530D01*
X0280665Y0065129D02*
X0281013Y0065129D01*
X0281013Y0065727D02*
X0280791Y0065727D01*
X0281014Y0066326D02*
X0277229Y0066326D01*
X0280781Y0066924D02*
X0281014Y0066924D01*
X0281015Y0067523D02*
X0280643Y0067523D01*
X0280395Y0068121D02*
X0281016Y0068121D01*
X0281016Y0068720D02*
X0280002Y0068720D01*
X0279426Y0069318D02*
X0281017Y0069318D01*
X0275999Y0080092D02*
X0077334Y0080092D01*
X0077932Y0079493D02*
X0085491Y0079493D01*
X0084573Y0078895D02*
X0078531Y0078895D01*
X0057545Y0071114D02*
X0053439Y0071114D01*
X0053050Y0070515D02*
X0056947Y0070515D01*
X0056348Y0069917D02*
X0053050Y0069917D01*
X0053050Y0069318D02*
X0055750Y0069318D01*
X0055151Y0068720D02*
X0053050Y0068720D01*
X0053050Y0068121D02*
X0054587Y0068121D01*
X0054587Y0067523D02*
X0053050Y0067523D01*
X0053050Y0066924D02*
X0054587Y0066924D01*
X0016941Y0069318D02*
X0015328Y0069318D01*
X0015328Y0068720D02*
X0015985Y0068720D01*
X0015402Y0068121D02*
X0015328Y0068121D01*
X0015328Y0048969D02*
X0016234Y0048969D01*
X0015636Y0048370D02*
X0015328Y0048370D01*
X0015328Y0044181D02*
X0015684Y0044181D01*
X0015328Y0043582D02*
X0016283Y0043582D01*
X0105235Y0072909D02*
X0105968Y0072909D01*
X0108366Y0079493D02*
X0115491Y0079493D01*
X0131928Y0071300D02*
X0136928Y0076300D01*
X0140386Y0077099D02*
X0143471Y0077099D01*
X0143719Y0077698D02*
X0140138Y0077698D01*
X0139882Y0078296D02*
X0143975Y0078296D01*
X0144573Y0078895D02*
X0139284Y0078895D01*
X0138366Y0079493D02*
X0145491Y0079493D01*
X0145235Y0072909D02*
X0145968Y0072909D01*
D15*
X0018178Y0066300D03*
X0018178Y0056300D03*
X0018178Y0046300D03*
X0018178Y0036300D03*
X0018178Y0026300D03*
X0018178Y0016300D03*
D16*
X0028178Y0022550D03*
X0038178Y0025050D03*
X0041928Y0025050D03*
X0046928Y0026300D03*
X0046928Y0031300D03*
X0053178Y0035050D03*
X0043178Y0036300D03*
X0039428Y0035050D03*
X0033178Y0036300D03*
X0036928Y0038800D03*
X0034428Y0041300D03*
X0036928Y0043800D03*
X0034428Y0046300D03*
X0036928Y0048800D03*
X0034428Y0051300D03*
X0036928Y0053800D03*
X0034428Y0056300D03*
X0036928Y0058800D03*
X0030678Y0062550D03*
X0028178Y0060050D03*
X0043178Y0067550D03*
X0066928Y0061300D03*
X0151928Y0041300D03*
X0161928Y0061300D03*
X0169428Y0071300D03*
X0201928Y0068800D03*
X0219428Y0071300D03*
X0241928Y0071300D03*
X0065678Y0021300D03*
X0063178Y0027550D03*
X0061928Y0031300D03*
X0031928Y0031300D03*
X0031928Y0027550D03*
D17*
X0031928Y0031300D02*
X0028818Y0034410D01*
X0024488Y0034410D01*
X0043976Y0023347D02*
X0046928Y0026300D01*
X0046928Y0031300D01*
X0046928Y0052127D01*
X0043976Y0055080D01*
X0043976Y0063741D01*
X0043976Y0067550D01*
X0043178Y0067550D01*
X0061928Y0050050D02*
X0064005Y0052127D01*
X0069369Y0052127D01*
X0061928Y0050050D02*
X0061928Y0031300D01*
X0043976Y0023347D02*
X0043976Y0018859D01*
M02*
