G75*
%MOIN*%
%OFA0B0*%
%FSLAX25Y25*%
%IPPOS*%
%LPD*%
%AMOC8*
5,1,8,0,0,1.08239X$1,22.5*
%
%ADD10C,0.00800*%
%ADD11R,0.04331X0.00984*%
%ADD12R,0.00984X0.04331*%
%ADD13C,0.01000*%
%ADD14C,0.00300*%
D10*
X0027440Y0021812D02*
X0066417Y0021812D01*
X0066417Y0057639D01*
X0063267Y0060788D01*
X0027440Y0060788D01*
X0027440Y0021812D01*
D11*
X0024980Y0026536D03*
X0024980Y0028505D03*
X0024980Y0030473D03*
X0024980Y0032442D03*
X0024980Y0034410D03*
X0024980Y0036379D03*
X0024980Y0038347D03*
X0024980Y0040316D03*
X0024980Y0042284D03*
X0024980Y0044253D03*
X0024980Y0046221D03*
X0024980Y0048190D03*
X0024980Y0050158D03*
X0024980Y0052127D03*
X0024980Y0054095D03*
X0024980Y0056064D03*
X0068877Y0056064D03*
X0068877Y0054095D03*
X0068877Y0052127D03*
X0068877Y0050158D03*
X0068877Y0048190D03*
X0068877Y0046221D03*
X0068877Y0044253D03*
X0068877Y0042284D03*
X0068877Y0040316D03*
X0068877Y0038347D03*
X0068877Y0036379D03*
X0068877Y0034410D03*
X0068877Y0032442D03*
X0068877Y0030473D03*
X0068877Y0028505D03*
X0068877Y0026536D03*
D12*
X0061692Y0019351D03*
X0059724Y0019351D03*
X0057755Y0019351D03*
X0055787Y0019351D03*
X0053818Y0019351D03*
X0051850Y0019351D03*
X0049881Y0019351D03*
X0047913Y0019351D03*
X0045944Y0019351D03*
X0043976Y0019351D03*
X0042007Y0019351D03*
X0040039Y0019351D03*
X0038070Y0019351D03*
X0036102Y0019351D03*
X0034133Y0019351D03*
X0032165Y0019351D03*
X0032165Y0063249D03*
X0034133Y0063249D03*
X0036102Y0063249D03*
X0038070Y0063249D03*
X0040039Y0063249D03*
X0042007Y0063249D03*
X0043976Y0063249D03*
X0045944Y0063249D03*
X0047913Y0063249D03*
X0049881Y0063249D03*
X0051850Y0063249D03*
X0053818Y0063249D03*
X0055787Y0063249D03*
X0057755Y0063249D03*
X0059724Y0063249D03*
X0061692Y0063249D03*
D13*
X0060944Y0056300D02*
X0060946Y0056362D01*
X0060952Y0056425D01*
X0060962Y0056486D01*
X0060976Y0056547D01*
X0060993Y0056607D01*
X0061014Y0056666D01*
X0061040Y0056723D01*
X0061068Y0056778D01*
X0061100Y0056832D01*
X0061136Y0056883D01*
X0061174Y0056933D01*
X0061216Y0056979D01*
X0061260Y0057023D01*
X0061308Y0057064D01*
X0061357Y0057102D01*
X0061409Y0057136D01*
X0061463Y0057167D01*
X0061519Y0057195D01*
X0061577Y0057219D01*
X0061636Y0057240D01*
X0061696Y0057256D01*
X0061757Y0057269D01*
X0061819Y0057278D01*
X0061881Y0057283D01*
X0061944Y0057284D01*
X0062006Y0057281D01*
X0062068Y0057274D01*
X0062130Y0057263D01*
X0062190Y0057248D01*
X0062250Y0057230D01*
X0062308Y0057208D01*
X0062365Y0057182D01*
X0062420Y0057152D01*
X0062473Y0057119D01*
X0062524Y0057083D01*
X0062572Y0057044D01*
X0062618Y0057001D01*
X0062661Y0056956D01*
X0062701Y0056908D01*
X0062738Y0056858D01*
X0062772Y0056805D01*
X0062803Y0056751D01*
X0062829Y0056695D01*
X0062853Y0056637D01*
X0062872Y0056577D01*
X0062888Y0056517D01*
X0062900Y0056455D01*
X0062908Y0056394D01*
X0062912Y0056331D01*
X0062912Y0056269D01*
X0062908Y0056206D01*
X0062900Y0056145D01*
X0062888Y0056083D01*
X0062872Y0056023D01*
X0062853Y0055963D01*
X0062829Y0055905D01*
X0062803Y0055849D01*
X0062772Y0055795D01*
X0062738Y0055742D01*
X0062701Y0055692D01*
X0062661Y0055644D01*
X0062618Y0055599D01*
X0062572Y0055556D01*
X0062524Y0055517D01*
X0062473Y0055481D01*
X0062420Y0055448D01*
X0062365Y0055418D01*
X0062308Y0055392D01*
X0062250Y0055370D01*
X0062190Y0055352D01*
X0062130Y0055337D01*
X0062068Y0055326D01*
X0062006Y0055319D01*
X0061944Y0055316D01*
X0061881Y0055317D01*
X0061819Y0055322D01*
X0061757Y0055331D01*
X0061696Y0055344D01*
X0061636Y0055360D01*
X0061577Y0055381D01*
X0061519Y0055405D01*
X0061463Y0055433D01*
X0061409Y0055464D01*
X0061357Y0055498D01*
X0061308Y0055536D01*
X0061260Y0055577D01*
X0061216Y0055621D01*
X0061174Y0055667D01*
X0061136Y0055717D01*
X0061100Y0055768D01*
X0061068Y0055822D01*
X0061040Y0055877D01*
X0061014Y0055934D01*
X0060993Y0055993D01*
X0060976Y0056053D01*
X0060962Y0056114D01*
X0060952Y0056175D01*
X0060946Y0056238D01*
X0060944Y0056300D01*
D14*
X0038653Y0012700D02*
X0036718Y0012700D01*
X0038653Y0012700D02*
X0038653Y0015602D01*
X0039664Y0015602D02*
X0041599Y0012700D01*
X0042611Y0012700D02*
X0044546Y0012700D01*
X0042611Y0014635D01*
X0042611Y0015119D01*
X0043095Y0015602D01*
X0044062Y0015602D01*
X0044546Y0015119D01*
X0045557Y0015119D02*
X0045557Y0015602D01*
X0047492Y0015602D01*
X0048504Y0015602D02*
X0050439Y0015602D01*
X0050439Y0014151D01*
X0049471Y0014635D01*
X0048988Y0014635D01*
X0048504Y0014151D01*
X0048504Y0013184D01*
X0048988Y0012700D01*
X0049955Y0012700D01*
X0050439Y0013184D01*
X0051450Y0013184D02*
X0051450Y0015119D01*
X0051934Y0015602D01*
X0052902Y0015602D01*
X0053385Y0015119D01*
X0053385Y0014635D01*
X0052902Y0014151D01*
X0051450Y0014151D01*
X0051450Y0013184D02*
X0051934Y0012700D01*
X0052902Y0012700D01*
X0053385Y0013184D01*
X0054397Y0013184D02*
X0054881Y0012700D01*
X0055848Y0012700D01*
X0056332Y0013184D01*
X0056332Y0015119D01*
X0055848Y0015602D01*
X0054881Y0015602D01*
X0054397Y0015119D01*
X0057343Y0015602D02*
X0059278Y0012700D01*
X0057343Y0012700D02*
X0059278Y0015602D01*
X0047492Y0013184D02*
X0047492Y0012700D01*
X0047492Y0013184D02*
X0045557Y0015119D01*
X0041599Y0015602D02*
X0039664Y0012700D01*
X0064196Y0063606D02*
X0065163Y0063606D01*
X0065647Y0064089D01*
X0066659Y0064089D02*
X0067142Y0063606D01*
X0068110Y0063606D01*
X0068594Y0064089D01*
X0068594Y0066024D01*
X0068110Y0066508D01*
X0067142Y0066508D01*
X0066659Y0066024D01*
X0065647Y0066024D02*
X0065163Y0066508D01*
X0064196Y0066508D01*
X0063712Y0066024D01*
X0063712Y0065540D01*
X0064196Y0065057D01*
X0063712Y0064573D01*
X0063712Y0064089D01*
X0064196Y0063606D01*
X0064196Y0065057D02*
X0064680Y0065057D01*
X0069591Y0066508D02*
X0070558Y0066508D01*
X0070074Y0066508D02*
X0070074Y0063606D01*
X0069591Y0063606D02*
X0070558Y0063606D01*
M02*
